<svg width="35" height="35" viewBox="0 0 35 35" fill="none" xmlns="http://www.w3.org/2000/svg">
<g clip-path="url(#clip0_2925_28646)">
<g filter="url(#filter0_i_2925_28646)">
<path d="M7.91665 0H27.0834C31.4584 0 35 3.54167 35 7.91665V27.0834C35 31.4584 31.4584 35 27.0834 35H7.91665C3.54167 35 0 31.4584 0 27.0834V7.91665C0 3.54167 3.54167 0 7.91665 0Z" fill="#FFFEFF"/>
<path d="M20.089 4.85773C19.224 4.58487 18.2972 4.43555 17.3395 4.43555C14.5435 4.43555 12.0411 5.69703 10.3677 7.68455L14.6671 11.2992L20.089 4.85773Z" fill="#1A73E8"/>
<path d="M10.3671 7.68457C8.98864 9.32178 8.23356 11.3937 8.23535 13.5339C8.23535 15.2433 8.57521 16.6336 9.13643 17.8745L14.6665 11.2992L10.3671 7.68457Z" fill="#EA4335"/>
<path d="M17.3391 10.0577C18.0028 10.0583 18.6526 10.2485 19.2118 10.6061C19.771 10.9635 20.2164 11.4734 20.4956 12.0756C20.7748 12.6778 20.8761 13.3472 20.7876 14.005C20.6991 14.6628 20.4244 15.2816 19.9959 15.7886L25.4128 9.34712C24.3009 7.20499 22.3841 5.59188 20.0835 4.8623L14.6719 11.3037C14.9979 10.9132 15.4059 10.5992 15.8668 10.3839C16.3277 10.1686 16.8303 10.0572 17.3391 10.0577Z" fill="#4285F4"/>
<path d="M17.3387 17.0191C15.4181 17.0191 13.8579 15.459 13.8579 13.5384C13.8556 12.7206 14.144 11.9286 14.6714 11.3037L9.13623 17.879C10.0836 19.9747 11.6541 21.6584 13.2709 23.7798L19.9956 15.7885C19.6688 16.1745 19.2619 16.4846 18.803 16.6972C18.3441 16.9097 17.8444 17.0196 17.3387 17.0191Z" fill="#FBBC04"/>
<path d="M19.862 25.958C22.8999 21.2106 26.4373 19.0531 26.4373 13.5334C26.4373 12.0196 26.0666 10.5933 25.4126 9.33691L13.2764 23.78C13.7913 24.4545 14.3113 25.1702 14.8159 25.9631C16.6593 28.8157 16.1495 30.5252 17.3389 30.5252C18.5284 30.5252 18.0186 28.8106 19.862 25.958Z" fill="#34A853"/>
</g>
</g>
<defs>
<filter id="filter0_i_2925_28646" x="0" y="-1" width="35" height="36" filterUnits="userSpaceOnUse" color-interpolation-filters="sRGB">
<feFlood flood-opacity="0" result="BackgroundImageFix"/>
<feBlend mode="normal" in="SourceGraphic" in2="BackgroundImageFix" result="shape"/>
<feColorMatrix in="SourceAlpha" type="matrix" values="0 0 0 0 0 0 0 0 0 0 0 0 0 0 0 0 0 0 127 0" result="hardAlpha"/>
<feOffset dy="-1"/>
<feGaussianBlur stdDeviation="0.5"/>
<feComposite in2="hardAlpha" operator="arithmetic" k2="-1" k3="1"/>
<feColorMatrix type="matrix" values="0 0 0 0 0 0 0 0 0 0 0 0 0 0 0 0 0 0 0.12 0"/>
<feBlend mode="normal" in2="shape" result="effect1_innerShadow_2925_28646"/>
</filter>
<clipPath id="clip0_2925_28646">
<rect width="35" height="35" fill="white"/>
</clipPath>
</defs>
</svg>
