<svg width="51" height="22" viewBox="0 0 51 22" fill="none" xmlns="http://www.w3.org/2000/svg">
<path d="M3.52058 7.87398H7.5693V11.1159H3.52058V21.8561H0V7.41029C0 6.38733 0.165709 5.42268 0.499064 4.51539C0.831451 3.60811 1.32082 2.82224 1.96622 2.15588C2.61161 1.49047 3.4043 0.964648 4.34331 0.578406C5.28136 0.193121 6.35701 0 7.57027 0C7.7854 0 8.00054 0.0143407 8.21567 0.043022C8.4308 0.0717033 8.64593 0.106121 8.86106 0.144363V3.50199C8.66531 3.46375 8.47925 3.42933 8.30385 3.40065C8.12748 3.37197 7.94142 3.35763 7.74664 3.35763C6.94426 3.35763 6.27464 3.46375 5.73682 3.67599C5.19899 3.88823 4.76388 4.17313 4.4315 4.52974C4.09911 4.8873 3.86363 5.31178 3.72699 5.80318C3.59036 6.29555 3.52155 6.82137 3.52155 7.38066V7.87398H3.52058Z" fill="black"/>
<path d="M10.707 3.79165C10.707 3.17405 10.9076 2.65301 11.3088 2.22852C11.709 1.80404 12.2624 1.5918 12.9669 1.5918C13.6714 1.5918 14.2189 1.80882 14.6104 2.24286C15.0019 2.67691 15.1976 3.19413 15.1976 3.79165C15.1976 4.40926 15.0019 4.93508 14.6104 5.36913C14.2189 5.80317 13.6714 6.02019 12.9669 6.02019C12.2624 6.02019 11.71 5.80317 11.3088 5.36913C10.9076 4.93508 10.707 4.40926 10.707 3.79165Z" fill="#5ABA47"/>
<path d="M33.2452 18.7145C33.0494 18.7432 32.8052 18.7576 32.5116 18.7576C31.1617 18.7576 30.1684 18.3713 29.5337 17.5998C28.898 16.8283 28.5802 15.834 28.5802 14.6179V11.1149H33.1279V7.87396H28.5802V4.22761V3.90829V1.5918H25.0596V3.90733V4.22665V14.6179C25.0596 15.6409 25.2301 16.6007 25.5732 17.4985C25.9152 18.3962 26.4046 19.1773 27.0403 19.8436C27.676 20.509 28.4435 21.0358 29.3438 21.4211C30.2431 21.8073 31.2606 22.0005 32.3953 22.0005C32.7665 22.0005 33.0359 21.9861 33.2026 21.9574C33.3683 21.9288 33.5786 21.8943 33.8334 21.8561V18.6142C33.6367 18.6524 33.4409 18.6859 33.2452 18.7145Z" fill="black"/>
<path d="M35.5576 14.9086C35.5576 13.9487 35.7165 13.0386 36.0344 12.18C36.3522 11.3215 36.8203 10.5739 37.4386 9.93619C38.0558 9.29946 38.8146 8.79659 39.7129 8.4266C40.6112 8.05756 41.6317 7.87305 42.7732 7.87305C43.8401 7.87305 44.8044 8.0394 45.6649 8.3721C46.5254 8.70481 47.2609 9.17518 47.8685 9.78513C48.4761 10.3941 48.9539 11.1379 49.3008 12.0146C49.6467 12.8923 49.8386 13.8665 49.8764 14.9373C49.8948 15.2881 49.9045 15.7174 49.9045 16.225C49.9045 16.7337 49.9326 17.292 49.9888 17.901C50.045 18.51 50.1477 19.1524 50.2979 19.8265C50.4472 20.5005 50.6817 21.1793 50.9995 21.8628H47.6301C47.3113 21.1802 47.0778 20.4689 46.9285 19.7299C46.4411 20.4316 45.8238 20.9861 45.0757 21.3915C44.3266 21.7978 43.4283 22.0005 42.3807 22.0005C41.3884 22.0005 40.4717 21.816 39.6296 21.447C38.7875 21.0779 38.0665 20.5741 37.4676 19.9374C36.8688 19.3006 36.4007 18.5521 36.0635 17.6935C35.7253 16.834 35.5576 15.9057 35.5576 14.9086ZM42.7732 10.9754C42.0803 10.9754 41.4912 11.0767 41.0047 11.2804C40.5182 11.484 40.1199 11.7651 39.8118 12.1255C39.5026 12.486 39.2778 12.9057 39.1383 13.3856C38.9978 13.8655 38.928 14.3827 38.928 14.9363C38.928 15.4898 38.9978 16.0071 39.1383 16.488C39.2788 16.9688 39.5036 17.3885 39.8118 17.748C40.1209 18.1084 40.5182 18.3895 41.0047 18.5932C41.4912 18.7968 42.0813 18.8981 42.7732 18.8981C43.9332 18.8981 44.846 18.5798 45.5108 17.9431C46.1746 17.3063 46.508 16.3044 46.508 14.9373C46.4518 13.7183 46.1329 12.7536 45.5534 12.0424C44.972 11.3311 44.0456 10.9754 42.7732 10.9754Z" fill="black"/>
<path d="M21.7706 21.8561H18.25V1.5918H21.7706V21.8561Z" fill="black"/>
<path d="M14.7286 21.8552H11.208V7.87305H14.7286V21.8552Z" fill="#5ABA47"/>
</svg>
