<svg width="20" height="20" viewBox="0 0 20 20" fill="none" xmlns="http://www.w3.org/2000/svg">
<g clip-path="url(#clip0_1002_2458)">
<path d="M3.33333 3.33333H8.33333V8.33333H3.33333V3.33333ZM16.6667 3.33333V8.33333H11.6667V3.33333H16.6667ZM11.6667 12.5H13.3333V10.8333H11.6667V9.16667H13.3333V10.8333H15V9.16667H16.6667V10.8333H15V12.5H16.6667V15H15V16.6667H13.3333V15H10.8333V16.6667H9.16667V13.3333H11.6667V12.5ZM13.3333 12.5V15H15V12.5H13.3333ZM3.33333 16.6667V11.6667H8.33333V16.6667H3.33333ZM5 5V6.66667H6.66667V5H5ZM13.3333 5V6.66667H15V5H13.3333ZM5 13.3333V15H6.66667V13.3333H5ZM3.33333 9.16667H5V10.8333H3.33333V9.16667ZM7.5 9.16667H10.8333V12.5H9.16667V10.8333H7.5V9.16667ZM9.16667 5H10.8333V8.33333H9.16667V5ZM1.66667 1.66667V5H0V1.66667C0 1.22464 0.175595 0.800716 0.488155 0.488155C0.800716 0.175595 1.22464 0 1.66667 0L5 0V1.66667H1.66667ZM18.3333 0C18.7754 0 19.1993 0.175595 19.5118 0.488155C19.8244 0.800716 20 1.22464 20 1.66667V5H18.3333V1.66667H15V0H18.3333ZM1.66667 15V18.3333H5V20H1.66667C1.22464 20 0.800716 19.8244 0.488155 19.5118C0.175595 19.1993 0 18.7754 0 18.3333V15H1.66667ZM18.3333 18.3333V15H20V18.3333C20 18.7754 19.8244 19.1993 19.5118 19.5118C19.1993 19.8244 18.7754 20 18.3333 20H15V18.3333H18.3333Z" fill="black"/>
</g>
<defs>
<clipPath id="clip0_1002_2458">
<rect width="20" height="20" fill="white"/>
</clipPath>
</defs>
</svg>
