<svg width="20" height="20" viewBox="0 0 20 20" fill="none" xmlns="http://www.w3.org/2000/svg">
<g clip-path="url(#clip0_1519_11185)">
<circle cx="10" cy="10" r="9.4" stroke="black" stroke-width="0.8"/>
<path d="M9.16958 9.98288C9.17836 9.51213 9.56724 9.13786 10.0438 9.14664C10.5146 9.15541 10.8889 9.54429 10.8801 10.0209C10.8713 10.4916 10.4824 10.8659 10.0058 10.8571C9.53507 10.8484 9.16081 10.4595 9.16958 9.98288Z" fill="black"/>
<path d="M4.79534 9.97715C4.80996 9.50347 5.19592 9.13506 5.67252 9.14676C6.14035 9.15845 6.52338 9.56488 6.50584 10.0269C6.48537 10.5005 6.09649 10.8689 5.62281 10.8573C5.15206 10.8456 4.78072 10.4508 4.79534 9.97715Z" fill="black"/>
<path d="M15.2544 10.0003C15.2544 10.4739 14.8743 10.857 14.4007 10.857C13.9299 10.857 13.5439 10.471 13.541 10.0032C13.541 9.53537 13.927 9.14648 14.3977 9.14648C14.8743 9.14648 15.2544 9.52367 15.2544 10.0003Z" fill="black"/>
</g>
<defs>
<clipPath id="clip0_1519_11185">
<rect width="20" height="20" fill="white"/>
</clipPath>
</defs>
</svg>
