<svg width="35" height="35" viewBox="0 0 35 35" fill="none" xmlns="http://www.w3.org/2000/svg">
<path d="M7.91665 0H27.0834C31.4584 0 35 3.54167 35 7.91665V27.0834C35 31.4584 31.4584 35 27.0834 35H7.91665C3.54167 35 0 31.4584 0 27.0834V7.91665C0 3.54167 3.54167 0 7.91665 0Z" fill="url(#paint0_linear_2925_28599)"/>
<path d="M7.88333 10.9527C7.81128 9.97993 8.20761 9.29538 9.03628 8.79095C9.39659 8.57478 9.75685 8.32258 10.1172 8.1064C10.7657 7.71008 11.3782 7.81818 11.8105 8.46671C12.5672 9.5836 13.2878 10.6645 14.0444 11.7814C14.5848 12.5741 14.5488 13.1145 13.9363 13.8351C13.7561 14.0513 13.576 14.2674 13.4319 14.4836C12.9275 15.1321 12.8914 15.7086 13.3598 16.3932C13.9363 17.1858 14.5848 17.9424 15.2333 18.6991C16.2422 19.852 17.4311 20.8248 18.6922 21.7616C19.3767 22.2659 20.0253 22.2299 20.7098 21.7976C20.926 21.6534 21.1782 21.4733 21.3944 21.3292C22.0429 20.8248 22.5473 20.7888 23.2679 21.2211C24.3848 21.9417 25.5378 22.6263 26.6547 23.3469C27.4833 23.8513 27.6275 24.3917 27.1951 25.2564C26.9429 25.7248 26.6547 26.1571 26.3304 26.5895C25.862 27.2741 25.1775 27.4902 24.3848 27.4902C23.412 27.5263 22.5113 27.2741 21.6466 26.9138C19.2326 25.9409 17.1069 24.4998 15.1973 22.7704C12.8554 20.6807 10.8378 18.3027 9.3245 15.5284C8.67598 14.3034 8.13552 13.0424 7.95541 11.6733C7.91935 11.4211 7.91935 11.1689 7.88333 10.9527Z" fill="white"/>
<defs>
<linearGradient id="paint0_linear_2925_28599" x1="17.5" y1="0" x2="17.5" y2="35" gradientUnits="userSpaceOnUse">
<stop stop-color="#8BFB6B"/>
<stop offset="1" stop-color="#19DB1C"/>
</linearGradient>
</defs>
</svg>
