<svg width="30" height="30" viewBox="0 0 30 30" fill="none" xmlns="http://www.w3.org/2000/svg">
<circle cx="15" cy="15" r="15" fill="#EFF1F3"/>
<path d="M11.3464 21.4759C10.9731 21.4759 10.6553 21.3453 10.3931 21.084C10.1309 20.8227 9.99978 20.5063 9.99978 20.1349V9.85063H9.16644V9.02025H12.4998V8.38086H17.4998V9.02025H20.8331V9.85063H19.9998V20.1349C19.9998 20.5168 19.8714 20.836 19.6148 21.0923C19.3581 21.3486 19.0376 21.4765 18.6531 21.4759H11.3464ZM19.1664 9.85063H10.8331V20.1349C10.8331 20.2838 10.8812 20.4061 10.9773 20.5019C11.0734 20.5977 11.1964 20.6455 11.3464 20.6455H18.6539C18.7817 20.6455 18.8992 20.5924 19.0064 20.4861C19.1137 20.3798 19.167 20.2625 19.1664 20.134V9.85063ZM13.1731 18.9848H14.0064V11.5114H13.1731V18.9848ZM15.9931 18.9848H16.8264V11.5114H15.9931V18.9848Z" fill="black"/>
</svg>
