<svg width="30" height="30" viewBox="0 0 30 30" fill="none" xmlns="http://www.w3.org/2000/svg">
<circle cx="15" cy="15" r="15" fill="#EFF1F3"/>
<path d="M22.9534 14.2035C23.2067 14.5585 23.3334 14.7368 23.3334 14.9993C23.3334 15.2627 23.2067 15.4402 22.9534 15.7952C21.815 17.3918 18.9075 20.8327 15 20.8327C11.0917 20.8327 8.18502 17.391 7.04669 15.7952C6.79335 15.4402 6.66669 15.2618 6.66669 14.9993C6.66669 14.736 6.79335 14.5585 7.04669 14.2035C8.18502 12.6068 11.0925 9.16602 15 9.16602C18.9084 9.16602 21.815 12.6077 22.9534 14.2035Z" stroke="black" stroke-linecap="round" stroke-linejoin="round"/>
<path d="M17.5 15C17.5 14.337 17.2366 13.7011 16.7678 13.2322C16.2989 12.7634 15.663 12.5 15 12.5C14.337 12.5 13.7011 12.7634 13.2322 13.2322C12.7634 13.7011 12.5 14.337 12.5 15C12.5 15.663 12.7634 16.2989 13.2322 16.7678C13.7011 17.2366 14.337 17.5 15 17.5C15.663 17.5 16.2989 17.2366 16.7678 16.7678C17.2366 16.2989 17.5 15.663 17.5 15Z" stroke="black" stroke-linecap="round" stroke-linejoin="round"/>
</svg>
