<svg width="30" height="30" viewBox="0 0 30 30" fill="none" xmlns="http://www.w3.org/2000/svg">
<circle cx="15" cy="15" r="15" fill="#EFF1F3"/>
<path d="M8.75 19.3397V20.8339C8.75 20.9444 8.7939 21.0503 8.87204 21.1285C8.95018 21.2066 9.05616 21.2505 9.16667 21.2505H10.6608C10.7711 21.2505 10.8769 21.2067 10.955 21.1289L18.0383 14.0455L15.955 11.9622L8.87167 19.0455C8.79378 19.1236 8.75002 19.2294 8.75 19.3397ZM17.575 10.3422L19.6583 12.4255L20.6608 11.423C20.8171 11.2668 20.9048 11.0548 20.9048 10.8339C20.9048 10.6129 20.8171 10.401 20.6608 10.2447L19.7558 9.33969C19.5996 9.18347 19.3876 9.0957 19.1667 9.0957C18.9457 9.0957 18.7338 9.18347 18.5775 9.33969L17.575 10.3422Z" stroke="black" stroke-width="0.8"/>
</svg>
