<svg width="35" height="35" viewBox="0 0 35 35" fill="none" xmlns="http://www.w3.org/2000/svg">
<path d="M7.91665 0H27.0834C31.4584 0 35 3.54167 35 7.91665V27.0834C35 31.4584 31.4584 35 27.0834 35H7.91665C3.54167 35 0 31.4584 0 27.0834V7.91665C0 3.54167 3.54167 0 7.91665 0Z" fill="black"/>
<path d="M28.6325 9.625H6.06207C5.85702 9.625 5.66399 9.68533 5.49512 9.78184L5.73635 10.0231L15.8575 20.1562C16.6778 20.9765 18.0168 20.9765 18.8371 20.1562L29.2116 9.79387C29.0426 9.68533 28.8376 9.625 28.6325 9.625Z" fill="white"/>
<path d="M29.7054 10.6998C29.7054 10.4947 29.6451 10.3017 29.5486 10.1328L22.0693 17.6844L29.5727 25.1637C29.6572 25.0069 29.7054 24.8259 29.7054 24.645V10.6998Z" fill="white"/>
<path d="M5 10.6998C5 10.4947 5.06033 10.3017 5.15684 10.1328L12.6361 17.6844L5.13269 25.1637C5.04826 25.0069 5 24.8259 5 24.645V10.6998Z" fill="white"/>
<path d="M21.672 18.0332L19.0542 20.6509C18.1133 21.5919 16.5692 21.5919 15.6283 20.6509L13.0105 18.0453L5.49512 25.5487C5.66399 25.6452 5.84494 25.7055 6.05 25.7055H28.6204C28.8255 25.7055 29.0185 25.6452 29.1753 25.5487L28.729 25.1023L21.672 18.0332Z" fill="white"/>
</svg>
