<svg width="35" height="35" viewBox="0 0 35 35" fill="none" xmlns="http://www.w3.org/2000/svg">
<path d="M7.91665 0H27.0834C31.4584 0 35 3.54167 35 7.91665V27.0834C35 31.4584 31.4584 35 27.0834 35H7.91665C3.54167 35 0 31.4584 0 27.0834V7.91665C0 3.54167 3.54167 0 7.91665 0Z" fill="url(#paint0_linear_2925_28585)"/>
<path d="M28.882 9.625H6.31158C6.10653 9.625 5.9135 9.68533 5.74463 9.78184L5.98587 10.0231L16.107 20.1562C16.9273 20.9765 18.2663 20.9765 19.0866 20.1562L29.4611 9.79387C29.2921 9.68533 29.0871 9.625 28.882 9.625Z" fill="white"/>
<path d="M29.9554 10.6988C29.9554 10.4937 29.8951 10.3007 29.7986 10.1318L22.3193 17.6834L29.8227 25.1627C29.9072 25.0059 29.9554 24.8249 29.9554 24.644V10.6988Z" fill="white"/>
<path d="M5.25 10.6988C5.25 10.4937 5.31033 10.3007 5.40684 10.1318L12.8861 17.6834L5.38269 25.1627C5.29826 25.0059 5.25 24.8249 5.25 24.644V10.6988Z" fill="white"/>
<path d="M21.9215 18.0332L19.3038 20.6509C18.3628 21.5919 16.8187 21.5919 15.8778 20.6509L13.26 18.0453L5.74463 25.5487C5.9135 25.6452 6.09445 25.7055 6.29951 25.7055H28.87C29.075 25.7055 29.268 25.6452 29.4248 25.5487L28.9785 25.1023L21.9215 18.0332Z" fill="white"/>
<defs>
<linearGradient id="paint0_linear_2925_28585" x1="17.5" y1="0" x2="17.5" y2="35" gradientUnits="userSpaceOnUse">
<stop stop-color="#1E51EE"/>
<stop offset="1" stop-color="#19E4FF"/>
</linearGradient>
</defs>
</svg>
