<svg width="25" height="25" viewBox="0 0 25 25" fill="none" xmlns="http://www.w3.org/2000/svg">
<path d="M4.57423 4.57422H19.2934C20.1943 4.57422 21.0583 4.93209 21.6953 5.5691C22.3323 6.20611 22.6902 7.07009 22.6902 7.97096V18.1612C22.6902 19.062 22.3323 19.926 21.6953 20.563C21.0583 21.2 20.1943 21.5579 19.2934 21.5579H4.57423C3.67336 21.5579 2.80938 21.2 2.17237 20.563C1.53536 19.926 1.17749 19.062 1.17749 18.1612V7.97096C1.17749 7.07009 1.53536 6.20611 2.17237 5.5691C2.80938 4.93209 3.67336 4.57422 4.57423 4.57422ZM4.57423 5.70647C4.00811 5.70647 3.50992 5.89895 3.12495 6.23862L11.9338 11.9338L20.7427 6.23862C20.3577 5.89895 19.8596 5.70647 19.2934 5.70647H4.57423ZM11.9338 13.3038L2.45693 7.15574C2.36635 7.40483 2.30974 7.6879 2.30974 7.97096V18.1612C2.30974 18.7618 2.54832 19.3377 2.97299 19.7624C3.39767 20.1871 3.97365 20.4257 4.57423 20.4257H19.2934C19.894 20.4257 20.47 20.1871 20.8947 19.7624C21.3193 19.3377 21.5579 18.7618 21.5579 18.1612V7.97096C21.5579 7.6879 21.5013 7.40483 21.4107 7.15574L11.9338 13.3038Z" fill="black"/>
</svg>
