<svg width="35" height="35" viewBox="0 0 35 35" fill="none" xmlns="http://www.w3.org/2000/svg">
<g clip-path="url(#clip0_2925_28499)">
<mask id="mask0_2925_28499" style="mask-type:luminance" maskUnits="userSpaceOnUse" x="0" y="0" width="35" height="35">
<path d="M35 0H0V35H35V0Z" fill="white"/>
</mask>
<g mask="url(#mask0_2925_28499)">
<g filter="url(#filter0_i_2925_28499)">
<path d="M7.91665 0H27.0834C31.4584 0 35 3.54167 35 7.91665V27.0834C35 31.4584 31.4584 35 27.0834 35H7.91665C3.54167 35 0 31.4584 0 27.0834V7.91665C0 3.54167 3.54167 0 7.91665 0Z" fill="url(#paint0_linear_2925_28499)"/>
<path d="M24.4668 22.5446L25.2529 17.4107H20.3358V14.0791C20.3358 12.6746 21.0226 11.3055 23.225 11.3055H25.4606V6.93474C25.4606 6.93474 23.4317 6.58789 21.492 6.58789C17.4423 6.58789 14.7955 9.0466 14.7955 13.4978V17.4107H10.2939V22.5446H14.7955V35.171C14.7955 35.171 16.6232 35.1712 17.5656 35.1712C18.5081 35.1712 20.3358 35.1712 20.3358 35.1712V22.5446H24.4668Z" fill="white"/>
</g>
</g>
</g>
<defs>
<filter id="filter0_i_2925_28499" x="0" y="-1" width="35" height="36.1709" filterUnits="userSpaceOnUse" color-interpolation-filters="sRGB">
<feFlood flood-opacity="0" result="BackgroundImageFix"/>
<feBlend mode="normal" in="SourceGraphic" in2="BackgroundImageFix" result="shape"/>
<feColorMatrix in="SourceAlpha" type="matrix" values="0 0 0 0 0 0 0 0 0 0 0 0 0 0 0 0 0 0 127 0" result="hardAlpha"/>
<feOffset dy="-1"/>
<feGaussianBlur stdDeviation="0.5"/>
<feComposite in2="hardAlpha" operator="arithmetic" k2="-1" k3="1"/>
<feColorMatrix type="matrix" values="0 0 0 0 0 0 0 0 0 0 0 0 0 0 0 0 0 0 0.12 0"/>
<feBlend mode="normal" in2="shape" result="effect1_innerShadow_2925_28499"/>
</filter>
<linearGradient id="paint0_linear_2925_28499" x1="17.5" y1="0" x2="17.5" y2="35" gradientUnits="userSpaceOnUse">
<stop stop-color="#1BAFFF"/>
<stop offset="1" stop-color="#0062E0"/>
</linearGradient>
<clipPath id="clip0_2925_28499">
<rect width="35" height="35" fill="white"/>
</clipPath>
</defs>
</svg>
