<svg width="50" height="22" viewBox="0 0 50 22" fill="none" xmlns="http://www.w3.org/2000/svg">
<path d="M3.45159 7.82874H7.42097V11.0521H3.45159V21.7306H0V7.36773C0 6.35064 0.162461 5.39153 0.489284 4.48946C0.815157 3.58738 1.29494 2.80603 1.92768 2.14349C2.56043 1.48191 3.33758 0.959107 4.2582 0.575084C5.17786 0.192011 6.23244 0 7.42192 0C7.63283 0 7.84375 0.0142583 8.05466 0.0427748C8.26558 0.0712914 8.47649 0.105511 8.68741 0.143533V3.48187C8.49549 3.44385 8.31308 3.40963 8.14112 3.38111C7.96821 3.3526 7.78579 3.33834 7.59483 3.33834C6.80818 3.33834 6.15168 3.44385 5.62439 3.65487C5.09711 3.86589 4.67053 4.14916 4.34465 4.50371C4.01878 4.85922 3.78791 5.28127 3.65395 5.76985C3.52 6.25938 3.45254 6.78219 3.45254 7.33826V7.82874H3.45159Z" fill="black"/>
<path d="M10.499 3.7712C10.499 3.15715 10.6957 2.6391 11.089 2.21705C11.4814 1.79501 12.0239 1.58398 12.7146 1.58398C13.4053 1.58398 13.9421 1.79976 14.3259 2.23131C14.7097 2.66286 14.9016 3.17711 14.9016 3.7712C14.9016 4.38526 14.7097 4.90806 14.3259 5.33962C13.9421 5.77117 13.4053 5.98694 12.7146 5.98694C12.0239 5.98694 11.4823 5.77117 11.089 5.33962C10.6957 4.90806 10.499 4.38526 10.499 3.7712Z" fill="#5ABA47"/>
<path d="M32.5916 18.6069C32.3997 18.6354 32.1603 18.6497 31.8724 18.6497C30.549 18.6497 29.5752 18.2657 28.9529 17.4986C28.3296 16.7315 28.018 15.7429 28.018 14.5338V11.051H32.4767V7.8286H28.018V4.20319V3.88571V1.58252H24.5664V3.88476V4.20224V14.5338C24.5664 15.5509 24.7336 16.5052 25.0699 17.3978C25.4053 18.2904 25.8851 19.067 26.5083 19.7295C27.1316 20.3911 27.884 20.9148 28.7667 21.2979C29.6483 21.6819 30.6459 21.874 31.7584 21.874C32.1223 21.874 32.3864 21.8597 32.5498 21.8312C32.7123 21.8027 32.9184 21.7684 33.1683 21.7304V18.5071C32.9754 18.5451 32.7835 18.5784 32.5916 18.6069Z" fill="black"/>
<path d="M34.8608 14.8237C34.8608 13.8694 35.0167 12.9644 35.3283 12.1108C35.6399 11.2573 36.0988 10.5139 36.7049 9.8799C37.3101 9.24684 38.054 8.74685 38.9347 8.37898C39.8154 8.01207 40.8159 7.82861 41.935 7.82861C42.9811 7.82861 43.9264 7.99401 44.77 8.3248C45.6137 8.65559 46.3348 9.12327 46.9305 9.72972C47.5262 10.3352 47.9946 11.0747 48.3347 11.9464C48.6739 12.819 48.862 13.7876 48.899 14.8522C48.9171 15.2011 48.9266 15.6279 48.9266 16.1326C48.9266 16.6383 48.9541 17.1935 49.0092 17.799C49.0643 18.4045 49.165 19.0432 49.3123 19.7134C49.4586 20.3835 49.6885 21.0584 50.0001 21.738H46.6968C46.3842 21.0593 46.1552 20.3521 46.0089 19.6174C45.531 20.3151 44.9258 20.8664 44.1924 21.2694C43.458 21.6734 42.5773 21.8749 41.5503 21.8749C40.5774 21.8749 39.6786 21.6915 38.853 21.3245C38.0274 20.9576 37.3206 20.4567 36.7334 19.8236C36.1463 19.1906 35.6874 18.4463 35.3568 17.5927C35.0252 16.7381 34.8608 15.8152 34.8608 14.8237ZM41.935 10.9132C41.2557 10.9132 40.6781 11.0139 40.2012 11.2164C39.7242 11.4188 39.3338 11.6983 39.0316 12.0567C38.7286 12.415 38.5081 12.8323 38.3713 13.3095C38.2336 13.7867 38.1652 14.3009 38.1652 14.8513C38.1652 15.4017 38.2336 15.9159 38.3713 16.394C38.5091 16.8722 38.7295 17.2895 39.0316 17.6469C39.3347 18.0052 39.7242 18.2847 40.2012 18.4872C40.6781 18.6896 41.2567 18.7904 41.935 18.7904C43.0723 18.7904 43.9672 18.4738 44.619 17.8408C45.2698 17.2077 45.5966 16.2115 45.5966 14.8522C45.5415 13.6403 45.2289 12.6812 44.6608 11.974C44.0907 11.2668 43.1825 10.9132 41.935 10.9132Z" fill="black"/>
<path d="M21.3447 21.7304H17.8931V1.58252H21.3447V21.7304Z" fill="black"/>
<path d="M14.4413 21.7304H10.9897V7.82861H14.4413V21.7304Z" fill="#5ABA47"/>
</svg>
