<svg width="35" height="35" viewBox="0 0 35 35" fill="none" xmlns="http://www.w3.org/2000/svg">
<g filter="url(#filter0_i_4505_69561)">
<path d="M7.91665 0H27.0834C31.4584 0 35 3.54167 35 7.91665V27.0834C35 31.4584 31.4584 35 27.0834 35H7.91665C3.54167 35 0 31.4584 0 27.0834V7.91665C0 3.54167 3.54167 0 7.91665 0Z" fill="url(#paint0_radial_4505_69561)"/>
<path d="M7.91665 0H27.0834C31.4584 0 35 3.54167 35 7.91665V27.0834C35 31.4584 31.4584 35 27.0834 35H7.91665C3.54167 35 0 31.4584 0 27.0834V7.91665C0 3.54167 3.54167 0 7.91665 0Z" fill="black"/>
<path d="M16.9583 4.58398C18.625 4.58398 20.2917 4.58398 21.9583 4.58398C23 4.58398 24.0833 4.66733 25.125 4.95897C26.9583 5.45898 28.375 6.50067 29.3333 8.12563C29.9167 9.12567 30.1667 10.209 30.2917 11.334C30.375 12.334 30.4166 13.334 30.4166 14.334C30.4166 16.7923 30.4166 19.2923 30.4166 21.7507C30.4166 22.8756 30.3333 24.0007 30.0417 25.1257C29.4167 27.3756 28.0416 28.959 25.875 29.7923C24.8333 30.209 23.7083 30.334 22.5833 30.3757C19.8333 30.4173 17.0833 30.459 14.3333 30.459C13.1666 30.459 11.9583 30.4173 10.8333 30.2507C9.20831 30.0423 7.79164 29.4173 6.625 28.209C5.54167 27.084 4.9583 25.709 4.74996 24.1673C4.49998 22.084 4.54167 20.0007 4.54167 17.8757C4.54167 16.1257 4.58332 14.4173 4.58332 12.6673C4.62497 11.459 4.70831 10.2507 5.16664 9.08398C5.99999 6.9173 7.54165 5.58398 9.79167 4.95897C10.8333 4.66733 11.9167 4.62563 13 4.58398C14.25 4.58398 15.625 4.58398 16.9583 4.58398ZM28.125 17.5423C28.125 16.5423 28.1667 15.584 28.125 14.584C28.0833 13.3756 28.0416 12.1257 27.9166 10.9173C27.8333 10.084 27.5 9.29232 26.9166 8.62565C25.9583 7.50067 24.7083 7.00065 23.2917 6.9173C21.9166 6.834 20.5 6.79231 19.125 6.79231C16.625 6.79231 14.125 6.834 11.625 6.9173C10.7083 6.959 9.83332 7.16733 9.04167 7.66731C7.74999 8.45897 7.08333 9.66734 6.95833 11.1257C6.8333 12.3756 6.79165 13.6257 6.75 14.8756C6.75 17.2923 6.75 19.6673 6.79165 22.084C6.79165 22.9173 6.91664 23.7923 7.08333 24.584C7.33332 25.6673 7.95833 26.5423 8.87498 27.1673C9.79167 27.7923 10.875 28.0006 11.9583 28.0423C13.25 28.084 14.5 28.1256 15.7916 28.1256C18.25 28.1256 20.7083 28.084 23.1667 28.0423C24.2083 28.0006 25.2083 27.7507 26.0416 27.1256C27.0833 26.3756 27.7083 25.334 27.875 24.084C28 23.1673 28.0416 22.2507 28.0833 21.334C28.125 20.084 28.125 18.834 28.125 17.5423Z" fill="white"/>
<path d="M24.042 17.5007C24.042 21.209 21.0837 24.1257 17.3753 24.1257C13.7503 24.1257 10.792 21.1257 10.792 17.459C10.792 13.834 13.792 10.834 17.4587 10.834C21.0837 10.8757 24.042 13.834 24.042 17.5007ZM13.0837 17.5007C13.0837 19.9173 15.042 21.8757 17.4587 21.8757C19.8753 21.8757 21.8337 19.9173 21.8337 17.5007C21.8337 15.1257 19.8753 13.1673 17.4587 13.1673C15.0003 13.1673 13.0837 15.084 13.0837 17.5007Z" fill="white"/>
<path d="M24.333 9.08398C25.208 9.08398 25.8746 9.75065 25.8746 10.584C25.8746 11.4173 25.208 12.1256 24.3747 12.1256C23.5413 12.1256 22.833 11.459 22.833 10.6256C22.833 9.75065 23.4997 9.08398 24.333 9.08398Z" fill="white"/>
</g>
<defs>
<filter id="filter0_i_4505_69561" x="0" y="-1" width="35" height="36" filterUnits="userSpaceOnUse" color-interpolation-filters="sRGB">
<feFlood flood-opacity="0" result="BackgroundImageFix"/>
<feBlend mode="normal" in="SourceGraphic" in2="BackgroundImageFix" result="shape"/>
<feColorMatrix in="SourceAlpha" type="matrix" values="0 0 0 0 0 0 0 0 0 0 0 0 0 0 0 0 0 0 127 0" result="hardAlpha"/>
<feOffset dy="-1"/>
<feGaussianBlur stdDeviation="0.5"/>
<feComposite in2="hardAlpha" operator="arithmetic" k2="-1" k3="1"/>
<feColorMatrix type="matrix" values="0 0 0 0 0 0 0 0 0 0 0 0 0 0 0 0 0 0 0.12 0"/>
<feBlend mode="normal" in2="shape" result="effect1_innerShadow_4505_69561"/>
</filter>
<radialGradient id="paint0_radial_4505_69561" cx="0" cy="0" r="1" gradientUnits="userSpaceOnUse" gradientTransform="translate(2.26517 34.2332) scale(44.4369)">
<stop offset="0.09" stop-color="#FA8F21"/>
<stop offset="0.78" stop-color="#D82D7E"/>
</radialGradient>
</defs>
</svg>
