<svg width="35" height="35" viewBox="0 0 35 35" fill="none" xmlns="http://www.w3.org/2000/svg">
<g clip-path="url(#clip0_2925_28484)">
<g filter="url(#filter0_i_2925_28484)">
<path d="M7.91665 0H27.0834C31.4584 0 35 3.54167 35 7.91665V27.0834C35 31.4584 31.4584 35 27.0834 35H7.91665C3.54167 35 0 31.4584 0 27.0834V7.91665C0 3.54167 3.54167 0 7.91665 0Z" fill="url(#paint0_radial_2925_28484)"/>
<path d="M7.91665 0H27.0834C31.4584 0 35 3.54167 35 7.91665V27.0834C35 31.4584 31.4584 35 27.0834 35H7.91665C3.54167 35 0 31.4584 0 27.0834V7.91665C0 3.54167 3.54167 0 7.91665 0Z" fill="url(#paint1_radial_2925_28484)"/>
<path d="M16.9583 4.58301C18.625 4.58301 20.2917 4.58301 21.9583 4.58301C23 4.58301 24.0833 4.66635 25.125 4.95799C26.9583 5.45801 28.375 6.4997 29.3333 8.12466C29.9167 9.1247 30.1667 10.208 30.2917 11.333C30.375 12.333 30.4166 13.333 30.4166 14.333C30.4166 16.7914 30.4166 19.2913 30.4166 21.7497C30.4166 22.8747 30.3333 23.9997 30.0417 25.1247C29.4167 27.3747 28.0416 28.958 25.875 29.7913C24.8333 30.208 23.7083 30.333 22.5833 30.3747C19.8333 30.4163 17.0833 30.458 14.3333 30.458C13.1666 30.458 11.9583 30.4163 10.8333 30.2497C9.20831 30.0414 7.79164 29.4163 6.625 28.208C5.54167 27.083 4.9583 25.708 4.74996 24.1663C4.49998 22.083 4.54167 19.9997 4.54167 17.8747C4.54167 16.1247 4.58332 14.4163 4.58332 12.6663C4.62497 11.458 4.70831 10.2497 5.16664 9.083C5.99999 6.91633 7.54165 5.583 9.79167 4.95799C10.8333 4.66635 11.9167 4.62466 13 4.58301C14.25 4.58301 15.625 4.58301 16.9583 4.58301ZM28.125 17.5413C28.125 16.5413 28.1667 15.583 28.125 14.583C28.0833 13.3747 28.0416 12.1247 27.9166 10.9163C27.8333 10.083 27.5 9.29134 26.9166 8.62468C25.9583 7.49969 24.7083 6.99967 23.2917 6.91633C21.9166 6.83303 20.5 6.79133 19.125 6.79133C16.625 6.79133 14.125 6.83303 11.625 6.91633C10.7083 6.95802 9.83332 7.16636 9.04167 7.66633C7.74999 8.45799 7.08333 9.66636 6.95833 11.1247C6.8333 12.3747 6.79165 13.6247 6.75 14.8747C6.75 17.2913 6.75 19.6663 6.79165 22.083C6.79165 22.9164 6.91664 23.7914 7.08333 24.583C7.33332 25.6664 7.95833 26.5414 8.87498 27.1663C9.79167 27.7913 10.875 27.9997 11.9583 28.0414C13.25 28.083 14.5 28.1247 15.7916 28.1247C18.25 28.1247 20.7083 28.083 23.1667 28.0414C24.2083 27.9997 25.2083 27.7497 26.0416 27.1247C27.0833 26.3747 27.7083 25.333 27.875 24.083C28 23.1663 28.0416 22.2497 28.0833 21.333C28.125 20.083 28.125 18.833 28.125 17.5413Z" fill="white"/>
<path d="M24.0425 17.4997C24.0425 21.208 21.0841 24.1247 17.3758 24.1247C13.7508 24.1247 10.7925 21.1247 10.7925 17.458C10.7925 13.833 13.7925 10.833 17.4592 10.833C21.0841 10.8747 24.0425 13.833 24.0425 17.4997ZM13.0841 17.4997C13.0841 19.9163 15.0425 21.8747 17.4592 21.8747C19.8758 21.8747 21.8342 19.9163 21.8342 17.4997C21.8342 15.1247 19.8758 13.1664 17.4592 13.1664C15.0008 13.1664 13.0841 15.083 13.0841 17.4997Z" fill="white"/>
<path d="M24.333 9.08301C25.208 9.08301 25.8746 9.74967 25.8746 10.583C25.8746 11.4163 25.208 12.1246 24.3747 12.1246C23.5413 12.1246 22.833 11.458 22.833 10.6247C22.833 9.74967 23.4997 9.08301 24.333 9.08301Z" fill="white"/>
</g>
</g>
<defs>
<filter id="filter0_i_2925_28484" x="0" y="-1" width="35" height="36" filterUnits="userSpaceOnUse" color-interpolation-filters="sRGB">
<feFlood flood-opacity="0" result="BackgroundImageFix"/>
<feBlend mode="normal" in="SourceGraphic" in2="BackgroundImageFix" result="shape"/>
<feColorMatrix in="SourceAlpha" type="matrix" values="0 0 0 0 0 0 0 0 0 0 0 0 0 0 0 0 0 0 127 0" result="hardAlpha"/>
<feOffset dy="-1"/>
<feGaussianBlur stdDeviation="0.5"/>
<feComposite in2="hardAlpha" operator="arithmetic" k2="-1" k3="1"/>
<feColorMatrix type="matrix" values="0 0 0 0 0 0 0 0 0 0 0 0 0 0 0 0 0 0 0.12 0"/>
<feBlend mode="normal" in2="shape" result="effect1_innerShadow_2925_28484"/>
</filter>
<radialGradient id="paint0_radial_2925_28484" cx="0" cy="0" r="1" gradientUnits="userSpaceOnUse" gradientTransform="translate(2.26517 34.2332) scale(44.4369)">
<stop offset="0.09" stop-color="#FA8F21"/>
<stop offset="0.78" stop-color="#D82D7E"/>
</radialGradient>
<radialGradient id="paint1_radial_2925_28484" cx="0" cy="0" r="1" gradientUnits="userSpaceOnUse" gradientTransform="translate(24.2433 33.1094) scale(39.105)">
<stop offset="0.64" stop-color="#8C3AAA" stop-opacity="0"/>
<stop offset="1" stop-color="#8C3AAA"/>
</radialGradient>
<clipPath id="clip0_2925_28484">
<rect width="35" height="35" fill="white"/>
</clipPath>
</defs>
</svg>
