<svg width="35" height="35" viewBox="0 0 35 35" fill="none" xmlns="http://www.w3.org/2000/svg">
<g filter="url(#filter0_i_8_884)">
<path d="M7.91665 0H27.0834C31.4584 0 35 3.54167 35 7.91665V27.0834C35 31.4584 31.4584 35 27.0834 35H7.91665C3.54167 35 0 31.4584 0 27.0834V7.91665C0 3.54167 3.54167 0 7.91665 0Z" fill="url(#paint0_radial_8_884)"/>
<path d="M7.91665 0H27.0834C31.4584 0 35 3.54167 35 7.91665V27.0834C35 31.4584 31.4584 35 27.0834 35H7.91665C3.54167 35 0 31.4584 0 27.0834V7.91665C0 3.54167 3.54167 0 7.91665 0Z" fill="url(#paint1_radial_8_884)"/>
<path d="M16.9583 4.58179C18.625 4.58179 20.2917 4.58179 21.9583 4.58179C23 4.58179 24.0833 4.66513 25.125 4.95677C26.9583 5.45679 28.375 6.49847 29.3333 8.12344C29.9167 9.12347 30.1667 10.2068 30.2917 11.3318C30.375 12.3318 30.4166 13.3318 30.4166 14.3318C30.4166 16.7901 30.4166 19.2901 30.4166 21.7485C30.4166 22.8734 30.3333 23.9985 30.0417 25.1235C29.4167 27.3734 28.0416 28.9568 25.875 29.7901C24.8333 30.2068 23.7083 30.3318 22.5833 30.3735C19.8333 30.4151 17.0833 30.4568 14.3333 30.4568C13.1666 30.4568 11.9583 30.4151 10.8333 30.2485C9.20831 30.0401 7.79164 29.4151 6.625 28.2068C5.54167 27.0818 4.9583 25.7068 4.74996 24.1651C4.49998 22.0818 4.54167 19.9985 4.54167 17.8735C4.54167 16.1235 4.58332 14.4151 4.58332 12.6651C4.62497 11.4568 4.70831 10.2485 5.16664 9.08178C5.99999 6.91511 7.54165 5.58178 9.79167 4.95677C10.8333 4.66513 11.9167 4.62344 13 4.58179C14.25 4.58179 15.625 4.58179 16.9583 4.58179ZM28.125 17.5401C28.125 16.5401 28.1667 15.5818 28.125 14.5818C28.0833 13.3734 28.0416 12.1235 27.9166 10.9151C27.8333 10.0818 27.5 9.29012 26.9166 8.62345C25.9583 7.49847 24.7083 6.99845 23.2917 6.91511C21.9166 6.83181 20.5 6.79011 19.125 6.79011C16.625 6.79011 14.125 6.83181 11.625 6.91511C10.7083 6.9568 9.83332 7.16514 9.04167 7.66511C7.74999 8.45677 7.08333 9.66514 6.95833 11.1235C6.8333 12.3734 6.79165 13.6235 6.75 14.8734C6.75 17.2901 6.75 19.6651 6.79165 22.0818C6.79165 22.9151 6.91664 23.7901 7.08333 24.5818C7.33332 25.6651 7.95833 26.5401 8.87498 27.1651C9.79167 27.7901 10.875 27.9984 11.9583 28.0401C13.25 28.0818 14.5 28.1234 15.7916 28.1234C18.25 28.1234 20.7083 28.0818 23.1667 28.0401C24.2083 27.9984 25.2083 27.7485 26.0416 27.1234C27.0833 26.3734 27.7083 25.3318 27.875 24.0818C28 23.1651 28.0416 22.2485 28.0833 21.3318C28.125 20.0818 28.125 18.8318 28.125 17.5401Z" fill="white"/>
<path d="M24.043 17.4999C24.043 21.2083 21.0846 24.1249 17.3763 24.1249C13.7513 24.1249 10.793 21.125 10.793 17.4583C10.793 13.8333 13.793 10.8333 17.4596 10.8333C21.0846 10.8749 24.043 13.8333 24.043 17.4999ZM13.0846 17.4999C13.0846 19.9166 15.043 21.8749 17.4596 21.8749C19.8763 21.8749 21.8346 19.9166 21.8346 17.4999C21.8346 15.125 19.8763 13.1666 17.4596 13.1666C15.0013 13.1666 13.0846 15.0833 13.0846 17.4999Z" fill="white"/>
<path d="M24.333 9.08325C25.208 9.08325 25.8746 9.74991 25.8746 10.5832C25.8746 11.4166 25.208 12.1249 24.3747 12.1249C23.5413 12.1249 22.833 11.4582 22.833 10.6249C22.833 9.74992 23.4997 9.08325 24.333 9.08325Z" fill="white"/>
</g>
<defs>
<filter id="filter0_i_8_884" x="0" y="-1" width="35" height="36" filterUnits="userSpaceOnUse" color-interpolation-filters="sRGB">
<feFlood flood-opacity="0" result="BackgroundImageFix"/>
<feBlend mode="normal" in="SourceGraphic" in2="BackgroundImageFix" result="shape"/>
<feColorMatrix in="SourceAlpha" type="matrix" values="0 0 0 0 0 0 0 0 0 0 0 0 0 0 0 0 0 0 127 0" result="hardAlpha"/>
<feOffset dy="-1"/>
<feGaussianBlur stdDeviation="0.5"/>
<feComposite in2="hardAlpha" operator="arithmetic" k2="-1" k3="1"/>
<feColorMatrix type="matrix" values="0 0 0 0 0 0 0 0 0 0 0 0 0 0 0 0 0 0 0.12 0"/>
<feBlend mode="normal" in2="shape" result="effect1_innerShadow_8_884"/>
</filter>
<radialGradient id="paint0_radial_8_884" cx="0" cy="0" r="1" gradientUnits="userSpaceOnUse" gradientTransform="translate(2.26517 34.2332) scale(44.4369)">
<stop offset="0.09" stop-color="#FA8F21"/>
<stop offset="0.78" stop-color="#D82D7E"/>
</radialGradient>
<radialGradient id="paint1_radial_8_884" cx="0" cy="0" r="1" gradientUnits="userSpaceOnUse" gradientTransform="translate(24.2433 33.1094) scale(39.105)">
<stop offset="0.64" stop-color="#8C3AAA" stop-opacity="0"/>
<stop offset="1" stop-color="#8C3AAA"/>
</radialGradient>
</defs>
</svg>
