<svg width="25" height="30" viewBox="0 0 25 30" fill="none" xmlns="http://www.w3.org/2000/svg">
<path d="M3.52326 11.0527C1.59409 12.7096 1.20881 15.7513 2.67839 17.9197C3.09669 18.5373 3.69939 19.0379 4.23878 19.5711C4.52224 19.8486 4.6736 20.1479 4.56352 20.5315C4.45619 20.8961 4.192 21.1464 3.81222 21.1464C3.56729 21.1464 3.28383 21.0566 3.08569 20.9124C-0.816675 18.1047 -1.05335 12.6007 2.57931 9.46922C2.71692 9.35223 2.85452 9.23524 2.99762 9.12641C3.64434 8.63669 4.13145 8.71559 4.56627 9.3876C5.66433 11.0799 6.75963 12.7776 7.85493 14.4726C8.74934 15.8547 9.64099 17.2368 10.5354 18.6162C10.6014 18.7168 10.6757 18.8148 10.7666 18.9454C11.7573 17.9659 12.3517 16.8259 12.4591 15.4683C12.6187 13.436 11.7876 11.8308 10.2272 10.5466C10.0208 10.3779 9.80611 10.163 9.71805 9.92358C9.58045 9.56172 9.71805 9.2162 10.0483 8.97678C10.373 8.7428 10.7693 8.75368 11.1353 9.02303C12.349 9.91813 13.2626 11.0472 13.7993 12.4511C14.9744 15.5255 13.8846 19.0134 11.1574 20.9423C10.6125 21.3287 10.1033 21.2171 9.71254 20.6131C7.94575 17.887 6.1817 15.1554 4.41766 12.4293C4.1287 11.9831 3.83699 11.5342 3.52326 11.0527Z" fill="white"/>
<path d="M25.0002 15.4373C24.9176 20.457 23.2499 25.3488 19.5759 29.5087C19.4081 29.6964 19.1851 29.8814 18.9512 29.9576C18.5769 30.0773 18.2357 29.9386 18.0045 29.6039C17.7761 29.2747 17.8009 28.8802 18.0816 28.532C18.4971 28.015 18.9485 27.5226 19.3393 26.9866C21.9289 23.4443 23.1728 19.4639 23.1921 15.1108C23.2113 10.3632 21.8106 6.07817 18.8246 2.33179C18.61 2.06244 18.3733 1.8067 18.1504 1.54279C17.7568 1.07756 17.7596 0.568788 18.1559 0.220541C18.5439 -0.119545 19.0833 -0.0651309 19.4851 0.37562C21.2409 2.30186 22.5674 4.48929 23.5003 6.90526C24.5075 9.50351 24.9809 12.2024 25.0002 15.4373Z" fill="white"/>
<path d="M17.8637 15.3122C17.8197 11.5141 16.8235 8.35814 14.5668 5.63202C14.1705 5.15318 14.2036 4.61176 14.6329 4.28256C15.0512 3.96152 15.5548 4.04858 15.9511 4.52198C18.0068 6.98147 19.1599 9.81915 19.5205 12.9751C19.9608 16.8385 19.2342 20.4625 17.173 23.7926C16.8042 24.3884 16.3611 24.9461 15.9263 25.4984C15.5548 25.9691 15.0154 26.029 14.6081 25.6916C14.2173 25.3651 14.1733 24.84 14.5393 24.4047C16.2896 22.3098 17.3106 19.902 17.6931 17.2248C17.7977 16.4903 17.8252 15.7448 17.8637 15.3122Z" fill="white"/>
</svg>
