<svg width="41" height="18" viewBox="0 0 41 18" fill="none" xmlns="http://www.w3.org/2000/svg">
<path d="M2.83027 6.44202H6.08512V9.09438H2.83027V17.8814H0V6.06266C0 5.22573 0.133217 4.43651 0.401208 3.69423C0.668421 2.95194 1.06184 2.30899 1.58068 1.76381C2.09953 1.21942 2.73678 0.789217 3.49168 0.473218C4.24579 0.158 5.11053 0 6.0859 0C6.25885 0 6.43179 0.0117327 6.60474 0.035198C6.77769 0.0586633 6.95064 0.0868217 7.12359 0.118109V2.86512C6.96622 2.83383 6.81664 2.80567 6.67564 2.78221C6.53385 2.75874 6.38427 2.74701 6.22769 2.74701C5.58264 2.74701 5.04432 2.83383 4.61195 3.00747C4.17958 3.18112 3.82978 3.41421 3.56257 3.70596C3.29536 3.99849 3.10605 4.34578 2.99621 4.74782C2.88636 5.15064 2.83105 5.58084 2.83105 6.03841V6.44202H2.83027Z" fill="white"/>
<path d="M8.60754 3.10448C8.60754 2.59919 8.76881 2.1729 9.09133 1.82562C9.41308 1.47833 9.85791 1.30469 10.4243 1.30469C10.9906 1.30469 11.4308 1.48224 11.7455 1.83735C12.0603 2.19246 12.2176 2.61562 12.2176 3.10448C12.2176 3.60977 12.0603 4.03996 11.7455 4.39507C11.4308 4.75018 10.9906 4.92774 10.4243 4.92774C9.85791 4.92774 9.41386 4.75018 9.09133 4.39507C8.76881 4.03996 8.60754 3.60977 8.60754 3.10448Z" fill="#5ABA47"/>
<path d="M26.7262 15.3135C26.5689 15.337 26.3725 15.3487 26.1365 15.3487C25.0513 15.3487 24.2528 15.0327 23.7425 14.4015C23.2314 13.7703 22.9759 12.9568 22.9759 11.9619V9.09596H26.632V6.44438H22.9759V3.46115V3.1999V1.30469H20.1456V3.19912V3.46037V11.9619C20.1456 12.7988 20.2827 13.5841 20.5585 14.3186C20.8335 15.053 21.2269 15.6921 21.738 16.2372C22.2491 16.7816 22.8661 17.2126 23.5898 17.5278C24.3127 17.8438 25.1307 18.0018 26.043 18.0018C26.3414 18.0018 26.5579 17.9901 26.6919 17.9666C26.8252 17.9432 26.9942 17.915 27.1991 17.8837V15.2314C27.041 15.2627 26.8836 15.29 26.7262 15.3135Z" fill="white"/>
<path d="M28.5859 12.1975C28.5859 11.4121 28.7137 10.6675 28.9692 9.96512C29.2248 9.26272 29.601 8.65106 30.0981 8.12935C30.5943 7.60842 31.2043 7.19699 31.9265 6.89429C32.6487 6.59237 33.469 6.44141 34.3867 6.44141C35.2444 6.44141 36.0196 6.57751 36.7114 6.8497C37.4032 7.1219 37.9945 7.50673 38.4829 8.00576C38.9714 8.50401 39.3555 9.11254 39.6344 9.8298C39.9125 10.5478 40.0667 11.3449 40.0971 12.2209C40.1119 12.508 40.1197 12.8592 40.1197 13.2745C40.1197 13.6906 40.1423 14.1474 40.1875 14.6457C40.2327 15.1439 40.3152 15.6695 40.436 16.221C40.556 16.7724 40.7445 17.3278 41 17.887H38.2913C38.035 17.3285 37.8472 16.7466 37.7272 16.142C37.3354 16.7161 36.8391 17.1698 36.2377 17.5014C35.6355 17.8338 34.9133 17.9996 34.0712 17.9996C33.2735 17.9996 32.5365 17.8487 31.8595 17.5468C31.1825 17.2448 30.6029 16.8326 30.1214 16.3117C29.64 15.7908 29.2637 15.1783 28.9926 14.4759C28.7207 13.7728 28.5859 13.0133 28.5859 12.1975ZM34.3867 8.97957C33.8297 8.97957 33.356 9.06248 32.965 9.22909C32.5739 9.39569 32.2537 9.62565 32.0059 9.92053C31.7574 10.2154 31.5767 10.5588 31.4645 10.9514C31.3515 11.3441 31.2955 11.7673 31.2955 12.2201C31.2955 12.673 31.3515 13.0962 31.4645 13.4896C31.5775 13.883 31.7582 14.2264 32.0059 14.5205C32.2545 14.8154 32.5739 15.0454 32.965 15.212C33.356 15.3786 33.8305 15.4615 34.3867 15.4615C35.3192 15.4615 36.0531 15.201 36.5875 14.6801C37.1212 14.1592 37.3891 13.3394 37.3891 12.2209C37.344 11.2236 37.0877 10.4344 36.6218 9.85248C36.1544 9.27054 35.4096 8.97957 34.3867 8.97957Z" fill="white"/>
<path d="M17.5021 17.8837H14.6719V1.30469H17.5021V17.8837Z" fill="white"/>
<path d="M11.8408 17.8808H9.0105V6.44141H11.8408V17.8808Z" fill="#5ABA47"/>
</svg>
