<svg width="35" height="35" viewBox="0 0 35 35" fill="none" xmlns="http://www.w3.org/2000/svg">
<g clip-path="url(#clip0_2925_28533)">
<g filter="url(#filter0_i_2925_28533)">
<path d="M7.91665 0H27.0834C31.4584 0 35 3.54167 35 7.91665V27.0834C35 31.4584 31.4584 35 27.0834 35H7.91665C3.54167 35 0 31.4584 0 27.0834V7.91665C0 3.54167 3.54167 0 7.91665 0Z" fill="#0A66C2"/>
<path d="M6.95544 13.8399H11.5717V28.4114H6.95544V13.8399ZM9.26483 6.58789C9.79429 6.58789 10.3119 6.74198 10.7521 7.0306C11.1923 7.31922 11.5353 7.72946 11.7378 8.2094C11.9403 8.68933 11.9932 9.2174 11.8897 9.72678C11.7862 10.2362 11.5311 10.7041 11.1565 11.0712C10.7819 11.4383 10.3048 11.6882 9.78545 11.7892C9.2661 11.8902 8.72784 11.8379 8.23885 11.6387C7.74981 11.4396 7.332 11.1027 7.03822 10.6706C6.74444 10.2384 6.58786 9.73054 6.58838 9.21114C6.58904 8.51517 6.87136 7.84793 7.37321 7.35605C7.87507 6.86422 8.55547 6.58789 9.26483 6.58789Z" fill="white"/>
<path d="M14 13.9381H18.4305V15.9252H18.4917C19.1093 14.7876 20.6151 13.5879 22.8635 13.5879C27.544 13.578 28.4118 16.576 28.4118 20.4631V28.4114H23.7899V21.3698C23.7899 19.6932 23.7593 17.5347 21.3884 17.5347C19.0175 17.5347 18.6142 19.3628 18.6142 21.2604V28.4114H14V13.9381Z" fill="white"/>
</g>
</g>
<defs>
<filter id="filter0_i_2925_28533" x="0" y="-1" width="35" height="36" filterUnits="userSpaceOnUse" color-interpolation-filters="sRGB">
<feFlood flood-opacity="0" result="BackgroundImageFix"/>
<feBlend mode="normal" in="SourceGraphic" in2="BackgroundImageFix" result="shape"/>
<feColorMatrix in="SourceAlpha" type="matrix" values="0 0 0 0 0 0 0 0 0 0 0 0 0 0 0 0 0 0 127 0" result="hardAlpha"/>
<feOffset dy="-1"/>
<feGaussianBlur stdDeviation="0.5"/>
<feComposite in2="hardAlpha" operator="arithmetic" k2="-1" k3="1"/>
<feColorMatrix type="matrix" values="0 0 0 0 0 0 0 0 0 0 0 0 0 0 0 0 0 0 0.12 0"/>
<feBlend mode="normal" in2="shape" result="effect1_innerShadow_2925_28533"/>
</filter>
<clipPath id="clip0_2925_28533">
<rect width="35" height="35" fill="white"/>
</clipPath>
</defs>
</svg>
