<svg width="35" height="35" viewBox="0 0 35 35" fill="none" xmlns="http://www.w3.org/2000/svg">
<path d="M7.91665 0H27.0834C31.4584 0 35 3.54167 35 7.91665V27.0834C35 31.4584 31.4584 35 27.0834 35H7.91665C3.54167 35 0 31.4584 0 27.0834V7.91665C0 3.54167 3.54167 0 7.91665 0Z" fill="black"/>
<path d="M20.5885 4.85773C19.7235 4.58487 18.7967 4.43555 17.839 4.43555C15.043 4.43555 12.5406 5.69703 10.8672 7.68455L15.1666 11.2992L20.5885 4.85773Z" fill="white"/>
<path d="M10.8671 7.68359C9.48864 9.32081 8.73356 11.3927 8.73535 13.5329C8.73535 15.2424 9.07521 16.6326 9.63643 17.8735L15.1665 11.2982L10.8671 7.68359Z" fill="white"/>
<path d="M17.8391 10.0586C18.5028 10.0593 19.1526 10.2495 19.7118 10.607C20.271 10.9645 20.7164 11.4744 20.9956 12.0766C21.2748 12.6787 21.3761 13.3482 21.2876 14.0059C21.1991 14.6638 20.9244 15.2826 20.4959 15.7895L25.9128 9.34809C24.8009 7.20596 22.8841 5.59286 20.5835 4.86328L15.1719 11.3047C15.4979 10.9142 15.9059 10.6002 16.3668 10.3848C16.8277 10.1695 17.3303 10.0582 17.8391 10.0586Z" fill="white"/>
<path d="M17.8382 17.0201C15.9176 17.0201 14.3574 15.4599 14.3574 13.5393C14.3551 12.7216 14.6435 11.9296 15.1709 11.3047L9.63574 17.88C10.5831 19.9756 12.1536 21.6594 13.7704 23.7808L20.4951 15.7895C20.1683 16.1755 19.7614 16.4856 19.3025 16.6981C18.8436 16.9107 18.3439 17.0206 17.8382 17.0201Z" fill="white"/>
<path d="M20.362 25.959C23.3999 21.2116 26.9373 19.0541 26.9373 13.5343C26.9373 12.0206 26.5666 10.5943 25.9126 9.33789L13.7764 23.7809C14.2913 24.4554 14.8113 25.1711 15.3159 25.9641C17.1593 28.8167 16.6495 30.5261 17.8389 30.5261C19.0284 30.5261 18.5186 28.8115 20.362 25.959Z" fill="white"/>
</svg>
