<svg width="35" height="35" viewBox="0 0 35 35" fill="none" xmlns="http://www.w3.org/2000/svg">
<g clip-path="url(#clip0_4505_69676)">
<path d="M7.91665 0H27.0834C31.4584 0 35 3.54167 35 7.91665V27.0834C35 31.4584 31.4584 35 27.0834 35H7.91665C3.54167 35 0 31.4584 0 27.0834V7.91665C0 3.54167 3.54167 0 7.91665 0Z" fill="url(#paint0_linear_4505_69676)"/>
<path d="M28.8825 9.625H6.31207C6.10702 9.625 5.91399 9.68533 5.74512 9.78184L5.98635 10.0231L16.1075 20.1562C16.9278 20.9765 18.2668 20.9765 19.0871 20.1562L29.4616 9.79387C29.2926 9.68533 29.0876 9.625 28.8825 9.625Z" fill="white"/>
<path d="M29.9554 10.6998C29.9554 10.4947 29.8951 10.3017 29.7986 10.1328L22.3193 17.6844L29.8227 25.1637C29.9072 25.0069 29.9554 24.8259 29.9554 24.645V10.6998Z" fill="white"/>
<path d="M5.25 10.6998C5.25 10.4947 5.31033 10.3017 5.40684 10.1328L12.8861 17.6844L5.38269 25.1637C5.29826 25.0069 5.25 24.8259 5.25 24.645V10.6998Z" fill="white"/>
<path d="M21.922 18.0332L19.3042 20.6509C18.3633 21.5919 16.8192 21.5919 15.8783 20.6509L13.2605 18.0453L5.74512 25.5487C5.91399 25.6452 6.09494 25.7055 6.3 25.7055H28.8704C29.0755 25.7055 29.2685 25.6452 29.4253 25.5487L28.979 25.1023L21.922 18.0332Z" fill="white"/>
</g>
<defs>
<linearGradient id="paint0_linear_4505_69676" x1="17.5" y1="0" x2="17.5" y2="35" gradientUnits="userSpaceOnUse">
<stop stop-color="#1E51EE"/>
<stop offset="1" stop-color="#19E4FF"/>
</linearGradient>
<clipPath id="clip0_4505_69676">
<rect width="35" height="35" fill="white"/>
</clipPath>
</defs>
</svg>
