<svg width="35" height="35" viewBox="0 0 35 35" fill="none" xmlns="http://www.w3.org/2000/svg">
<g clip-path="url(#clip0_4505_69697)">
<g clip-path="url(#clip1_4505_69697)">
<g filter="url(#filter0_i_4505_69697)">
<path d="M7.91665 0H27.0834C31.4584 0 35 3.54167 35 7.91665V27.0834C35 31.4584 31.4584 35 27.0834 35H7.91665C3.54167 35 0 31.4584 0 27.0834V7.91665C0 3.54167 3.54167 0 7.91665 0Z" fill="#FFFEFF"/>
<path d="M20.0885 4.85773C19.2235 4.58487 18.2967 4.43555 17.339 4.43555C14.543 4.43555 12.0406 5.69703 10.3672 7.68455L14.6666 11.2992L20.0885 4.85773Z" fill="#1A73E8"/>
<path d="M10.3671 7.68359C8.98864 9.32081 8.23356 11.3927 8.23535 13.5329C8.23535 15.2424 8.57521 16.6326 9.13643 17.8735L14.6665 11.2982L10.3671 7.68359Z" fill="#EA4335"/>
<path d="M17.3391 10.0586C18.0028 10.0593 18.6526 10.2495 19.2118 10.607C19.771 10.9645 20.2164 11.4744 20.4956 12.0766C20.7748 12.6787 20.8761 13.3482 20.7876 14.0059C20.6991 14.6638 20.4244 15.2826 19.9959 15.7895L25.4128 9.34809C24.3009 7.20596 22.3841 5.59286 20.0835 4.86328L14.6719 11.3047C14.9979 10.9142 15.4059 10.6002 15.8668 10.3848C16.3277 10.1695 16.8303 10.0582 17.3391 10.0586Z" fill="#4285F4"/>
<path d="M17.3382 17.0201C15.4176 17.0201 13.8574 15.4599 13.8574 13.5393C13.8551 12.7216 14.1435 11.9296 14.6709 11.3047L9.13574 17.88C10.0831 19.9756 11.6536 21.6594 13.2704 23.7808L19.9951 15.7895C19.6683 16.1755 19.2614 16.4856 18.8025 16.6981C18.3436 16.9107 17.8439 17.0206 17.3382 17.0201Z" fill="#FBBC04"/>
<path d="M19.862 25.959C22.8999 21.2116 26.4373 19.0541 26.4373 13.5343C26.4373 12.0206 26.0666 10.5943 25.4126 9.33789L13.2764 23.7809C13.7913 24.4554 14.3113 25.1711 14.8159 25.9641C16.6593 28.8167 16.1495 30.5261 17.3389 30.5261C18.5284 30.5261 18.0186 28.8115 19.862 25.959Z" fill="#34A853"/>
</g>
</g>
</g>
<defs>
<filter id="filter0_i_4505_69697" x="0" y="-1" width="35" height="36" filterUnits="userSpaceOnUse" color-interpolation-filters="sRGB">
<feFlood flood-opacity="0" result="BackgroundImageFix"/>
<feBlend mode="normal" in="SourceGraphic" in2="BackgroundImageFix" result="shape"/>
<feColorMatrix in="SourceAlpha" type="matrix" values="0 0 0 0 0 0 0 0 0 0 0 0 0 0 0 0 0 0 127 0" result="hardAlpha"/>
<feOffset dy="-1"/>
<feGaussianBlur stdDeviation="0.5"/>
<feComposite in2="hardAlpha" operator="arithmetic" k2="-1" k3="1"/>
<feColorMatrix type="matrix" values="0 0 0 0 0 0 0 0 0 0 0 0 0 0 0 0 0 0 0.12 0"/>
<feBlend mode="normal" in2="shape" result="effect1_innerShadow_4505_69697"/>
</filter>
<clipPath id="clip0_4505_69697">
<rect width="35" height="35" fill="white"/>
</clipPath>
<clipPath id="clip1_4505_69697">
<rect width="35" height="35" fill="white"/>
</clipPath>
</defs>
</svg>
