<svg width="21" height="21" viewBox="0 0 21 21" fill="none" xmlns="http://www.w3.org/2000/svg">
<path d="M0.883328 3.95273C0.811283 2.97993 1.20761 2.29538 2.03628 1.79095C2.39659 1.57478 2.75685 1.32258 3.11715 1.1064C3.76568 0.710078 4.37818 0.818185 4.81053 1.46671C5.56715 2.5836 6.28776 3.66451 7.04435 4.7814C7.58481 5.57406 7.54878 6.11451 6.93628 6.83508C6.75613 7.05125 6.57598 7.26743 6.43185 7.4836C5.92746 8.13212 5.89143 8.7086 6.35981 9.39318C6.93628 10.1858 7.58481 10.9424 8.23333 11.6991C9.24215 12.852 10.4311 13.8248 11.6922 14.7616C12.3767 15.2659 13.0253 15.2299 13.7098 14.7976C13.926 14.6534 14.1782 14.4733 14.3944 14.3292C15.0429 13.8248 15.5473 13.7888 16.2679 14.2211C17.3848 14.9417 18.5378 15.6263 19.6547 16.3469C20.4833 16.8513 20.6275 17.3917 20.1951 18.2564C19.9429 18.7248 19.6547 19.1571 19.3304 19.5895C18.862 20.2741 18.1775 20.4902 17.3848 20.4902C16.412 20.5263 15.5113 20.2741 14.6466 19.9138C12.2326 18.9409 10.1069 17.4998 8.19731 15.7704C5.85541 13.6807 3.83776 11.3027 2.3245 8.52845C1.67598 7.30345 1.13552 6.04243 0.955412 4.67334C0.919351 4.4211 0.919351 4.1689 0.883328 3.95273Z" fill="white"/>
</svg>
