<svg width="21" height="21" viewBox="0 0 21 21" fill="none" xmlns="http://www.w3.org/2000/svg">
<g clip-path="url(#clip0_4869_66168)">
<path d="M2.58352 17.0529C2.36792 17.0529 2.18312 17.0557 2.00112 17.0529C1.43552 17.0389 1.02112 16.6357 1.02952 16.1093C1.03792 15.5801 1.45792 15.1909 2.02632 15.1909C2.20272 15.1909 2.37912 15.1909 2.57232 15.1909C2.57232 13.9477 2.57232 12.7185 2.57232 11.4585C2.39032 11.4585 2.20832 11.4613 2.02912 11.4585C1.45232 11.4501 1.02672 11.0497 1.03232 10.5149C1.03792 9.98573 1.45512 9.59373 2.02352 9.58813C2.19992 9.58533 2.37632 9.58813 2.56952 9.58813C2.56952 8.34773 2.56952 7.11573 2.56952 5.85573C2.38752 5.85573 2.19712 5.85573 2.00952 5.85573C1.45512 5.85293 1.04072 5.46373 1.02952 4.94013C1.01832 4.42213 1.42432 4.01053 1.97872 3.99093C2.16912 3.98533 2.35952 3.99093 2.58632 3.99093C2.58632 3.77813 2.58352 3.57933 2.58632 3.37773C2.59472 2.72813 2.78792 2.14013 3.19952 1.63613C3.75112 0.961334 4.46792 0.577734 5.34432 0.574934C9.31752 0.566534 13.2879 0.560934 17.2611 0.574934C18.8095 0.580534 20.0191 1.85453 20.0191 3.43653C20.0219 8.15733 20.0191 12.8809 20.0191 17.6017C20.0191 17.7501 20.0051 17.9013 19.9883 18.0497C19.8287 19.3601 18.6667 20.4241 17.3479 20.4717C17.1379 20.4801 16.9251 20.4773 16.7123 20.4773C12.9659 20.4773 9.21952 20.4801 5.47312 20.4773C4.13472 20.4773 3.02312 19.6513 2.68992 18.3997C2.62272 18.1533 2.60872 17.8901 2.58912 17.6325C2.57232 17.4477 2.58352 17.2629 2.58352 17.0529ZM11.2803 17.3609C12.3443 17.3581 13.4083 17.3665 14.4723 17.3553C15.2927 17.3469 16.0095 16.7645 16.2167 15.9693C16.3259 15.5493 16.2755 15.1293 16.2167 14.7093C15.8471 12.0633 13.1787 10.1173 10.5467 10.5709C8.14992 10.9853 6.47552 12.8529 6.32712 15.2777C6.25432 16.4817 7.06912 17.3553 8.27312 17.3553C9.27552 17.3637 10.2779 17.3609 11.2803 17.3609ZM11.3027 3.67733C9.58352 3.67733 8.19192 5.06893 8.18912 6.78533C8.18912 8.49613 9.59192 9.90173 11.2999 9.90173C13.0107 9.90173 14.4135 8.49893 14.4107 6.78813C14.4107 5.06613 13.0219 3.67733 11.3027 3.67733Z" fill="white"/>
</g>
<defs>
<clipPath id="clip0_4869_66168">
<rect width="21" height="21" fill="white"/>
</clipPath>
</defs>
</svg>
