<svg width="25" height="17" viewBox="0 0 25 17" fill="none" xmlns="http://www.w3.org/2000/svg">
<path d="M23.8815 0.625H1.3111C1.10604 0.625 0.913016 0.685331 0.744141 0.781844L0.985378 1.02308L11.1065 11.1562C11.9268 11.9765 13.2658 11.9765 14.0861 11.1562L24.4606 0.793875C24.2917 0.685331 24.0866 0.625 23.8815 0.625Z" fill="white"/>
<path d="M24.9564 1.69977C24.9564 1.49471 24.8961 1.30169 24.7996 1.13281L17.3203 8.68441L24.8237 16.1637C24.9081 16.0069 24.9564 15.8259 24.9564 15.645V1.69977Z" fill="white"/>
<path d="M0.25 1.69977C0.25 1.49471 0.310331 1.30169 0.406844 1.13281L7.88608 8.68441L0.382694 16.1637C0.298256 16.0069 0.25 15.8259 0.25 15.645V1.69977Z" fill="white"/>
<path d="M16.921 9.03125L14.3033 11.649C13.3623 12.5899 11.8182 12.5899 10.8773 11.649L8.25956 9.04333L0.744141 16.5467C0.913016 16.6432 1.09397 16.7035 1.29902 16.7035H23.8695C24.0745 16.7035 24.2676 16.6432 24.4244 16.5467L23.978 16.1004L16.921 9.03125Z" fill="white"/>
</svg>
