<svg width="31" height="13" viewBox="0 0 31 13" fill="none" xmlns="http://www.w3.org/2000/svg">
<path d="M10.1274 5.27476C10.1335 4.91935 10.0968 4.56394 10.0191 4.21875H5.16602V6.13672H8.01539C7.90713 6.81689 7.52518 7.42149 6.95939 7.81366L6.94917 7.87698L8.48314 9.06575L8.58935 9.07596C9.56365 8.17519 10.1274 6.84957 10.1274 5.27476Z" fill="white"/>
<path d="M5.16893 10.3359C6.564 10.3359 7.73643 9.87637 8.59226 9.08385L6.9623 7.81951C6.43327 8.17491 5.8062 8.35466 5.17097 8.33628C3.83105 8.32811 2.64636 7.46206 2.22968 6.1875L2.1684 6.19363L0.57316 7.42734L0.552734 7.48453C1.42695 9.235 3.21419 10.338 5.16893 10.3359Z" fill="white"/>
<path d="M2.22639 6.1885C2.11405 5.85965 2.05482 5.51445 2.05482 5.16517C2.05686 4.81794 2.11405 4.47274 2.22231 4.14185L2.22027 4.07445L0.604598 2.82031L0.551492 2.84482C-0.183831 4.30525 -0.183831 6.02509 0.551492 7.48553L2.22639 6.1885Z" fill="white"/>
<path d="M5.16715 1.99794C5.9086 1.98568 6.6235 2.26143 7.16478 2.76798L8.62317 1.34432C7.68767 0.466014 6.44784 -0.0139875 5.16511 0.000310474C3.21038 0.000310474 1.42313 1.10125 0.546875 2.84969L2.21769 4.14671C2.63846 2.87215 3.82519 2.00611 5.16715 1.99794Z" fill="white"/>
<path d="M14.1005 5.51333V9.26252H12.916V0.000657954H16.0565C16.8119 -0.0156517 17.5451 0.271806 18.091 0.801871C19.1607 1.7988 19.2292 3.48685 18.2421 4.56941C18.1938 4.62241 18.1434 4.67338 18.091 4.72231C17.5431 5.2483 16.8119 5.53168 16.0565 5.51129L14.1005 5.51333ZM14.1005 1.1403V4.37369H16.0847C16.5238 4.38796 16.9489 4.21467 17.255 3.8946C17.8735 3.29318 17.8916 2.30032 17.2973 1.67444C17.2933 1.67036 17.2893 1.66628 17.2853 1.66221C17.2752 1.65201 17.2651 1.63978 17.255 1.63163C16.9509 1.30543 16.5258 1.12807 16.0847 1.1403H14.1005ZM21.6666 2.71826C22.5429 2.71826 23.2338 2.95271 23.7394 3.42365C24.245 3.89256 24.4989 4.53679 24.4989 5.35635V9.26252H23.3668V8.3818H23.3164C22.8269 9.10554 22.1742 9.46843 21.3584 9.46843C20.7218 9.48882 20.0994 9.26864 19.6159 8.84662C19.1627 8.46335 18.9048 7.89251 18.9149 7.29517C18.8948 6.68355 19.1707 6.09844 19.6542 5.73147C20.1477 5.34412 20.8064 5.15044 21.6303 5.15044C22.2326 5.12801 22.8309 5.26053 23.3668 5.5378V5.26461C23.3688 4.85687 23.1895 4.46951 22.8773 4.21263C22.563 3.92925 22.1561 3.77431 21.7351 3.78043C21.1026 3.76616 20.5083 4.08419 20.1659 4.62038L19.1244 3.95983C19.6925 3.13212 20.5405 2.71826 21.6666 2.71826ZM20.1336 7.32167C20.1316 7.62951 20.2787 7.91901 20.5244 8.09842C20.7863 8.30636 21.1126 8.41442 21.445 8.4083C21.9446 8.4083 22.422 8.20851 22.7765 7.85173C23.1492 7.5235 23.3647 7.04644 23.3647 6.54492C22.9941 6.24931 22.4804 6.10048 21.8197 6.10048C21.3926 6.08417 20.9696 6.20649 20.6171 6.4491C20.321 6.64074 20.1397 6.96693 20.1336 7.32167ZM30.9993 2.92621L27.0471 12.0556H25.8243L27.2908 8.86089L24.6902 2.92417H25.9774L27.8569 7.47661H27.8831L29.7101 2.92417L30.9993 2.92621Z" fill="white"/>
</svg>
