<svg width="21" height="21" viewBox="0 0 21 21" fill="none" xmlns="http://www.w3.org/2000/svg">
<path d="M0.00390625 13.5086C0.218281 12.6626 0.746016 11.9746 1.16984 11.2374C2.88758 8.24766 4.62391 5.26828 6.35203 2.28398C6.56422 1.91812 6.82781 1.60586 7.20844 1.40625C7.30578 1.43578 7.33258 1.52875 7.37523 1.60258C8.405 3.38703 9.43258 5.17313 10.4591 6.95977C10.4793 6.99531 10.5006 7.02977 10.511 7.07023C10.5148 7.09047 10.5159 7.1107 10.5143 7.13094C10.3814 7.47602 10.1665 7.7768 9.98383 8.09398C8.93492 9.91617 7.87344 11.7312 6.82453 13.5529C6.76711 13.6524 6.72008 13.7602 6.63039 13.8395C6.60086 13.8624 6.56805 13.8761 6.53195 13.8843C6.43734 13.9056 6.34164 13.9012 6.24648 13.9012C4.28375 13.9018 2.32047 13.9018 0.357734 13.9007C0.237422 13.9007 0.11 13.9231 0.00445312 13.8351C0.00390625 13.7268 0.00390625 13.6174 0.00390625 13.5086Z" fill="white"/>
<path d="M0.00390625 13.8343C0.760234 13.8321 1.51656 13.8272 2.27289 13.8283C3.71117 13.8294 5.14945 13.8338 6.58719 13.8365C6.62602 13.9273 6.56586 13.9934 6.52648 14.0618C5.49891 15.8342 4.46914 17.605 3.44266 19.378C3.40875 19.4365 3.37867 19.4994 3.31414 19.5322C2.98219 19.3654 2.72516 19.1149 2.54141 18.7977C1.77688 17.4809 1.02 16.1591 0.25875 14.8405C0.135703 14.6278 0.100703 14.3839 0.00390625 14.1619C0.00390625 14.0525 0.00390625 13.9437 0.00390625 13.8343Z" fill="white"/>
<path d="M3.31445 19.5338C3.54578 19.058 3.83234 18.6134 4.09539 18.1556C4.61602 17.25 5.14266 16.3477 5.66492 15.4437C5.97391 14.9094 6.28016 14.3734 6.5875 13.8386C6.59461 13.8271 6.60391 13.8178 6.61484 13.8096C6.69305 13.7845 6.77234 13.7697 6.85547 13.7697C9.29453 13.7708 11.7341 13.7675 14.1732 13.7719C14.2005 13.7719 14.2279 13.7746 14.2541 13.7779C14.2771 13.7801 14.3001 13.785 14.3225 13.791C14.4445 13.8348 14.4833 13.9524 14.5402 14.0502C15.2073 15.1976 15.8598 16.3542 16.5231 17.5038C16.8698 18.1053 17.2149 18.708 17.5584 19.3112C17.6016 19.3867 17.6634 19.4566 17.6426 19.5545C17.3068 19.7558 16.9404 19.8499 16.5521 19.8493C13.9271 19.8471 11.3016 19.8427 8.67656 19.8367C7.27875 19.834 5.88094 19.8263 4.48313 19.8236C4.06805 19.8231 3.66883 19.7711 3.31445 19.5338Z" fill="white"/>
<path d="M14.3716 13.8491C14.3602 13.8447 14.3492 13.8398 14.3388 13.8337C14.1649 13.6987 14.096 13.4909 13.9921 13.3104C12.8524 11.3247 11.7056 9.34281 10.5698 7.35438C10.5288 7.28273 10.485 7.21437 10.491 7.12742C10.4905 7.11594 10.4894 7.105 10.4883 7.09352C10.5572 6.83156 10.7229 6.61828 10.8552 6.39023C11.7827 4.79227 12.7059 3.19211 13.6372 1.59633C13.6782 1.52578 13.7138 1.44977 13.8007 1.42188C14.1759 1.61875 14.4351 1.92719 14.6423 2.28812C15.9291 4.53086 17.217 6.77305 18.5038 9.01578C19.2082 10.2435 19.9104 11.4723 20.6153 12.6995C20.8193 13.0545 20.9429 13.4302 20.9407 13.8425C20.8609 13.912 20.7624 13.9016 20.6684 13.9016C18.6619 13.9032 16.6559 13.9027 14.6495 13.9027C14.5527 13.9027 14.4597 13.8917 14.3716 13.8491Z" fill="white"/>
<path d="M14.3711 13.8497C14.6905 13.8464 15.0098 13.8398 15.3292 13.8398C17.1995 13.8398 19.0693 13.8415 20.9396 13.8426C20.9741 14.2155 20.8723 14.5623 20.6919 14.8773C19.9306 16.2045 19.1606 17.5263 18.3873 18.8465C18.2091 19.1511 17.9553 19.3868 17.642 19.5541C16.5515 17.6532 15.4616 15.7517 14.3711 13.8497Z" fill="white"/>
<path d="M13.8016 1.42102C12.7762 3.18523 11.7513 4.95 10.7254 6.71422C10.6505 6.84273 10.5684 6.96688 10.4897 7.0932C10.1889 6.57641 9.88594 6.0607 9.5868 5.54281C9.09461 4.68914 8.60461 3.83383 8.11352 2.97961C7.81219 2.45516 7.51086 1.9307 7.20898 1.40625C7.51742 1.2143 7.85812 1.11695 8.21633 1.11586C9.73008 1.11094 11.2438 1.11313 12.7576 1.12188C13.1284 1.12352 13.486 1.20828 13.8016 1.42102Z" fill="white"/>
</svg>
