<svg width="26" height="26" viewBox="0 0 26 26" fill="none" xmlns="http://www.w3.org/2000/svg">
<path d="M12.4193 0C14.0859 0 15.7526 0 17.4193 0C18.4609 0 19.5442 0.083344 20.5859 0.374981C22.4192 0.875 23.8359 1.91669 24.7942 3.54165C25.3776 4.54169 25.6276 5.62498 25.7526 6.75001C25.8359 7.75001 25.8776 8.75 25.8776 9.74999C25.8776 12.2083 25.8776 14.7083 25.8776 17.1667C25.8776 18.2917 25.7942 19.4167 25.5026 20.5417C24.8776 22.7917 23.5026 24.375 21.3359 25.2083C20.2943 25.625 19.1693 25.75 18.0442 25.7917C15.2942 25.8333 12.5442 25.875 9.79425 25.875C8.62757 25.875 7.41924 25.8333 6.29425 25.6667C4.66925 25.4583 3.25258 24.8333 2.08594 23.625C1.0026 22.5 0.41924 21.125 0.210902 19.5833C-0.0390852 17.5 0.0026086 15.4167 0.0026086 13.2917C0.0026086 11.5417 0.0442588 9.83334 0.0442588 8.08334C0.0859088 6.87501 0.169252 5.66668 0.627577 4.49999C1.46093 2.33332 3.00259 0.999994 5.25261 0.374981C6.29425 0.083344 7.37759 0.04165 8.46093 0C9.71091 0 11.0859 0 12.4193 0ZM23.5859 12.9583C23.5859 11.9583 23.6276 11 23.5859 9.99998C23.5443 8.79165 23.5026 7.54167 23.3776 6.33334C23.2942 5.49999 22.9609 4.70833 22.3776 4.04167C21.4192 2.91668 20.1693 2.41666 18.7526 2.33332C17.3776 2.25002 15.9609 2.20832 14.5859 2.20832C12.0859 2.20832 9.58592 2.25002 7.08591 2.33332C6.16926 2.37501 5.29426 2.58335 4.5026 3.08333C3.21093 3.87498 2.54427 5.08336 2.41927 6.54167C2.29423 7.79166 2.25258 9.04168 2.21093 10.2917C2.21093 12.7083 2.21093 15.0833 2.25258 17.5C2.25258 18.3334 2.37758 19.2083 2.54427 20C2.79425 21.0833 3.41926 21.9583 4.33591 22.5833C5.25261 23.2083 6.3359 23.4167 7.41924 23.4584C8.71092 23.5 9.96094 23.5417 11.2526 23.5417C13.7109 23.5417 16.1692 23.5 18.6276 23.4584C19.6692 23.4167 20.6692 23.1667 21.5026 22.5417C22.5443 21.7917 23.1692 20.75 23.3359 19.5C23.4609 18.5833 23.5026 17.6667 23.5443 16.75C23.5859 15.5 23.5859 14.25 23.5859 12.9583Z" fill="white"/>
<path d="M19.5039 12.9167C19.5039 16.625 16.5456 19.5417 12.8372 19.5417C9.21224 19.5417 6.25391 16.5417 6.25391 12.875C6.25391 9.25003 9.25389 6.25 12.9206 6.25C16.5456 6.29169 19.5039 9.25002 19.5039 12.9167ZM8.54558 12.9167C8.54558 15.3333 10.5039 17.2917 12.9206 17.2917C15.3372 17.2917 17.2956 15.3333 17.2956 12.9167C17.2956 10.5417 15.3372 8.58336 12.9206 8.58336C10.4622 8.58336 8.54558 10.5 8.54558 12.9167Z" fill="white"/>
<path d="M19.7929 4.5C20.6679 4.5 21.3346 5.16666 21.3346 5.99997C21.3346 6.83332 20.6679 7.54163 19.8346 7.54163C19.0013 7.54163 18.293 6.87497 18.293 6.04166C18.293 5.16666 18.9596 4.5 19.7929 4.5Z" fill="white"/>
</svg>
