<svg width="23" height="23" viewBox="0 0 23 23" fill="none" xmlns="http://www.w3.org/2000/svg">
<path d="M0.954954 7.84184H5.57124V22.4134H0.954954V7.84184ZM3.26434 0.589844C3.7938 0.589844 4.31141 0.743931 4.75158 1.03255C5.19179 1.32117 5.53484 1.73141 5.73735 2.21135C5.93983 2.69129 5.99268 3.21935 5.88921 3.72873C5.78574 4.23816 5.53059 4.70602 5.156 5.07313C4.78146 5.44023 4.30432 5.69013 3.78497 5.79115C3.26561 5.89217 2.72735 5.83984 2.23836 5.64069C1.74932 5.44159 1.33151 5.10467 1.03773 4.67255C0.743948 4.24039 0.587367 3.73249 0.587892 3.21309C0.588548 2.51712 0.870867 1.84989 1.37272 1.35801C1.87458 0.866169 2.55498 0.589844 3.26434 0.589844Z" fill="white"/>
<path d="M8 7.94009H12.4305V9.92712H12.4917C13.1093 8.78954 14.6151 7.58987 16.8635 7.58987C21.544 7.57994 22.4118 10.5779 22.4118 14.4651V22.4134H17.7899V15.3717C17.7899 13.6951 17.7593 11.5367 15.3884 11.5367C13.0175 11.5367 12.6142 13.3648 12.6142 15.2624V22.4134H8V7.94009Z" fill="white"/>
</svg>
