<svg width="19" height="27" viewBox="0 0 19 27" fill="none" xmlns="http://www.w3.org/2000/svg">
<path d="M12.0885 0.855781C11.2235 0.582912 10.2967 0.433594 9.33897 0.433594C6.54304 0.433594 4.04063 1.69508 2.36719 3.6826L6.66663 7.29723L12.0885 0.855781Z" fill="white"/>
<path d="M2.36805 3.68359C0.989618 5.32081 0.234538 7.39272 0.236331 9.53293C0.236331 11.2424 0.576182 12.6326 1.13741 13.8735L6.66749 7.29822L2.36805 3.68359Z" fill="white"/>
<path d="M9.33905 6.05864C10.0028 6.05925 10.6526 6.24952 11.2118 6.60704C11.771 6.96453 12.2164 7.47439 12.4956 8.07656C12.7748 8.67874 12.8761 9.34816 12.7876 10.0059C12.6991 10.6638 12.4244 11.2826 11.9959 11.7895L17.4128 5.34809C16.3009 3.20596 14.3841 1.59286 12.0835 0.863281L6.67188 7.30472C6.99794 6.91421 7.40587 6.60017 7.86678 6.38484C8.32768 6.16954 8.83033 6.05816 9.33905 6.05864Z" fill="white"/>
<path d="M9.33914 13.0201C7.41856 13.0201 5.85839 11.4599 5.85839 9.53935C5.85612 8.72157 6.14447 7.92961 6.67192 7.30469L1.13672 13.88C2.08412 15.9756 3.65462 17.6594 5.2714 19.7808L11.996 11.7895C11.6693 12.1755 11.2623 12.4856 10.8035 12.6981C10.3446 12.9107 9.84485 13.0206 9.33914 13.0201Z" fill="white"/>
<path d="M11.861 21.957C14.8989 17.2096 18.4363 15.0522 18.4363 9.53239C18.4363 8.0186 18.0656 6.59231 17.4116 5.33594L5.27539 19.779C5.79028 20.4535 6.31034 21.1692 6.81495 21.9622C8.65832 24.8147 8.14854 26.5242 9.33797 26.5242C10.5274 26.5242 10.0177 24.8096 11.861 21.957Z" fill="white"/>
</svg>
