<svg width="28" height="8" viewBox="0 0 28 8" fill="none" xmlns="http://www.w3.org/2000/svg">
<g clip-path="url(#clip0_4867_66132)">
<path d="M27.9072 2.35929C27.652 1.69678 26.9593 1.22118 26.1481 1.22118H26.1299C25.6012 1.22118 25.125 1.42264 24.7855 1.74455C24.446 1.42264 23.9697 1.22118 23.4411 1.22118H23.4251C22.9603 1.22118 22.5342 1.37695 22.2083 1.6324V1.50363C22.1969 1.37279 22.0807 1.27103 21.9349 1.27103H20.6862C20.5335 1.27103 20.4105 1.38318 20.4105 1.52233V7.69886C20.4105 7.83801 20.5335 7.95016 20.6862 7.95016H21.9349C22.0739 7.95016 22.1901 7.85462 22.2061 7.73416V3.3001C22.2061 3.28349 22.2061 3.27103 22.2083 3.25649C22.2288 3.05919 22.3883 2.89512 22.639 2.87643H22.8691C22.974 2.88474 23.0628 2.91796 23.1312 2.96989C23.2406 3.04881 23.2998 3.16926 23.2998 3.30218L23.3044 7.7134C23.3044 7.85254 23.4274 7.96677 23.5801 7.96677H24.8288C24.9769 7.96677 25.0954 7.86085 25.1022 7.72793V3.29803C25.1022 3.15265 25.1751 3.01973 25.305 2.94289C25.3688 2.9055 25.4463 2.88058 25.5352 2.87227H25.7653C26.0365 2.89304 26.1982 3.07996 26.1982 3.29803L26.2028 7.70509C26.2028 7.84424 26.3258 7.95639 26.4785 7.95639H27.7272C27.873 7.95639 27.9938 7.85254 28.0029 7.7217V2.88889C27.9961 2.61682 27.9574 2.49013 27.9072 2.35929ZM19.458 1.28764H18.7448V0.232606C18.7448 0.23053 18.7448 0.23053 18.7448 0.228453C18.7448 0.103842 18.6331 0 18.4919 0C18.4759 0 18.46 0.00207684 18.444 0.00415369C17.6533 0.201454 17.8105 1.20042 16.3659 1.28557H16.2269C16.2064 1.28557 16.1859 1.28764 16.1654 1.2918C16.0446 1.3188 15.9512 1.41848 15.9512 1.53894V2.67705C15.9512 2.8162 16.0742 2.92835 16.2269 2.92835H16.9788L16.9766 7.75078C16.9766 7.88785 17.0996 8 17.25 8H18.485C18.6354 8 18.7585 7.88785 18.7585 7.75078V2.92835H19.458C19.6084 2.92835 19.7337 2.81412 19.7337 2.67705V1.53894C19.7337 1.39979 19.6107 1.28764 19.458 1.28764Z" fill="white"/>
<path d="M14.9684 1.28723H13.7197C13.5693 1.28723 13.444 1.39938 13.444 1.53853V3.89159C13.4417 4.03697 13.3118 4.15328 13.1523 4.15328H12.6305C12.4687 4.15328 12.3366 4.0349 12.3366 3.88744L12.332 1.53853C12.332 1.39938 12.209 1.28723 12.0563 1.28723H10.8076C10.6549 1.28723 10.5319 1.39938 10.5319 1.53853V4.11589C10.5319 5.09409 11.2975 5.79398 12.373 5.79398C12.373 5.79398 13.1797 5.79398 13.2048 5.79814C13.3506 5.81267 13.4622 5.92482 13.4622 6.06189C13.4622 6.19689 13.3529 6.30904 13.207 6.32565C13.2002 6.32565 13.1934 6.32773 13.1865 6.32981L11.3613 6.33604C11.2087 6.33604 11.0856 6.44819 11.0856 6.58734V7.72337C11.0856 7.86252 11.2087 7.97467 11.3613 7.97467H13.4007C14.4762 7.97467 15.2419 7.27685 15.2419 6.29865V1.53853C15.2441 1.39938 15.1211 1.28723 14.9684 1.28723ZM7.86816 1.29346H6.13639C5.98372 1.29346 5.8584 1.39938 5.8584 1.52815V1.97051C5.8584 1.97259 5.8584 1.97674 5.8584 1.97882C5.8584 1.98298 5.8584 1.98505 5.8584 1.98921V2.59564C5.8584 2.73272 5.99056 2.84694 6.15234 2.84694H7.80208C7.93197 2.86563 8.0345 2.95286 8.05046 3.08786V3.23531C8.03678 3.36408 7.93424 3.45753 7.80892 3.46792H6.99316C5.90625 3.46792 5.13379 4.12628 5.13379 5.0484V6.37134C5.13379 7.28931 5.79915 7.94144 6.87695 7.94144H9.13965C9.54525 7.94144 9.87565 7.66106 9.87565 7.31631V3.00063C9.87565 1.9539 9.2832 1.29346 7.86816 1.29346ZM8.06641 6.04113V6.21973C8.06641 6.23427 8.06413 6.24881 8.06185 6.26127C8.05957 6.27373 8.05501 6.28619 8.05046 6.29865C8.01172 6.39834 7.90234 6.47103 7.77246 6.47103H7.25293C7.09115 6.47103 6.95898 6.35888 6.95898 6.21973V6.00582C6.95898 6.00374 6.95898 5.99959 6.95898 5.99751V5.42638V5.24777V5.2457C6.95898 5.10862 7.09115 4.99647 7.25293 4.99647H7.77246C7.93424 4.99647 8.06641 5.10862 8.06641 5.24777V6.04113ZM2.9987 1.28516H0.271159C0.120768 1.28516 0 1.39731 0 1.5323V2.64757C0 2.64964 0 2.65172 0 2.6538C0 2.66003 0 2.66418 0 2.66833V7.71298C0 7.85006 0.111654 7.96221 0.25293 7.96428H1.52441C1.67708 7.96428 1.80013 7.85213 1.80013 7.71298L1.80469 5.98505H2.9987C3.99674 5.98505 4.69401 5.35369 4.69401 4.4378V2.83448C4.69401 1.92067 3.99674 1.28516 2.9987 1.28516ZM2.88932 3.37031V4.07228C2.88932 4.21974 2.75944 4.34019 2.59766 4.34019H1.80697V2.93417H2.59766C2.75944 2.93417 2.88932 3.05255 2.88932 3.20001V3.37031Z" fill="white"/>
</g>
<defs>
<clipPath id="clip0_4867_66132">
<rect width="28" height="8" fill="white"/>
</clipPath>
</defs>
</svg>
