<svg width="12" height="17" viewBox="0 0 12 17" fill="none" xmlns="http://www.w3.org/2000/svg">
<path d="M11.4453 5.87082C11.4453 5.40169 11.0432 4.99927 10.5741 4.99927H8.96523L5.27908 0.776581C4.94373 0.374534 4.40758 0.240378 3.87142 0.374534L2.59783 0.776581C2.39664 0.843612 2.32956 1.11192 2.46367 1.24566L6.48555 5.06635H0.386125C0.18489 5.06635 0.0507812 5.20046 0.0507812 5.40169V6.07163C0.0507812 6.54113 0.453203 6.94313 0.922281 6.94313H1.86048V10.1606C1.86048 12.5735 3.13408 13.9808 5.27912 13.9808C5.94906 13.9808 6.48564 13.9138 7.15553 13.6459V15.7905C7.15553 16.3938 7.62503 16.8633 8.22827 16.8633H9.16647C9.3677 16.8633 9.56852 16.6621 9.56852 16.4609V6.87605H11.1104C11.3116 6.87605 11.4453 6.74194 11.4453 6.54113V5.87082H11.4453ZM7.15553 11.6349C6.75353 11.8361 6.21733 11.9032 5.81533 11.9032C4.74255 11.9032 4.20639 11.367 4.20639 10.1605V6.94308H7.15553V11.6349Z" fill="white"/>
</svg>
