<svg width="21" height="21" viewBox="0 0 21 21" fill="none" xmlns="http://www.w3.org/2000/svg">
<path d="M11.585 0.000546875C12.0285 0.0689062 12.4791 0.106641 12.9145 0.21C15.4935 0.821953 17.3452 2.29742 18.2815 4.82672C18.5741 5.6175 18.6577 6.44492 18.6282 7.28602C18.5713 8.89109 18.2492 10.4289 17.4688 11.8459C16.6616 13.3115 15.5198 14.4063 13.8955 14.91C12.717 15.2753 11.5358 15.3327 10.3928 14.7536C9.93617 14.5223 9.53805 14.2182 9.25805 13.7785C9.24383 13.7555 9.24 13.726 9.2318 13.6992C9.21594 13.7096 9.20008 13.7205 9.18422 13.7309C8.99227 14.4818 8.77078 15.2266 8.61438 15.9852C8.22938 17.8577 7.33195 19.4682 6.16547 20.9491C6.15398 20.9639 6.14797 20.9836 6.13977 21.0005C6.08508 21.0005 6.03039 21.0005 5.97625 21.0005C5.92922 20.8195 5.86031 20.6418 5.83789 20.4575C5.66289 19.04 5.61586 17.6236 5.94125 16.2181C6.1857 15.161 6.43781 14.1055 6.68719 13.0501C6.93656 11.9941 7.18977 10.9391 7.43203 9.88148C7.45609 9.77758 7.43914 9.6507 7.40305 9.54789C6.99945 8.38906 6.93766 7.23242 7.45992 6.09602C7.78859 5.38125 8.30102 4.85188 9.11586 4.70914C10.1079 4.53523 10.903 5.14664 11.0146 6.15016C11.0841 6.77578 10.9484 7.37406 10.7816 7.96687C10.5377 8.83367 10.2982 9.70211 10.0248 10.5596C9.51891 12.1466 10.8631 13.4241 12.4923 13.0156C13.3345 12.8045 13.9284 12.2571 14.4025 11.5626C15.0462 10.6187 15.3754 9.55391 15.5537 8.43773C15.6811 7.6393 15.7478 6.8343 15.6477 6.0282C15.4033 4.06164 14.2127 2.70211 12.2768 2.25039C10.4114 1.81508 8.63461 2.04641 7.05469 3.19648C5.68641 4.19234 4.95523 5.57484 4.79172 7.25211C4.75016 7.67648 4.76547 8.11344 4.81141 8.53836C4.88086 9.17766 5.15047 9.74477 5.5743 10.2304C5.74875 10.43 5.79414 10.6405 5.72031 10.8937C5.63281 11.1951 5.56555 11.5019 5.48352 11.8048C5.38836 12.1559 5.16523 12.268 4.83164 12.1248C3.87516 11.7135 3.23258 10.9895 2.86781 10.0335C2.10328 8.02977 2.27227 6.07031 3.29492 4.20383C4.47562 2.04914 6.33828 0.789688 8.70516 0.252656C9.19461 0.141641 9.70156 0.105547 10.2003 0.0339063C10.2534 0.02625 10.3053 0.0114844 10.3578 0C10.7663 0.000546875 11.1759 0.000546875 11.585 0.000546875Z" fill="white"/>
</svg>
