<svg width="22" height="23" viewBox="0 0 22 23" fill="none" xmlns="http://www.w3.org/2000/svg">
<mask id="mask0_4867_66136" style="mask-type:luminance" maskUnits="userSpaceOnUse" x="0" y="0" width="22" height="23">
<path d="M21.773 0H0V22.9363H21.773V0Z" fill="white"/>
</mask>
<g mask="url(#mask0_4867_66136)">
<path d="M21.7597 11.6842C21.7597 10.7445 21.6856 10.0588 21.5253 9.34766H11.1016V13.589H17.2201C17.0968 14.6429 16.4306 16.2303 14.9503 17.2969L14.9296 17.4389L18.2254 20.0672L18.4537 20.0907C20.5508 18.097 21.7597 15.1636 21.7597 11.6842Z" fill="white"/>
<path d="M11.1036 22.8559C14.1011 22.8559 16.6176 21.8399 18.4557 20.0876L14.9523 17.2938C14.0148 17.9669 12.7565 18.4367 11.1036 18.4367C8.16766 18.4367 5.67584 16.4431 4.78759 13.6875L4.65737 13.6989L1.23038 16.4291L1.18555 16.5573C3.01122 20.2907 6.76134 22.8559 11.1036 22.8559Z" fill="white"/>
<path d="M4.78622 13.6884C4.55188 12.9773 4.41622 12.2153 4.41622 11.4281C4.41622 10.6407 4.55188 9.87882 4.7739 9.16771L4.76769 9.01624L1.29774 6.24219L1.18422 6.29779C0.431757 7.84703 0 9.58679 0 11.4281C0 13.2694 0.431757 15.009 1.18422 16.5583L4.78622 13.6884Z" fill="white"/>
<path d="M11.1036 4.4191C13.1883 4.4191 14.5945 5.34607 15.3964 6.12076L18.5297 2.97146C16.6053 1.13019 14.1011 0 11.1036 0C6.76134 0 3.01122 2.56511 1.18555 6.29847L4.77527 9.16838C5.67584 6.41279 8.16766 4.4191 11.1036 4.4191Z" fill="white"/>
</g>
</svg>
