<svg width="25" height="25" viewBox="0 0 25 25" fill="none" xmlns="http://www.w3.org/2000/svg">
<path d="M24.3013 18.4987C24.1982 18.1574 23.7045 17.9167 23.7045 17.9167C23.6579 17.8922 23.6162 17.87 23.5818 17.8528C22.759 17.455 22.0296 16.9761 21.4156 16.4333C20.922 15.9962 20.4996 15.5148 20.1607 15.004C19.7457 14.3802 19.5516 13.8595 19.4681 13.5771C19.4215 13.3929 19.4288 13.3192 19.4681 13.2235C19.5 13.1424 19.5958 13.0663 19.64 13.0294C19.9175 12.8329 20.3645 12.5432 20.6396 12.3664C20.8778 12.2116 21.0816 12.079 21.202 11.9955C21.5876 11.7253 21.8528 11.4503 22.0075 11.1531C22.2089 10.77 22.2335 10.3476 22.0763 9.93254C21.8651 9.37259 21.342 9.03855 20.6764 9.03855C20.5291 9.03855 20.3768 9.05575 20.2245 9.08769C19.8439 9.17121 19.4828 9.30626 19.1808 9.42417C19.1587 9.43397 19.1341 9.41677 19.1366 9.39223C19.1685 8.64319 19.2053 7.63624 19.1218 6.68091C19.0481 5.81641 18.8689 5.08701 18.5791 4.45093C18.2868 3.8124 17.9061 3.34086 17.609 2.99948C17.3265 2.67529 16.828 2.19641 16.0765 1.76661C15.0205 1.16246 13.817 0.855469 12.5007 0.855469C11.1868 0.855469 9.98581 1.16246 8.92733 1.76661C8.1316 2.22095 7.62323 2.73422 7.3924 2.99948C7.09521 3.34086 6.71454 3.8124 6.42229 4.45093C6.13004 5.08701 5.95324 5.81396 5.87953 6.68091C5.79605 7.64114 5.83044 8.56702 5.86483 9.39223C5.86483 9.41677 5.84269 9.43397 5.81814 9.42417C5.51605 9.30626 5.15507 9.17121 4.7744 9.08769C4.62456 9.05575 4.47231 9.03855 4.32251 9.03855C3.65939 9.03855 3.13631 9.37259 2.92264 9.93254C2.76544 10.3476 2.78999 10.77 2.99141 11.1531C3.14856 11.4503 3.41137 11.7253 3.79694 11.9955C3.9148 12.079 4.12113 12.2116 4.35934 12.3664C4.62705 12.5407 5.06171 12.8231 5.34171 13.0171C5.37609 13.0417 5.49396 13.1301 5.53079 13.2235C5.57008 13.3217 5.57748 13.3954 5.52589 13.5918C5.43993 13.8767 5.24594 14.3925 4.83823 15.004C4.49934 15.5173 4.07689 15.9962 3.58326 16.4333C2.96928 16.9761 2.23988 17.455 1.41716 17.8528C1.37787 17.8725 1.33119 17.8946 1.28206 17.924C1.28206 17.924 0.790876 18.1746 0.697557 18.4987C0.560051 18.9776 0.925975 19.4271 1.2968 19.6678C1.90589 20.0607 2.64758 20.2719 3.07734 20.3873C3.19769 20.4193 3.30576 20.4487 3.40398 20.4782C3.4654 20.4979 3.6201 20.5568 3.68643 20.6428C3.7699 20.7508 3.77974 20.8834 3.80923 21.0332C3.85587 21.2862 3.96148 21.5981 4.27338 21.8142C4.61721 22.05 5.05191 22.0672 5.60447 22.0893C6.18162 22.1114 6.89877 22.1384 7.72149 22.411C8.10216 22.5363 8.44844 22.7499 8.8463 22.9955C9.68131 23.5088 10.7202 24.1474 12.4933 24.1474C14.2689 24.1474 15.3152 23.5064 16.1551 22.9906C16.5529 22.7475 16.8943 22.5363 17.2676 22.4135C18.0903 22.1408 18.8075 22.1139 19.3846 22.0918C19.9372 22.0696 20.3719 22.0549 20.7157 21.8167C21.0497 21.5858 21.1455 21.242 21.1897 20.9841C21.2143 20.8564 21.229 20.741 21.3027 20.6477C21.3665 20.5666 21.509 20.5102 21.5753 20.488C21.676 20.4561 21.7889 20.4266 21.9142 20.3922C22.344 20.2768 22.8843 20.1417 23.54 19.7709C24.3308 19.3215 24.3849 18.7714 24.3013 18.4987Z" fill="white"/>
</svg>
