<svg width="17" height="13" viewBox="0 0 17 13" fill="none" xmlns="http://www.w3.org/2000/svg">
<path fill-rule="evenodd" clip-rule="evenodd" d="M1.93061 5.57011C6.07601 3.76979 8.83568 2.57354 10.2214 1.99319C14.1655 0.346881 14.9946 0.0626375 15.5275 0.0507812C15.646 0.0507812 15.9066 0.0744499 16.0842 0.216594C16.2264 0.335025 16.2619 0.489025 16.2856 0.607456C16.3093 0.725887 16.3329 0.974606 16.3093 1.16413C16.0961 3.4145 15.1723 8.87459 14.6985 11.3855C14.4971 12.4515 14.1063 12.8068 13.7273 12.8423C12.8982 12.9134 12.2704 12.2975 11.4769 11.7763C10.2214 10.9591 9.52264 10.4498 8.30271 9.64446C6.89326 8.72059 7.80523 8.21129 8.61063 7.38223C8.82382 7.16904 12.46 3.8527 12.531 3.5566C12.5429 3.52107 12.5429 3.37893 12.46 3.30788C12.3771 3.23683 12.2586 3.2605 12.1639 3.28421C12.0336 3.30788 10.0438 4.63442 6.17077 7.25194C5.60224 7.64281 5.09295 7.83229 4.63104 7.82047C4.12174 7.80862 3.15054 7.53619 2.41624 7.29932C1.52794 7.01508 0.817262 6.86108 0.8765 6.36364C0.912025 6.10307 1.26736 5.84249 1.93061 5.57011Z" fill="white"/>
</svg>
