<svg width="27" height="27" viewBox="0 0 27 27" fill="none" xmlns="http://www.w3.org/2000/svg">
<mask id="mask0_4867_65740" style="mask-type:luminance" maskUnits="userSpaceOnUse" x="0" y="0" width="27" height="27">
<path d="M26.7969 0.339844H0.341797V26.7949H26.7969V0.339844Z" fill="white"/>
</mask>
<g mask="url(#mask0_4867_65740)">
<path d="M19.8435 12.6013C19.7296 12.5466 19.6138 12.4941 19.4966 12.4437C19.2924 8.68123 17.2364 6.52715 13.7844 6.5051C13.7687 6.50502 13.7532 6.50502 13.7375 6.50502C11.6727 6.50502 9.9554 7.3864 8.89844 8.99019L10.797 10.2926C11.5866 9.09458 12.8258 8.83921 13.7384 8.83921C13.749 8.83921 13.7595 8.83921 13.77 8.8393C14.9066 8.84656 15.7643 9.177 16.3195 9.82153C16.7235 10.2907 16.9937 10.9391 17.1275 11.7574C16.1197 11.5861 15.0298 11.5334 13.8647 11.6002C10.5826 11.7893 8.47254 13.7035 8.61424 16.3633C8.68617 17.7125 9.35834 18.8733 10.5068 19.6315C11.4779 20.2725 12.7285 20.586 14.0283 20.515C15.7448 20.4209 17.0914 19.766 18.0308 18.5685C18.7443 17.6591 19.1955 16.4806 19.3948 14.9957C20.2128 15.4894 20.819 16.139 21.1539 16.92C21.7232 18.2476 21.7564 20.4292 19.9764 22.2077C18.4167 23.7658 16.542 24.4398 13.7088 24.4607C10.566 24.4374 8.18908 23.4295 6.6437 21.4649C5.19658 19.6253 4.44872 16.9682 4.42081 13.5674C4.44872 10.1665 5.19658 7.50938 6.6437 5.66983C8.18908 3.70528 10.5659 2.69737 13.7088 2.674C16.8744 2.69754 19.2927 3.71031 20.8972 5.68431C21.6839 6.65237 22.2771 7.86971 22.6681 9.28913L24.893 8.69553C24.419 6.94842 23.6732 5.4429 22.6583 4.19427C20.6012 1.66351 17.5928 0.366732 13.7165 0.339844H13.701C9.83259 0.366636 6.85781 1.66836 4.8594 4.2088C3.08105 6.46949 2.16374 9.61507 2.1329 13.5581L2.13281 13.5674L2.1329 13.5767C2.16374 17.5196 3.08105 20.6653 4.8594 22.926C6.85781 25.4664 9.83259 26.7682 13.701 26.7949H13.7165C17.1557 26.7711 19.58 25.8706 21.577 23.8753C24.1899 21.265 24.1112 17.993 23.25 15.9843C22.6322 14.5439 21.4543 13.3739 19.8435 12.6013ZM13.9054 18.1842C12.4669 18.2652 10.9725 17.6196 10.8988 16.2366C10.8441 15.2112 11.6285 14.067 13.9937 13.9307C14.2646 13.9151 14.5303 13.9074 14.7914 13.9074C15.6506 13.9074 16.4542 13.9909 17.185 14.1506C16.9124 17.5543 15.3138 18.1069 13.9054 18.1842Z" fill="white"/>
</g>
</svg>
