<svg width="25" height="25" viewBox="0 0 25 25" fill="none" xmlns="http://www.w3.org/2000/svg">
<path d="M0.146484 24.8512C0.228866 24.5218 0.311203 24.2747 0.352372 24.0277C0.846484 22.2982 1.29943 20.5688 1.75237 18.8394C1.79354 18.6747 1.79354 18.4688 1.7112 18.3453C0.846484 16.8218 0.393541 15.1747 0.228866 13.4041C0.0641469 11.51 0.352372 9.65705 1.05237 7.88644C2.16415 5.16883 4.01709 3.10999 6.57003 1.66883C8.21709 0.762938 9.98765 0.268825 11.8818 0.186444C15.1347 0.0629377 17.9759 1.00999 20.4465 3.15116C22.7112 5.12766 24.1524 7.59822 24.5641 10.5629C25.0994 14.2277 24.1935 17.4806 21.8053 20.3218C19.7877 22.71 17.1935 24.1512 14.0641 24.5629C11.6347 24.8923 9.28765 24.5629 7.06415 23.41C6.69354 23.2453 6.40532 23.2041 5.99354 23.2864C4.18181 23.7806 2.37003 24.2335 0.558259 24.7277C0.517091 24.7688 0.352372 24.81 0.146484 24.8512ZM12.2112 2.16294C11.8818 2.20411 11.223 2.24528 10.6053 2.32766C8.29943 2.7806 6.32298 3.89233 4.75826 5.66294C2.94648 7.76294 2.08181 10.2335 2.24648 12.9923C2.32887 14.8041 2.90532 16.4512 3.89354 17.9747C3.97592 18.0982 3.97592 18.2629 3.93471 18.4277C3.68765 19.3747 3.4406 20.3218 3.15237 21.2688C3.1112 21.4335 3.07003 21.557 3.02887 21.7218C3.02887 21.7629 3.15237 21.8864 3.19354 21.8864C3.27592 21.8864 3.39943 21.8453 3.52298 21.8041C4.5112 21.557 5.5406 21.2688 6.52887 21.0218C6.73471 20.9806 6.98181 21.0218 7.14648 21.1041C9.12298 22.257 11.2641 22.7512 13.5289 22.5041C16.3289 22.2159 18.6347 20.9394 20.3641 18.7982C22.0524 16.6982 22.8347 14.31 22.6289 11.5923C22.4641 9.24528 21.5994 7.18644 19.9935 5.45705C18.0583 3.31588 15.5053 2.20411 12.2112 2.16294Z" fill="white"/>
<path d="M15.7135 18.2662C14.7664 18.3073 13.9429 17.9367 13.1194 17.6073C11.6782 17.072 10.4429 16.1662 9.37232 15.0544C8.42526 14.1073 7.56054 13.0779 6.94288 11.8838C6.32526 10.8132 6.0782 9.66029 6.48998 8.46618C6.69582 7.88969 7.06643 7.39557 7.51937 6.9838C7.97232 6.61324 8.5076 6.69557 9.04288 6.81908C9.16643 6.86029 9.24877 6.9838 9.33115 7.10735C9.70171 7.93085 10.0723 8.7544 10.4017 9.61908C10.4841 9.7838 10.4429 10.0309 10.3194 10.1956C10.1547 10.4838 9.9076 10.772 9.66054 11.0191C9.37232 11.3485 9.33115 11.472 9.5782 11.8426C10.5664 13.5309 11.9664 14.725 13.7782 15.425C14.0253 15.5073 14.19 15.4662 14.3547 15.3015C14.6429 14.9309 14.9723 14.5603 15.2605 14.2309C15.5076 13.9015 15.6311 13.8603 16.0429 14.025C16.3723 14.1485 16.6605 14.3132 16.99 14.4367C17.4429 14.6426 17.8958 14.8897 18.3488 15.0956C18.637 15.2191 18.7194 15.4662 18.7194 15.7544C18.5958 17.1544 17.4841 18.1838 16.0429 18.225C15.9194 18.2662 15.7958 18.2662 15.7135 18.2662Z" fill="white"/>
</svg>
