<svg width="25" height="25" viewBox="0 0 25 25" fill="none" xmlns="http://www.w3.org/2000/svg">
<path d="M20.4354 22.1361C20.4354 18.384 16.2521 15.334 12.5 15.334C8.74791 15.334 4.56458 18.384 4.56458 22.1361M12.5 11.934C13.7026 11.934 14.8559 11.4563 15.7063 10.6059C16.5566 9.75554 17.0344 8.6022 17.0344 7.39961C17.0344 6.19702 16.5566 5.04368 15.7063 4.19332C14.8559 3.34296 13.7026 2.86523 12.5 2.86523C11.2974 2.86523 10.1441 3.34296 9.2937 4.19332C8.44334 5.04368 7.96562 6.19702 7.96562 7.39961C7.96562 8.6022 8.44334 9.75554 9.2937 10.6059C10.1441 11.4563 11.2974 11.934 12.5 11.934Z" stroke="black" stroke-width="1.5" stroke-linecap="round" stroke-linejoin="round"/>
</svg>
