<svg width="21" height="21" viewBox="0 0 21 21" fill="none" xmlns="http://www.w3.org/2000/svg">
<g clip-path="url(#clip0_4869_66175)">
<path d="M1.06737 16.2124C0.904969 15.9212 0.882569 15.5936 0.843369 15.2716C0.778969 14.7004 0.700569 14.132 0.697769 13.5552C0.655769 13.4348 0.689369 13.3396 0.773369 13.2388C1.00857 12.9616 1.29417 12.7376 1.55737 12.494C1.96337 12.1216 2.36937 11.7464 2.77817 11.3796C3.33817 10.8812 3.88417 10.3688 4.44137 9.86757C4.79417 9.54837 5.14697 9.22637 5.49697 8.90437C6.09057 8.36397 6.68417 7.82357 7.27777 7.28037C7.81537 6.78757 8.35297 6.29757 8.89057 5.80477C9.43657 5.30357 9.99097 4.80797 10.537 4.30677C11.0382 3.84477 11.5534 3.39957 12.035 2.91797C12.1162 2.91797 12.2002 2.92077 12.2814 2.92077C12.4718 2.98797 12.6706 2.89277 12.861 2.95157C13.7458 2.95157 14.6278 3.02997 15.507 3.10837C15.647 3.11957 15.7926 3.09157 15.9298 3.15317C15.927 3.23717 15.8738 3.28757 15.8178 3.33797C15.2326 3.86437 14.6558 4.40477 14.0706 4.93117C13.2222 5.69557 12.3878 6.47677 11.5366 7.23557C11.3294 7.42037 11.1222 7.60517 10.9626 7.83757C10.8954 7.84597 10.845 7.81237 10.7918 7.78157C10.4446 7.56877 10.0778 7.38957 9.73337 7.16837C9.05297 6.73157 8.09817 7.01997 8.01697 7.95797C7.98337 8.44237 8.01137 8.92677 8.00297 9.41117C8.00017 9.55397 8.01137 9.69677 7.99457 9.83957C7.98337 9.90397 7.93577 9.94317 7.88817 9.98237C7.45977 10.3296 7.06777 10.7188 6.65897 11.0856C6.08217 11.6036 5.51097 12.13 4.93697 12.6508C4.57857 12.9756 4.22577 13.3032 3.86737 13.628C3.27937 14.1628 2.69137 14.7004 2.10337 15.238C1.75337 15.5544 1.38937 15.8624 1.06737 16.2124Z" fill="white"/>
<path d="M12.0348 2.912C11.9452 3.1724 11.7044 3.304 11.5196 3.4692C11.3068 3.6568 11.1024 3.8584 10.8896 4.046C10.3268 4.536 9.78916 5.0568 9.24036 5.5608C8.43956 6.2944 7.63876 7.028 6.83796 7.7588C6.23036 8.3132 5.62276 8.8648 5.01796 9.4164C4.38516 9.9932 3.76076 10.5756 3.12236 11.144C2.48956 11.7096 1.86236 12.2808 1.24076 12.8576C1.08676 13.0004 0.927159 13.1348 0.789959 13.2944C0.717159 13.3784 0.705959 13.4568 0.700359 13.5492C0.624759 13.3056 0.649959 13.0508 0.635959 12.8016C0.577159 11.8076 0.560359 10.8136 0.585559 9.8196C1.01956 9.4248 1.44516 9.0244 1.88196 8.6324C2.43916 8.1312 2.98796 7.6216 3.54236 7.1204C3.88676 6.8096 4.22836 6.4988 4.56996 6.1852C5.15796 5.6476 5.74596 5.11 6.33396 4.5752C6.68116 4.2588 7.02836 3.9424 7.37276 3.6232C7.61636 3.3964 7.87676 3.1836 8.10636 2.94C8.24916 2.9288 8.38916 2.9064 8.53196 2.9064C9.42236 2.898 10.31 2.8448 11.2004 2.87C11.4804 2.884 11.7576 2.9008 12.0348 2.912Z" fill="white"/>
<path d="M20.1378 5.40485C20.1938 5.60645 20.2106 5.81085 20.2134 6.01805C19.6702 6.48285 19.1522 6.97845 18.6202 7.45445C18.063 7.95565 17.5142 8.46525 16.957 8.96645C16.6126 9.27725 16.271 9.58805 15.9294 9.90165C15.5038 10.2937 15.0558 10.6633 14.6526 11.0777C14.1402 11.6069 13.5522 12.0493 13.0202 12.5561C12.4742 13.0769 11.9086 13.5809 11.3458 14.0849C10.9902 14.4041 10.643 14.7289 10.2902 15.0509C9.71625 15.5717 9.14225 16.0981 8.56825 16.6189C8.11465 17.0333 7.66385 17.4449 7.21025 17.8593C7.15145 17.9125 7.13465 17.9881 7.08145 18.0413C6.59705 18.0469 6.11825 17.9825 5.63945 17.9489C5.09345 17.9097 4.55025 17.8509 4.00425 17.8033C3.93425 17.7977 3.87265 17.7725 3.80825 17.7557C3.67385 17.6661 3.72145 17.5709 3.81105 17.4897C4.44105 16.9101 5.07105 16.3333 5.70665 15.7593C6.06505 15.4373 6.42345 15.1125 6.77345 14.7821C7.13745 14.4377 7.52665 14.1157 7.88225 13.7601C7.97185 13.6705 8.07545 13.6369 8.19865 13.6873C8.46745 13.9365 8.76145 14.1073 9.15345 14.0681C9.32705 14.0513 9.48945 14.0093 9.63785 13.9225C11.0714 13.1049 12.4994 12.2789 13.9246 11.4473C14.535 11.0917 14.6666 10.3245 14.2242 9.81485C14.101 9.67205 13.9358 9.58805 13.7818 9.49005C13.7202 9.45085 13.6446 9.42285 13.611 9.35005C13.5942 9.22405 13.6782 9.14565 13.7566 9.07285C14.1374 8.71165 14.5266 8.36165 14.913 8.00885C15.305 7.65045 15.697 7.29485 16.0918 6.93645C16.6714 6.41005 17.2482 5.88085 17.8278 5.35725C18.1722 5.04645 18.5054 4.72725 18.8526 4.42205C19.0178 4.27645 19.0514 4.27365 19.2082 4.42765C19.3062 4.52285 19.4014 4.62085 19.4994 4.71605C19.7066 4.95125 19.967 5.13605 20.1378 5.40485Z" fill="white"/>
<path d="M9.60894 18.1346C9.46334 18.1318 9.31774 18.129 9.17214 18.129C9.14974 18.0366 9.22254 17.9918 9.27294 17.9442C9.84694 17.3898 10.4461 16.8662 11.0313 16.3258C11.4121 15.9758 11.7957 15.6286 12.1793 15.2786C12.7533 14.755 13.3217 14.2286 13.9013 13.7106C14.2569 13.3914 14.6041 13.0666 14.9569 12.7446C15.5505 12.2042 16.1441 11.6638 16.7377 11.1206C17.2641 10.639 17.7905 10.1546 18.3197 9.67295C18.9301 9.11855 19.5321 8.55575 20.1481 8.00975C20.2125 7.95375 20.2797 7.88095 20.3805 7.93975C20.4365 8.89455 20.5009 9.84655 20.4617 10.8042C20.0921 11.1766 19.6917 11.5154 19.3081 11.871C18.9133 12.235 18.5157 12.599 18.1153 12.9574C17.5525 13.4614 16.9981 13.9766 16.4381 14.4834C16.0797 14.8082 15.7213 15.133 15.3657 15.4606C14.7805 16.001 14.1897 16.5358 13.5989 17.0706C13.2853 17.3534 12.9773 17.6446 12.6665 17.9274C12.6469 17.9442 12.6301 17.9666 12.6329 18.003C12.6749 18.0702 12.7813 18.017 12.8233 18.0926C12.3753 18.1542 11.9245 18.129 11.4737 18.1318C10.8521 18.1598 10.2305 18.1626 9.60894 18.1346Z" fill="white"/>
<path d="M20.3785 7.94538C20.1657 7.97898 20.0537 8.16658 19.9081 8.28698C19.5469 8.58658 19.2137 8.91698 18.8693 9.23338C18.1273 9.91098 17.3769 10.5802 16.6405 11.2634C16.3073 11.5742 15.9685 11.8766 15.6325 12.1846C14.8793 12.879 14.1261 13.5762 13.3561 14.2566C13.0005 14.573 12.6561 14.9006 12.3061 15.2226C11.5669 15.8946 10.8193 16.5554 10.0941 17.2414C9.78333 17.5354 9.43613 17.793 9.17013 18.1346C8.47293 18.1486 7.77853 18.101 7.08413 18.0478C7.08413 17.9806 7.07853 17.9106 7.13733 17.8574C7.63853 17.4094 8.13973 16.9614 8.63813 16.5134C8.82013 16.351 8.99933 16.183 9.17853 16.0178C9.88693 15.3626 10.5953 14.7074 11.3065 14.055C11.7657 13.6322 12.2193 13.201 12.6925 12.795C13.2021 12.3582 13.6585 11.8598 14.2101 11.4706C14.4145 11.325 14.5489 11.1038 14.7393 10.9386C15.3161 10.4318 15.8649 9.89418 16.4333 9.37898C17.0689 8.80498 17.7017 8.23098 18.3289 7.64858C18.8917 7.12498 19.4657 6.61818 20.0341 6.10298C20.0873 6.05538 20.1377 6.01618 20.2133 6.02458C20.3001 6.66018 20.3589 7.30138 20.3785 7.94538Z" fill="white"/>
<path d="M8.18231 13.7137C8.06751 13.6997 7.98071 13.7389 7.89111 13.8201C7.13791 14.5145 6.37911 15.2005 5.62311 15.8921C5.24231 16.2393 4.86711 16.5921 4.48911 16.9449C4.28471 17.1325 4.08591 17.3313 3.87031 17.5049C3.76671 17.5889 3.74991 17.6589 3.81151 17.7625C3.07791 17.7065 2.34431 17.6533 1.74791 17.1409C1.45111 16.8861 1.20191 16.5949 1.07031 16.2169C1.17391 15.9313 1.44831 15.7997 1.63871 15.5953C1.82911 15.3937 2.05591 15.2285 2.26311 15.0409C2.98831 14.3745 3.71071 13.7025 4.43591 13.0361C4.88671 12.6217 5.34031 12.2129 5.79111 11.8013C6.42951 11.2189 7.06511 10.6365 7.70351 10.0569C7.77351 9.99526 7.84631 9.93086 7.94431 9.91406C8.02831 9.99806 8.00311 10.1045 8.00311 10.2053C8.00591 11.0789 8.00311 11.9497 8.00591 12.8233C8.00591 12.9129 7.99751 12.9997 8.01991 13.0865C8.04511 13.2405 8.08711 13.3889 8.15711 13.5289C8.18231 13.5793 8.22151 13.6409 8.18231 13.7137Z" fill="white"/>
<path d="M19.483 4.75114C19.3654 4.63914 19.2422 4.52994 19.1274 4.41514C19.063 4.34794 19.0154 4.33954 18.9426 4.40954C18.4414 4.87714 17.9374 5.33914 17.4306 5.80114C16.7586 6.41154 16.081 7.01354 15.4062 7.62394C15.045 7.95154 14.6894 8.28474 14.3282 8.61794C14.149 8.78314 13.9698 8.95114 13.7906 9.11354C13.7178 9.17794 13.6618 9.25354 13.6282 9.34314C13.5526 9.38234 13.4966 9.33194 13.4406 9.29834C12.665 8.86154 11.9006 8.40234 11.1222 7.96554C11.0606 7.92914 10.985 7.89834 10.971 7.81154C10.9654 7.70514 11.0326 7.63794 11.1026 7.57354C11.5338 7.17314 11.9622 6.76714 12.4018 6.37234C13.2026 5.64994 13.9978 4.92474 14.7902 4.19394C15.1682 3.84674 15.5546 3.50794 15.927 3.15234C16.7586 3.21674 17.5958 3.26154 18.4078 3.45474C19.0462 3.60594 19.5362 3.99794 19.8498 4.58874C19.7406 4.65874 19.637 4.76234 19.483 4.75114Z" fill="white"/>
<path d="M8.10562 2.94835C8.04682 3.13595 7.88162 3.23675 7.75282 3.35715C7.39162 3.69595 7.01362 4.01515 6.64682 4.34835C5.88242 5.04275 5.12082 5.73715 4.35922 6.43155C3.98402 6.77595 3.61442 7.12595 3.23642 7.46755C2.52242 8.11995 1.80842 8.76395 1.09442 9.41355C0.982422 9.51435 0.878822 9.62355 0.775222 9.72995C0.722022 9.78595 0.668822 9.83635 0.582022 9.82515C0.568022 9.03555 0.632422 8.24875 0.685622 7.45915C0.727622 6.84315 0.808822 6.22715 0.856422 5.61115C0.948822 4.41555 1.90642 3.45235 3.10482 3.35155C3.79362 3.29275 4.47962 3.18915 5.17122 3.12195C5.76762 3.06315 6.36402 3.02115 6.96042 2.98755C7.34402 2.97355 7.72482 2.92315 8.10562 2.94835Z" fill="white"/>
<path d="M12.824 18.0959C12.7344 18.0595 12.5832 18.1519 12.5524 18.0371C12.5244 17.9279 12.6672 17.8719 12.7484 17.8019C13.0984 17.4883 13.4372 17.1691 13.7844 16.8527C14.532 16.1723 15.2796 15.4919 16.0272 14.8115C16.3688 14.5007 16.7048 14.1871 17.0464 13.8763C17.7996 13.1903 18.5556 12.5099 19.3032 11.8183C19.6308 11.5131 19.9556 11.2051 20.2944 10.9139C20.3448 10.8691 20.3812 10.8047 20.4596 10.8047C20.4596 10.9811 20.4568 11.1603 20.4568 11.3367C20.4148 11.5719 20.4708 11.8099 20.426 12.0423C20.4288 12.7227 20.384 13.4003 20.3 14.0779C19.936 14.4447 19.544 14.7835 19.1604 15.1307C18.7964 15.4611 18.4352 15.7887 18.0712 16.1191C17.5224 16.6203 16.968 17.1131 16.4304 17.6255C16.3688 17.6815 16.2792 17.7347 16.338 17.8467C16.044 17.9195 15.736 17.9223 15.4308 17.9475C14.5628 18.0175 13.6948 18.0959 12.824 18.0959Z" fill="white"/>
<path d="M16.3413 17.8508C16.2629 17.848 16.1957 17.834 16.2657 17.736C16.3021 17.6856 16.3441 17.6436 16.3917 17.6016C17.1449 16.9156 17.8981 16.2324 18.6485 15.5464C19.0405 15.188 19.4213 14.8212 19.8161 14.4684C19.9701 14.3284 20.1073 14.166 20.3033 14.082C20.2809 14.6588 20.2389 15.2384 20.1185 15.804C19.9057 16.8064 19.0825 17.54 18.0465 17.6744C17.4809 17.7472 16.9153 17.8312 16.3413 17.8508Z" fill="white"/>
<path d="M19.4824 4.75182C19.6112 4.70422 19.7008 4.57542 19.8548 4.58662C20.0144 4.83862 20.1152 5.10742 20.1376 5.40702C19.9024 5.20542 19.684 4.98702 19.4824 4.75182Z" fill="white"/>
<path d="M9.60938 18.1367C10.231 18.1367 10.8526 18.1367 11.4742 18.1367C11.0906 18.1899 10.7014 18.1619 10.3178 18.1619C10.0798 18.1647 9.84177 18.1899 9.60938 18.1367Z" fill="white"/>
<path d="M12.8608 2.94371C12.7124 2.96331 12.5584 2.92131 12.41 2.97731C12.3512 2.99971 12.3093 2.96051 12.2812 2.91291C12.4745 2.91291 12.6704 2.88491 12.8608 2.94371Z" fill="white"/>
<path d="M20.4264 12.0454C20.4348 11.8102 20.3816 11.5722 20.4572 11.3398C20.4572 11.575 20.4824 11.813 20.4264 12.0454Z" fill="white"/>
<path d="M7.97465 7.90625C7.97465 9.65065 7.97465 11.3951 7.97745 13.1423C7.91585 13.0723 7.94385 12.9855 7.94385 12.9071C7.94105 11.9075 7.94105 10.9106 7.94105 9.91105C7.94105 9.31465 7.94105 8.71825 7.94385 8.12185C7.94385 8.04905 7.91865 7.97065 7.97465 7.90625Z" fill="white"/>
</g>
<defs>
<clipPath id="clip0_4869_66175">
<rect width="21" height="21" fill="white"/>
</clipPath>
</defs>
</svg>
