<svg width="28" height="33" viewBox="0 0 28 33" fill="none" xmlns="http://www.w3.org/2000/svg">
<path d="M3.94605 12.1577C1.78538 13.9803 1.35387 17.3262 2.99979 19.7114C3.4683 20.3908 4.14331 20.9415 4.74743 21.528C5.06491 21.8333 5.23443 22.1625 5.11114 22.5845C4.99093 22.9855 4.69504 23.2608 4.26968 23.2608C3.99536 23.2608 3.67789 23.1621 3.45597 23.0035C-0.914676 19.9149 -1.17975 13.8606 2.88883 10.4159C3.04294 10.2873 3.19706 10.1586 3.35734 10.0389C4.08167 9.50017 4.62723 9.58696 5.11422 10.3262C6.34404 12.1877 7.57078 14.0551 8.79752 15.9196C9.79926 17.4399 10.7979 18.9603 11.7996 20.4776C11.8736 20.5883 11.9568 20.696 12.0586 20.8397C13.1682 19.7623 13.8339 18.5083 13.9541 17.015C14.1329 14.7794 13.2021 13.0137 11.4544 11.6011C11.2233 11.4155 10.9828 11.1791 10.8842 10.9157C10.7301 10.5177 10.8842 10.1376 11.2541 9.87426C11.6178 9.61688 12.0616 9.62885 12.4716 9.92514C13.8309 10.9098 14.8542 12.1517 15.4552 13.696C16.7713 17.0778 15.5508 20.9145 12.4962 23.0364C11.8859 23.4613 11.3157 23.3386 10.878 22.6743C8.89924 19.6755 6.92351 16.6708 4.94778 13.6721C4.62414 13.1812 4.29742 12.6874 3.94605 12.1577Z" fill="white"/>
<path d="M28.0001 16.9811C27.9076 22.5027 26.0398 27.8836 21.925 32.4596C21.737 32.6661 21.4873 32.8696 21.2253 32.9534C20.8061 33.085 20.4239 32.9324 20.165 32.5643C19.9092 32.2022 19.9369 31.7682 20.2513 31.3852C20.7167 30.8165 21.2222 30.2749 21.6599 29.6853C24.5603 25.7887 25.9535 21.4103 25.9751 16.6219C25.9966 11.3996 24.4278 6.68599 21.0835 2.56497C20.8431 2.26869 20.578 1.98737 20.3284 1.69707C19.8876 1.18531 19.8907 0.625667 20.3345 0.242595C20.7691 -0.131499 21.3733 -0.071644 21.8233 0.413182C23.7897 2.53205 25.2754 4.93822 26.3203 7.59578C27.4484 10.4539 27.9785 13.4227 28.0001 16.9811Z" fill="white"/>
<path d="M20.0076 16.8405C19.9583 12.6626 18.8425 9.19102 16.3151 6.19229C15.8712 5.66556 15.9082 5.07001 16.3891 4.70788C16.8576 4.35474 17.4216 4.45051 17.8655 4.97124C20.1679 7.67669 21.4594 10.7981 21.8632 14.2697C22.3563 18.5194 21.5426 22.5058 19.234 26.1689C18.821 26.8243 18.3247 27.4378 17.8377 28.0454C17.4216 28.5631 16.8175 28.6289 16.3613 28.2578C15.9236 27.8987 15.8743 27.3211 16.2843 26.8423C18.2446 24.5379 19.3881 21.8893 19.8165 18.9444C19.9337 18.1364 19.9645 17.3163 20.0076 16.8405Z" fill="white"/>
</svg>
