<svg width="35" height="35" viewBox="0 0 35 35" fill="none" xmlns="http://www.w3.org/2000/svg">
<g clip-path="url(#clip0_2925_28610)">
<g filter="url(#filter0_i_2925_28610)">
<path d="M7.91665 0H27.0834C31.4584 0 35 3.54167 35 7.91665V27.0834C35 31.4584 31.4584 35 27.0834 35H7.91665C3.54167 35 0 31.4584 0 27.0834V7.91665C0 3.54167 3.54167 0 7.91665 0Z" fill="url(#paint0_linear_2925_28610)"/>
<path fill-rule="evenodd" clip-rule="evenodd" d="M17.5 26.7691C24.5071 26.7691 30.1875 22.1477 30.1875 16.447C30.1875 10.7463 24.5071 6.125 17.5 6.125C10.4929 6.125 4.8125 10.7463 4.8125 16.447C4.8125 20.2333 7.31832 23.5435 11.0544 25.3397C11.1013 26.1595 10.7804 27.8225 9.11334 28.4894C10.1702 28.5599 12.6812 27.8686 14.1961 26.4156C15.2495 26.6461 16.3571 26.7691 17.5 26.7691Z" fill="white"/>
</g>
</g>
<defs>
<filter id="filter0_i_2925_28610" x="0" y="-1" width="35" height="36" filterUnits="userSpaceOnUse" color-interpolation-filters="sRGB">
<feFlood flood-opacity="0" result="BackgroundImageFix"/>
<feBlend mode="normal" in="SourceGraphic" in2="BackgroundImageFix" result="shape"/>
<feColorMatrix in="SourceAlpha" type="matrix" values="0 0 0 0 0 0 0 0 0 0 0 0 0 0 0 0 0 0 127 0" result="hardAlpha"/>
<feOffset dy="-1"/>
<feGaussianBlur stdDeviation="0.5"/>
<feComposite in2="hardAlpha" operator="arithmetic" k2="-1" k3="1"/>
<feColorMatrix type="matrix" values="0 0 0 0 0 0 0 0 0 0 0 0 0 0 0 0 0 0 0.12 0"/>
<feBlend mode="normal" in2="shape" result="effect1_innerShadow_2925_28610"/>
</filter>
<linearGradient id="paint0_linear_2925_28610" x1="17.5" y1="0" x2="17.5" y2="35" gradientUnits="userSpaceOnUse">
<stop stop-color="#8BFB6B"/>
<stop offset="1" stop-color="#19DB1C"/>
</linearGradient>
<clipPath id="clip0_2925_28610">
<rect width="35" height="35" fill="white"/>
</clipPath>
</defs>
</svg>
