<svg width="35" height="35" viewBox="0 0 35 35" fill="none" xmlns="http://www.w3.org/2000/svg">
<g clip-path="url(#clip0_2925_28686)">
<g filter="url(#filter0_i_2925_28686)">
<path d="M7.91665 0H27.0834C31.4584 0 35 3.54167 35 7.91665V27.0834C35 31.4584 31.4584 35 27.0834 35H7.91665C3.54167 35 0 31.4584 0 27.0834V7.91665C0 3.54167 3.54167 0 7.91665 0Z" fill="url(#paint0_linear_2925_28686)"/>
<path d="M25.9236 11.5254C25.9006 11.6695 25.8743 11.8168 25.8447 11.9681C24.8291 17.081 21.3543 18.8473 16.9164 18.8473H14.6568C14.1141 18.8473 13.6568 19.2337 13.5722 19.7587L12.4153 26.9526L12.0877 28.9918C12.0327 29.3364 12.3036 29.6471 12.6584 29.6471H16.666C17.1406 29.6471 17.5437 29.309 17.6184 28.8501L17.6578 28.6505L18.4124 23.9554L18.4609 23.6978C18.5348 23.2373 18.9387 22.8992 19.4133 22.8992H20.0127C23.8955 22.8992 26.9351 21.3535 27.8235 16.8806C28.1946 15.012 28.0025 13.4519 27.0205 12.3546C26.7233 12.0237 26.3546 11.7492 25.9236 11.5254Z" fill="#ADD0E5"/>
<path d="M24.8617 11.1094C24.7065 11.0652 24.5464 11.0249 24.3822 10.9886C24.2171 10.9532 24.048 10.9218 23.8739 10.8944C23.2647 10.7978 22.5972 10.752 21.882 10.752H15.8455C15.6969 10.752 15.5556 10.785 15.4292 10.8446C15.1509 10.9758 14.944 11.2342 14.8939 11.5506L13.6097 19.5254L13.5728 19.7581C13.6573 19.2332 14.1147 18.8468 14.6574 18.8468H16.917C21.3549 18.8468 24.8296 17.0797 25.8453 11.9676C25.8757 11.8163 25.9012 11.6689 25.9241 11.5248C25.6671 11.3912 25.3888 11.2769 25.0891 11.1795C25.0152 11.1553 24.9388 11.132 24.8617 11.1094Z" fill="#E6EFF6"/>
<path d="M14.8938 11.5506C14.9439 11.2342 15.1508 10.9759 15.4291 10.8454C15.5564 10.7859 15.6968 10.7528 15.8454 10.7528H21.8819C22.5971 10.7528 23.2646 10.7987 23.8738 10.8953C24.0479 10.9227 24.217 10.9541 24.3821 10.9895C24.5463 11.0257 24.7064 11.066 24.8616 11.1103C24.9388 11.1328 25.0151 11.1562 25.0899 11.1795C25.3895 11.2769 25.6679 11.3921 25.9249 11.5249C26.227 9.63545 25.9224 8.34893 24.8805 7.18405C23.7318 5.9016 21.6586 5.35254 19.0057 5.35254H11.3041C10.7622 5.35254 10.2999 5.73898 10.2161 6.26468L7.0082 26.2018C6.94498 26.5963 7.25534 26.9521 7.66095 26.9521H12.4158L13.6096 19.5255L14.8938 11.5506Z" fill="white"/>
</g>
</g>
<defs>
<filter id="filter0_i_2925_28686" x="0" y="-1" width="35" height="36" filterUnits="userSpaceOnUse" color-interpolation-filters="sRGB">
<feFlood flood-opacity="0" result="BackgroundImageFix"/>
<feBlend mode="normal" in="SourceGraphic" in2="BackgroundImageFix" result="shape"/>
<feColorMatrix in="SourceAlpha" type="matrix" values="0 0 0 0 0 0 0 0 0 0 0 0 0 0 0 0 0 0 127 0" result="hardAlpha"/>
<feOffset dy="-1"/>
<feGaussianBlur stdDeviation="0.5"/>
<feComposite in2="hardAlpha" operator="arithmetic" k2="-1" k3="1"/>
<feColorMatrix type="matrix" values="0 0 0 0 0 0 0 0 0 0 0 0 0 0 0 0 0 0 0.12 0"/>
<feBlend mode="normal" in2="shape" result="effect1_innerShadow_2925_28686"/>
</filter>
<linearGradient id="paint0_linear_2925_28686" x1="3.70588" y1="1.85294" x2="32.7353" y2="33.3529" gradientUnits="userSpaceOnUse">
<stop stop-color="#002B6F"/>
<stop offset="1" stop-color="#0097D9"/>
</linearGradient>
<clipPath id="clip0_2925_28686">
<rect width="35" height="35" fill="white"/>
</clipPath>
</defs>
</svg>
