<svg width="35" height="35" viewBox="0 0 35 35" fill="none" xmlns="http://www.w3.org/2000/svg">
<g clip-path="url(#clip0_2925_28546)">
<g filter="url(#filter0_i_2925_28546)">
<path d="M7.91665 0H27.0834C31.4584 0 35 3.54167 35 7.91665V27.0834C35 31.4584 31.4584 35 27.0834 35H7.91665C3.54167 35 0 31.4584 0 27.0834V7.91665C0 3.54167 3.54167 0 7.91665 0Z" fill="#FFFEFF"/>
<path d="M17.5115 3.29395C9.65966 3.29395 3.29395 9.64919 3.29395 17.4881C3.29395 23.5046 7.03846 28.6449 12.3277 30.7127C12.1989 29.5912 12.0936 27.8622 12.3744 26.6355C12.6319 25.5257 14.0361 19.5793 14.0361 19.5793C14.0361 19.5793 13.6148 18.7265 13.6148 17.4765C13.6148 15.5021 14.7616 14.0301 16.1892 14.0301C17.4062 14.0301 17.9913 14.9414 17.9913 16.0279C17.9913 17.2428 17.219 19.0653 16.8094 20.7592C16.47 22.1728 17.5232 23.3294 18.9157 23.3294C21.4433 23.3294 23.3857 20.6658 23.3857 16.8339C23.3857 13.4343 20.9401 11.0628 17.4413 11.0628C13.3925 11.0628 11.017 14.0885 11.017 17.2194C11.017 18.4344 11.4851 19.7428 12.0702 20.4555C12.1872 20.5957 12.1989 20.7242 12.1638 20.8644C12.0585 21.3083 11.8128 22.2779 11.766 22.4766C11.7075 22.7336 11.5553 22.792 11.2862 22.6635C9.50754 21.834 8.3959 19.2522 8.3959 17.161C8.3959 12.6867 11.649 8.57443 17.7923 8.57443C22.7187 8.57443 26.5569 12.0792 26.5569 16.7755C26.5569 21.6705 23.4676 25.6074 19.1848 25.6074C17.7455 25.6074 16.3881 24.8598 15.9318 23.9719C15.9318 23.9719 15.218 26.6823 15.0424 27.3482C14.7265 28.5865 13.8606 30.1286 13.2755 31.0749C14.6095 31.4837 16.0137 31.7057 17.4881 31.7057C25.3399 31.7057 31.7056 25.3505 31.7056 17.5115C31.729 9.64919 25.3633 3.29395 17.5115 3.29395Z" fill="#E60023"/>
</g>
</g>
<defs>
<filter id="filter0_i_2925_28546" x="0" y="-1" width="35" height="36" filterUnits="userSpaceOnUse" color-interpolation-filters="sRGB">
<feFlood flood-opacity="0" result="BackgroundImageFix"/>
<feBlend mode="normal" in="SourceGraphic" in2="BackgroundImageFix" result="shape"/>
<feColorMatrix in="SourceAlpha" type="matrix" values="0 0 0 0 0 0 0 0 0 0 0 0 0 0 0 0 0 0 127 0" result="hardAlpha"/>
<feOffset dy="-1"/>
<feGaussianBlur stdDeviation="0.5"/>
<feComposite in2="hardAlpha" operator="arithmetic" k2="-1" k3="1"/>
<feColorMatrix type="matrix" values="0 0 0 0 0 0 0 0 0 0 0 0 0 0 0 0 0 0 0.12 0"/>
<feBlend mode="normal" in2="shape" result="effect1_innerShadow_2925_28546"/>
</filter>
<clipPath id="clip0_2925_28546">
<rect width="35" height="35" fill="white"/>
</clipPath>
</defs>
</svg>
