<svg width="20" height="20" viewBox="0 0 20 20" fill="none" xmlns="http://www.w3.org/2000/svg">
<path d="M4.03418 14.1416V15.5679C4.03418 15.6734 4.07608 15.7745 4.15067 15.8491C4.22526 15.9237 4.32642 15.9656 4.43191 15.9656H5.85816C5.96344 15.9656 6.06441 15.9238 6.13895 15.8495L12.9003 9.08811L10.9117 7.09947L4.15032 13.8608C4.07597 13.9354 4.0342 14.0364 4.03418 14.1416ZM12.458 5.55311L14.4467 7.54175L15.4036 6.58482C15.5527 6.43565 15.6365 6.23336 15.6365 6.02243C15.6365 5.8115 15.5527 5.60921 15.4036 5.46004L14.5397 4.59618C14.3906 4.44705 14.1883 4.36328 13.9774 4.36328C13.7664 4.36328 13.5641 4.44705 13.415 4.59618L12.458 5.55311Z" stroke="black"/>
</svg>
