<svg width="20" height="20" viewBox="0 0 20 20" fill="none" xmlns="http://www.w3.org/2000/svg">
<path d="M6.51255 16.1805C6.15619 16.1805 5.85285 16.0558 5.60255 15.8064C5.35225 15.557 5.2271 15.255 5.2271 14.9004V5.08363H4.43164V4.29099H7.61346V3.68066H12.3862V4.29099H15.568V5.08363H14.7726V14.9004C14.7726 15.265 14.6501 15.5696 14.4051 15.8143C14.1601 16.059 13.8541 16.181 13.4871 16.1805H6.51255ZM13.9771 5.08363H6.02255V14.9004C6.02255 15.0425 6.06842 15.1593 6.16016 15.2507C6.25191 15.3422 6.36937 15.3879 6.51255 15.3879H13.4879C13.6099 15.3879 13.722 15.3371 13.8244 15.2357C13.9267 15.1342 13.9776 15.0222 13.9771 14.8996V5.08363ZM8.25619 13.8026H9.05164V6.66889H8.25619V13.8026ZM10.948 13.8026H11.7435V6.66889H10.948V13.8026Z" fill="black"/>
</svg>
