<svg width="262" height="260" viewBox="0 0 262 260" fill="none" xmlns="http://www.w3.org/2000/svg">
<path d="M110.459 35.403V19.8271H117.207V35.403H110.459Z" fill="black" stroke="black"/>
<path d="M162.947 26.5409V19.8271H171.039V26.5409H162.947Z" fill="black" stroke="black"/>
<path d="M127.351 26.5409V19.8271H135.442V26.5409H127.351Z" fill="black" stroke="black"/>
<path d="M92.0278 34.83V28.1162H100.119V34.83H92.0278Z" fill="black" stroke="black"/>
<path d="M74.69 232.594H75.19V232.094V187.096V186.596H74.69H28.2042H27.7042V187.096V232.094V232.594H28.2042H74.69ZM74.69 179.883H81.9376V187.096V232.094V239.307H74.69H28.2042H20.9565V232.094V187.096V179.883H28.2042H74.69Z" fill="black" stroke="black"/>
<path d="M38.6294 222.354V196.836H64.264V222.354H38.6294Z" fill="black" stroke="black"/>
<path d="M180.192 150.466V150.966H180.692H189.284V157.68H171.75V150.539V150.039H171.25H162.417H161.917V150.539V157.68H145.773V150.966H154.648H155.148V150.466V143.325H162.419H162.919V142.825V134.611H171.01V142.825V143.325H171.51H180.192V150.466Z" fill="black" stroke="black"/>
<path d="M171.971 132.068V125.354H189.122V132.068H171.971Z" fill="black" stroke="black"/>
<path d="M162.58 107.724H163.08V107.224V98.8906H169.827V107.224V107.724H170.327H180.191V114.438H170.327H169.827V114.938V124.354H163.062V114.938V114.438H162.562H155.147V107.724H162.58Z" fill="black" stroke="black"/>
<path d="M154.959 89.2458V81.6172H161.707V89.2458H154.959Z" fill="black" stroke="black"/>
<path d="M99.2755 69.9888H98.7755V70.4888V79.2527H92.0278V63.2751H93.8088H99.2755H100.769H101.269V62.7751V53.3329V52.8329H100.769H92.0278V46.1191H117.391V52.8329H108.517H108.017V53.3329V62.7751V68.4506V69.9888H99.2755Z" fill="black" stroke="black"/>
<path d="M164.002 53.3331V52.8331H163.502H127.697V51.7275V45.6193V35.6516H134.445V45.6193V46.1193H134.945H145.417H145.917V45.6193V28.1162H161.707V45.6193V46.1193H162.207H163.502H170.75V53.3331V62.7753V70.489V79.2529H164.002V70.489V69.989H163.502H153.165H152.665V70.489V79.2529H145.917V70.489V64.478V63.2753H163.502H164.002V62.7753V53.3331Z" fill="black" stroke="black"/>
<path d="M208.385 143.651H208.885V143.151V134.55H215.633V159.466H208.885V150.865V150.365H208.385H200.236V143.651H208.385Z" fill="black" stroke="black"/>
<path d="M206.267 97.0155V90.3018H214.358V97.0155H206.267Z" fill="black" stroke="black"/>
<path d="M188.813 141.463V134.749H196.905V141.463H188.813Z" fill="black" stroke="black"/>
<path d="M190.123 97.0155V90.3018H198.214V97.0155H190.123Z" fill="black" stroke="black"/>
<path d="M171.683 97.0155V90.3018H179.774V97.0155H171.683Z" fill="black" stroke="black"/>
<path d="M74.69 72.5379H75.19V72.0379V27.0409V26.5409H74.69H28.2042H27.7042V27.0409V72.0379V72.5379H28.2042H74.69ZM20.9565 27.0409V19.8271H28.2042H74.69H81.9376V27.0409V72.0379V79.2516H74.69H28.2042H20.9565V72.0379V27.0409Z" fill="black" stroke="black"/>
<path d="M38.6294 62.2985V36.7803H64.264V62.2985H38.6294Z" fill="black" stroke="black"/>
<path d="M197.128 62.2985V36.7803H222.763V62.2985H197.128Z" fill="black" stroke="black"/>
<path d="M134.45 106.267H133.95V106.767V113.335H127.817V106.767V99.6997V99.5535H136.146H136.646V99.0535V90.2432H143.894H153.919V96.9569H143.894H143.394V97.4569V99.0535V103.878V106.267H134.45Z" fill="black" stroke="black"/>
<path d="M117.39 80.4695V80.9695H117.89H121.054H125.138V98.3294H118.39V88.1833V87.6833H117.89H110.142H108.516H108.016V88.1833V96.9581H101.079H100.769H73.8452V90.2443H100.769H101.269V89.7443V80.9695H103.05H108.516H110.142H110.642V80.4695V71.9844H117.39V80.4695Z" fill="black" stroke="black"/>
<path d="M110.416 115.264V99.3311H117.163V115.264H110.416Z" fill="black" stroke="black"/>
<path d="M145.335 125.355H145.835V124.855V116.505H152.582V124.855V130.948V132.068H127.768V131.239V124.855V116.796H134.516V124.855V125.355H135.016H145.335Z" fill="black" stroke="black"/>
<path d="M73.8452 150.864V144.15H81.9366V150.864H73.8452Z" fill="black" stroke="black"/>
<path d="M56.5205 159.55V152.836H72.8451V159.55H56.5205Z" fill="black" stroke="black"/>
<path d="M73.3461 114.436H72.8461V114.936V124.708V125.208H73.3461H81.9375V131.922H73.3461H72.8461V132.422V142.662H56.5217V132.422V131.922H56.0217H46.5818H46.0818V132.422V142.216H39.3342V132.422V131.922H38.8342H28.5329V131.761V131.261H28.5319V115.129V114.629H28.0319H20.9565V97.0126V89.7988H28.2384H64.2643V96.5126H28.2384H27.7384V97.0126V107.222V107.722H28.2384H35.4517V124.708V125.208H35.9517H47.3594H47.8594V124.708V115.436H56.0217H56.5217V114.936V107.722H99.8296V114.473V114.936V124.708V125.208H100.33H117.391V131.922H108.619H108.119V132.422V143.648V150.861H99.4247H98.9247V151.361V187.262H92.177V144.148H99.4247H100.854H101.354V143.648V132.422V131.922H100.854H93.082V129.165V124.708V114.936V114.436H92.582H73.3461ZM28.2286 152.824H39.2512V159.555H28.2286H27.7286V160.055V168.155H20.9565V132.922H27.7286V152.324V152.824H28.2286Z" fill="black" stroke="black"/>
<path d="M73.8452 168.155V161.441H81.9366V168.155H73.8452Z" fill="black" stroke="black"/>
<path d="M38.6616 168.155V161.441H46.753V168.155H38.6616Z" fill="black" stroke="black"/>
<path d="M99.4229 212.952H98.9229V213.452V232.094V232.594H99.4229H117.191V239.307H99.4229H98.9583H92.1753V196.836H98.9229V205.738V206.238H99.4229H126.556V212.952H99.4229Z" fill="black" stroke="black"/>
<path d="M163.412 228.381V221.667H179.561V228.381H163.412Z" fill="black" stroke="black"/>
<path d="M232.688 107.821V108.321H233.188H240.436V133.547H233.188H232.688V134.047V143.149V143.649H233.188H240.436V159.464H233.688V151.22V150.72H233.188H225.941V132.567V132.067H225.441H216.977V125.353H233.188H233.688V124.853V116.028V115.528H233.188H225.941V90.3018H232.688V107.821Z" fill="black" stroke="black"/>
<path d="M222.539 204.05V204.55H223.039H233.311H240.435V232.094V235.951V239.308H189.301V232.737V232.094V227.042V221.166V213.952H195.926V221.166V221.666H196.426H214.915V232.094V232.594H215.415H233.311H233.811V232.094V211.764V211.264H233.311H216.935V204.05V203.55H216.435H187.395H186.895V204.05V212.952H180.271V204.05V203.55H179.771H170.837H170.337V204.05V212.952H163.713V204.05V203.55H163.213H143.658H143.158V204.05V213.452V213.952H143.658H152.324V216.486V221.166V232.094V233.56V239.308H136.448V232.594H145.2H145.7V232.094V221.166V220.666H145.2H134.774H134.274V221.166V228.38H118.397V221.666H127.115H127.615V221.166V213.952H136.033H136.533V213.452V204.05V203.55H136.033H127.615V196.836H163.212H163.712V196.336V177.763V177.263H163.212H155.002V170.55H163.212H163.712V170.05V168.9V161.72V161.687H205.786V168.023V168.9V169.589V170.089H206.286H214.772H215.272V169.589V161.916H221.897V178.427V178.927H222.397H234.706H239.181H240.435V195.836H239.181H234.706H223.039H222.897V187.097V186.597H222.397H214.772H214.272V187.097V196.336V196.836H214.772H222.397H222.539V204.05ZM198.488 170.089H198.491L198.491 169.589L198.491 168.9L198.49 168.4H197.991H170.837H170.337V168.9V196.336V196.836H170.837H197.988H198.488V196.336V170.089Z" fill="black" stroke="black"/>
<path d="M125.375 161.417V161.917H125.875H144.264V177.765V178.265H144.764H154.003V184.979H135.988V177.765V177.265H135.488H126.25V169.127V168.627H125.75H118.628V159.815V159.315H118.128H110.471V152.601H118.128H118.628V152.101V144.15H125.411H125.875H135.621V150.864H125.875H125.375V151.364V161.417Z" fill="black" stroke="black"/>
<path d="M195.708 114.375V107.661H214.358V114.375H195.708Z" fill="black" stroke="black"/>
<path d="M118.149 195.085V188.371H126.24V195.085H118.149Z" fill="black" stroke="black"/>
<path d="M99.7773 195.085V188.371H107.869V195.085H99.7773Z" fill="black" stroke="black"/>
<path d="M186.703 26.5409H186.203V27.0409V72.0379V72.5379H186.703H233.189H233.689V72.0379V27.0409V26.5409H233.189H186.703ZM240.436 72.0379V79.2516H233.189H186.703H179.455V72.0379V27.0409V19.8271H186.703H209.946H233.189H240.436V21.8401V27.0409V72.0379Z" fill="black" stroke="black"/>
<line x1="1" y1="259.501" x2="74.2595" y2="259.501" stroke="black" stroke-opacity="0.5" stroke-dasharray="2 2"/>
<line x1="0.5" y1="260.001" x2="0.500003" y2="186.741" stroke="black" stroke-opacity="0.5" stroke-dasharray="2 2"/>
<line y1="-0.5" x2="73.2595" y2="-0.5" transform="matrix(-1 -8.05668e-08 -8.05654e-08 1 261 260.001)" stroke="black" stroke-opacity="0.5" stroke-dasharray="2 2"/>
<line y1="-0.5" x2="73.2601" y2="-0.5" transform="matrix(-4.11397e-08 -1 -1 4.11405e-08 261 260.001)" stroke="black" stroke-opacity="0.5" stroke-dasharray="2 2"/>
<line y1="-0.5" x2="73.2595" y2="-0.5" transform="matrix(1 8.05668e-08 8.05654e-08 -1 1 0.000976562)" stroke="black" stroke-opacity="0.5" stroke-dasharray="2 2"/>
<line y1="-0.5" x2="73.2601" y2="-0.5" transform="matrix(4.11397e-08 1 1 -4.11405e-08 1 0.000976562)" stroke="black" stroke-opacity="0.5" stroke-dasharray="2 2"/>
</svg>
