<svg width="25" height="25" viewBox="0 0 25 25" fill="none" xmlns="http://www.w3.org/2000/svg">
<path d="M21.4979 14.7259L21.4458 14.2082L21.4302 14.2092L21.4125 14.2124L21.4979 14.7259ZM21.4979 14.7259L21.55 15.2447L21.5677 15.2426L21.5844 15.2395L21.4979 14.7259ZM17.2896 20.4363L17.6198 20.0332L17.6146 20.0301L17.2896 20.4363ZM17.2896 20.4363L16.9594 20.8395L16.9646 20.8436L17.2896 20.4363ZM7.71042 20.4363L7.38021 20.0342L7.37292 20.0405L7.36458 20.0478L7.71042 20.4363ZM7.71042 20.4363L8.04062 20.8405L8.04896 20.8332L8.05625 20.827L7.71042 20.4363ZM3.50104 10.2759V9.75508H3.47604L3.45 9.75716L3.50104 10.2759ZM3.50104 10.2759V10.7967H3.52708L3.55312 10.7936L3.50104 10.2759ZM15.2417 3.44987C15.2261 3.261 15.2042 3.0727 15.176 2.88529C15.1522 2.71945 15.1023 2.55844 15.0281 2.4082L14.1021 2.88633C14.1125 2.90716 14.1302 2.94883 14.1479 3.05716C14.1677 3.17174 14.1823 3.3207 14.2062 3.55299L15.2417 3.44987ZM15.4458 4.70299C15.4333 4.68737 15.3958 4.62383 15.3552 4.40091C15.3067 4.08529 15.2703 3.76809 15.2437 3.44987L14.2062 3.55299C14.2479 3.9707 14.2823 4.31654 14.3302 4.58529C14.3771 4.84779 14.45 5.11549 14.6177 5.33529L15.4458 4.70299ZM15.9292 4.90299C15.8381 4.91524 15.7455 4.9032 15.6606 4.86807C15.5757 4.83295 15.5016 4.776 15.4458 4.70299L14.6167 5.33424C14.7839 5.5536 15.0063 5.72476 15.2612 5.83033C15.516 5.9359 15.7943 5.97211 16.0677 5.93529L15.9292 4.90299ZM16.9583 4.16029C16.6198 4.43841 16.3885 4.62695 16.2062 4.75299C16.0198 4.88216 15.9479 4.89987 15.9292 4.90299L16.0677 5.93529C16.3406 5.89883 16.5812 5.76133 16.801 5.6082C17.025 5.45195 17.2927 5.2332 17.6187 4.96654L16.9583 4.16029ZM17.8458 3.57591C17.6792 3.62904 17.5385 3.71341 17.4052 3.8082C17.276 3.89987 17.1292 4.0207 16.9583 4.16029L17.6187 4.96654C17.799 4.81862 17.9156 4.72383 18.0094 4.65716C18.0559 4.61966 18.1079 4.58945 18.1635 4.56758L17.8458 3.57591ZM18.9427 3.63008C18.5957 3.47989 18.206 3.46065 17.8458 3.57591L18.1635 4.56758C18.2834 4.52964 18.4128 4.5363 18.5281 4.58633L18.9427 3.63008ZM19.7677 4.30091C19.6115 4.14466 19.4771 4.00924 19.3583 3.90508C19.2351 3.7921 19.0949 3.69929 18.9427 3.63008L18.5281 4.58633C18.55 4.5957 18.5896 4.61758 18.6729 4.69049C18.7594 4.76549 18.8656 4.87174 19.0312 5.03737L19.7677 4.30091ZM20.6979 5.23112L19.7677 4.30091L19.0312 5.03737L19.9615 5.96758L20.6979 5.23112ZM21.3687 6.05612C21.2992 5.90392 21.206 5.76365 21.0927 5.64049C20.9885 5.52174 20.8531 5.38737 20.6979 5.23112L19.9615 5.96758C20.1271 6.1332 20.2323 6.23945 20.3094 6.32591C20.3823 6.40924 20.4031 6.44883 20.4125 6.4707L21.3687 6.05612ZM21.4229 7.15299C21.5382 6.79286 21.5189 6.40315 21.3687 6.05612L20.4125 6.4707C20.4622 6.58612 20.4685 6.7156 20.4302 6.83529L21.4229 7.15299ZM20.8385 8.04049C20.9781 7.86966 21.099 7.72279 21.1906 7.59362C21.2844 7.46029 21.3698 7.31966 21.4229 7.15299L20.4302 6.83529C20.4087 6.89086 20.3788 6.94284 20.3417 6.98945C20.2424 7.1227 20.1393 7.25297 20.0323 7.38008L20.8385 8.04049ZM20.0958 9.06966C20.099 9.05091 20.1167 8.97904 20.2458 8.79258C20.3719 8.61029 20.5604 8.37904 20.8385 8.04049L20.0323 7.38008C19.7656 7.70612 19.5458 7.97383 19.3906 8.19779C19.2375 8.41654 19.1 8.6582 19.0635 8.93112L20.0958 9.06966ZM20.2958 9.55299C20.2228 9.49723 20.1659 9.42314 20.1308 9.33826C20.0956 9.25337 20.0836 9.16071 20.0958 9.06966L19.0635 8.93112C19.0269 9.20435 19.0632 9.48241 19.1688 9.73707C19.2743 9.99173 19.4454 10.2139 19.6646 10.3811L20.2958 9.55299ZM21.549 9.75612C21.1125 9.71237 20.8167 9.6832 20.5979 9.64362C20.375 9.60299 20.3115 9.56549 20.2958 9.55299L19.6646 10.3811C19.8833 10.5478 20.151 10.6207 20.4146 10.6686C20.6823 10.7165 21.0271 10.752 21.4458 10.7936L21.549 9.75612ZM22.5906 9.9707C22.4404 9.89655 22.2794 9.84663 22.1135 9.82279C21.9573 9.79674 21.7677 9.77799 21.549 9.75612L21.4448 10.7926C21.6781 10.8165 21.8271 10.8311 21.9417 10.8509C22.0006 10.8575 22.0582 10.873 22.1125 10.8967L22.5906 9.9707ZM23.3271 10.7842C23.188 10.4329 22.9264 10.1439 22.5906 9.9707L22.1125 10.8967C22.2245 10.9543 22.3118 11.0505 22.3583 11.1676L23.3271 10.7842ZM23.4365 11.8415C23.4365 11.6217 23.4365 11.4311 23.426 11.2728C23.419 11.1057 23.3856 10.9409 23.3271 10.7842L22.3583 11.1676C22.3667 11.1895 22.3792 11.2332 22.3865 11.3426C22.3946 11.5091 22.3974 11.6759 22.3948 11.8426L23.4365 11.8415ZM23.4365 13.1582V11.8415H22.3948V13.1582H23.4365ZM23.3271 14.2145C23.3917 14.052 23.4156 13.8895 23.426 13.7259C23.4365 13.5686 23.4365 13.378 23.4365 13.1582H22.3948C22.3948 13.3915 22.3948 13.5415 22.3865 13.6572C22.3859 13.7166 22.3765 13.7756 22.3583 13.8322L23.3271 14.2145ZM22.5906 15.029C22.9266 14.8556 23.1882 14.5661 23.3271 14.2145L22.3583 13.8322C22.3118 13.9492 22.2245 14.0454 22.1125 14.103L22.5906 15.029ZM21.549 15.2436C21.7677 15.2217 21.9583 15.202 22.1135 15.1759C22.275 15.1499 22.4344 15.1092 22.5896 15.0301L22.1125 14.103C22.0582 14.1268 22.0006 14.1422 21.9417 14.1488C21.8271 14.1686 21.6781 14.1832 21.4458 14.2072L21.549 15.2436ZM20.2969 15.4467C20.3125 15.4342 20.376 15.3957 20.599 15.3561C20.8177 15.3165 21.1135 15.2863 21.549 15.2436L21.4458 14.2072C21.0281 14.2488 20.6823 14.2822 20.4135 14.3311C20.151 14.378 19.8844 14.4509 19.6646 14.6176L20.2969 15.4467ZM20.0958 15.9301C20.0837 15.8389 20.0959 15.7462 20.1312 15.6613C20.1665 15.5764 20.2237 15.5024 20.2969 15.4467L19.6646 14.6176C19.4452 14.7849 19.2741 15.0072 19.1685 15.2621C19.0629 15.517 19.0267 15.7952 19.0635 16.0686L20.0958 15.9301ZM20.8385 16.9592C20.6324 16.7154 20.4347 16.4646 20.2458 16.2072C20.1167 16.0217 20.099 15.9488 20.0958 15.9301L19.0646 16.0697C19.101 16.3426 19.2385 16.5822 19.3906 16.802C19.5469 17.0249 19.7656 17.2936 20.0323 17.6186L20.8385 16.9592ZM21.4229 17.8467C21.3692 17.6882 21.2908 17.5392 21.1906 17.4051C21.0779 17.2528 20.9605 17.1041 20.8385 16.9592L20.0323 17.6186C20.1802 17.7999 20.275 17.9155 20.3417 18.0103C20.3787 18.0566 20.4085 18.1082 20.4302 18.1634L21.4229 17.8467ZM21.3687 18.9436C21.5189 18.5966 21.5382 18.2069 21.4229 17.8467L20.4302 18.1634C20.4687 18.2834 20.4624 18.4133 20.4125 18.529L21.3687 18.9436ZM20.699 19.7676C20.8542 19.6124 20.9885 19.478 21.0927 19.3592C21.201 19.2353 21.299 19.1051 21.3687 18.9436L20.4125 18.529C20.3852 18.5819 20.3501 18.6304 20.3083 18.6728C20.1963 18.7957 20.0806 18.9152 19.9615 19.0311L20.699 19.7676ZM19.7677 20.6988L20.699 19.7676L19.9615 19.0311L19.0312 19.9624L19.7677 20.6988ZM18.9427 21.3686C19.1031 21.2988 19.2344 21.202 19.3583 21.0936C19.4771 20.9895 19.6115 20.854 19.7677 20.6978L19.0312 19.9624C18.8656 20.128 18.7594 20.2332 18.6729 20.3092C18.6302 20.3511 18.5814 20.3862 18.5281 20.4134L18.9427 21.3686ZM17.8458 21.4238C18.2061 21.5388 18.5958 21.5191 18.9427 21.3686L18.5281 20.4134C18.4127 20.4631 18.2832 20.4694 18.1635 20.4311L17.8458 21.4238ZM16.9583 20.8384C17.1292 20.978 17.276 21.0988 17.4052 21.1905C17.5385 21.2853 17.6792 21.3707 17.8458 21.4238L18.1635 20.4311C18.108 20.4096 18.056 20.3797 18.0094 20.3426C17.8761 20.243 17.7458 20.1395 17.6187 20.0322L16.9583 20.8384ZM15.9292 20.0967C15.9479 20.0988 16.0208 20.1176 16.2062 20.2467C16.3885 20.3728 16.6198 20.5613 16.9583 20.8384L17.6187 20.0322C17.2927 19.7665 17.025 19.5467 16.801 19.3905C16.5823 19.2384 16.3406 19.1009 16.0677 19.0645L15.9292 20.0967ZM15.4458 20.2967C15.5016 20.2237 15.5757 20.1668 15.6606 20.1317C15.7455 20.0965 15.8381 20.0845 15.9292 20.0967L16.0677 19.0645C15.7946 19.0277 15.5166 19.0638 15.2619 19.1692C15.0073 19.2746 14.785 19.4455 14.6177 19.6645L15.4458 20.2967ZM15.2427 21.5499C15.2865 21.1134 15.3156 20.8176 15.3552 20.5988C15.3958 20.3759 15.4333 20.3124 15.4458 20.2967L14.6177 19.6645C14.451 19.8832 14.3781 20.152 14.3302 20.4145C14.2823 20.6822 14.2469 21.027 14.2052 21.4457L15.2427 21.5499ZM15.0281 22.5915C15.1083 22.4353 15.1479 22.2759 15.175 22.1145C15.2021 21.9582 15.2208 21.7686 15.2427 21.5499L14.2052 21.4457C14.1907 21.6119 14.1723 21.7776 14.1479 21.9426C14.1413 22.0015 14.1258 22.0591 14.1021 22.1134L15.0281 22.5915ZM14.2146 23.328C14.5659 23.1889 14.8549 22.9273 15.0281 22.5915L14.1021 22.1134C14.0445 22.2254 13.9483 22.3127 13.8312 22.3592L14.2146 23.328ZM13.1573 23.4374C13.3771 23.4374 13.5677 23.4374 13.726 23.427C13.8885 23.4165 14.0521 23.3926 14.2146 23.328L13.8312 22.3592C13.7747 22.3774 13.7157 22.3869 13.6562 22.3874C13.5417 22.3957 13.3906 22.3957 13.1562 22.3957L13.1573 23.4374ZM11.8406 23.4374H13.1573L13.1562 22.3957H11.8406V23.4374ZM10.7833 23.328C10.9469 23.3926 11.1094 23.4165 11.2729 23.427C11.4302 23.4374 11.6208 23.4374 11.8406 23.4374V22.3957C11.6073 22.3957 11.4573 22.3957 11.3417 22.3874C11.2823 22.3868 11.2233 22.3774 11.1667 22.3592L10.7833 23.328ZM9.96979 22.5915C10.143 22.9273 10.432 23.1889 10.7833 23.328L11.1667 22.3592C11.0496 22.3127 10.9534 22.2254 10.8958 22.1134L9.96979 22.5915ZM9.75521 21.5499C9.77708 21.7686 9.79688 21.9592 9.82187 22.1145C9.84896 22.2759 9.88958 22.4353 9.96979 22.5915L10.8958 22.1134C10.8721 22.0591 10.8566 22.0015 10.85 21.9426C10.8256 21.7779 10.8061 21.6126 10.7917 21.4467L9.75521 21.5499ZM9.55208 20.2967C9.56458 20.3124 9.60208 20.3759 9.64271 20.5988C9.68229 20.8176 9.71146 21.1145 9.75521 21.5499L10.7917 21.4467C10.75 21.029 10.7156 20.6832 10.6677 20.4145C10.6208 20.152 10.5479 19.8842 10.3802 19.6645L9.55208 20.2967ZM9.06875 20.0967C9.15979 20.0845 9.25246 20.0965 9.33734 20.1317C9.42223 20.1668 9.49631 20.2237 9.55208 20.2967L10.3802 19.6645C10.213 19.4453 9.99082 19.2752 9.73616 19.1697C9.48149 19.0641 9.20344 19.0278 8.93021 19.0645L9.06875 20.0967ZM8.03958 20.8395C8.37812 20.5613 8.60937 20.3728 8.79167 20.2467C8.97812 20.1176 9.05 20.0988 9.06875 20.0967L8.93021 19.0645C8.65729 19.1009 8.41667 19.2384 8.19687 19.3915C7.97292 19.5467 7.70521 19.7665 7.37917 20.0332L8.03958 20.8395ZM7.15208 21.4238C7.31875 21.3707 7.45937 21.2863 7.59271 21.1915C7.72187 21.0999 7.86875 20.979 8.03958 20.8395L7.37917 20.0332C7.25205 20.1402 7.12179 20.2433 6.98854 20.3426C6.94195 20.3798 6.88996 20.4096 6.83437 20.4311L7.15208 21.4238ZM6.05521 21.3707C6.40223 21.5209 6.79195 21.5391 7.15208 21.4238L6.83437 20.4311C6.71469 20.4694 6.5852 20.4631 6.46979 20.4134L6.05521 21.3707ZM5.23021 20.6988C5.38646 20.8551 5.52083 20.9905 5.63958 21.0947C5.7625 21.202 5.89479 21.3009 6.05521 21.3707L6.46979 20.4134C6.41652 20.3862 6.36769 20.3511 6.325 20.3092C6.20216 20.1972 6.08266 20.0815 5.96667 19.9624L5.23021 20.6988ZM4.3 19.7686L5.23021 20.6988L5.96667 19.9624L5.03646 19.0322L4.3 19.7686ZM3.62917 18.9436C3.69896 19.104 3.79688 19.2353 3.90521 19.3592C4.00938 19.478 4.14479 19.6124 4.3 19.7686L5.03646 19.0322C4.91696 18.9162 4.80094 18.7967 4.68854 18.6738C4.64669 18.6311 4.61157 18.5823 4.58437 18.529L3.62917 18.9436ZM3.575 17.8467C3.45974 18.2069 3.47898 18.5966 3.62917 18.9436L4.58437 18.529C4.53434 18.4138 4.52873 18.2843 4.56667 18.1645L3.575 17.8467ZM4.15937 16.9592C4.01979 17.1301 3.89896 17.277 3.80729 17.4061C3.70722 17.5399 3.62883 17.6886 3.575 17.8467L4.56667 18.1645C4.58854 18.1088 4.61875 18.0568 4.65625 18.0103C4.72292 17.9165 4.81771 17.7999 4.96563 17.6197L4.15937 16.9592ZM4.90208 15.9301C4.89896 15.9488 4.88125 16.0207 4.75208 16.2072C4.625 16.3895 4.4375 16.6207 4.15937 16.9592L4.96563 17.6197C5.23229 17.2936 5.45208 17.0259 5.60729 16.802C5.76042 16.5832 5.89792 16.3415 5.93437 16.0686L4.90208 15.9301ZM4.70208 15.4467C4.77508 15.5025 4.83204 15.5766 4.86716 15.6615C4.90229 15.7464 4.91433 15.839 4.90208 15.9301L5.93437 16.0686C5.97101 15.7954 5.9347 15.5173 5.82914 15.2627C5.72358 15.008 5.55252 14.7858 5.33333 14.6186L4.70208 15.4467ZM3.44896 15.2447C3.88542 15.2874 4.18125 15.3165 4.4 15.3561C4.62292 15.3967 4.68646 15.4342 4.70208 15.4467L5.33333 14.6176C5.11458 14.4509 4.84687 14.378 4.58333 14.3311C4.31562 14.2832 3.97083 14.2478 3.55208 14.2061L3.44896 15.2447ZM2.40729 15.029C2.56354 15.1092 2.72292 15.1488 2.88437 15.1759C3.04062 15.203 3.22917 15.2228 3.44896 15.2447L3.55312 14.2072C3.38695 14.1927 3.22125 14.1733 3.05625 14.1488C2.99733 14.1422 2.93974 14.1267 2.88542 14.103L2.40729 15.029ZM1.67083 14.2145C1.80967 14.5661 2.07133 14.8556 2.40729 15.029L2.88542 14.103C2.77342 14.0454 2.68609 13.9492 2.63958 13.8322L1.67083 14.2145ZM1.5625 13.1603C1.5625 13.3801 1.5625 13.5707 1.57292 13.729C1.57966 13.8958 1.61307 14.0604 1.67188 14.2165L2.64062 13.8342C2.62252 13.7777 2.61303 13.7187 2.6125 13.6592C2.60476 13.4927 2.60198 13.326 2.60417 13.1592L1.5625 13.1603ZM1.5625 11.8436V13.1603H2.60417V11.8436H1.5625ZM1.67188 10.7863C1.6133 10.9433 1.5799 11.1085 1.57292 11.2759C1.5625 11.4332 1.5625 11.6238 1.5625 11.8436H2.60417C2.60417 11.6103 2.60417 11.4603 2.6125 11.3447C2.613 11.2852 2.62249 11.2262 2.64062 11.1697L1.67188 10.7863ZM2.40833 9.97279C2.07256 10.146 1.81093 10.435 1.67188 10.7863L2.64062 11.1697C2.68713 11.0526 2.77447 10.9564 2.88646 10.8988L2.40833 9.97279ZM3.45 9.75716C3.23125 9.77904 3.04062 9.79987 2.88542 9.82487C2.71958 9.84871 2.55857 9.89863 2.40833 9.97279L2.88646 10.8988C2.90729 10.8884 2.94896 10.8707 3.05729 10.853C3.17187 10.8332 3.32083 10.8186 3.55312 10.7947L3.45 9.75716ZM4.70312 9.55508C4.6875 9.56758 4.62396 9.60508 4.40104 9.6457C4.18229 9.68529 3.88646 9.71341 3.45 9.75716L3.55312 10.7947C3.97083 10.753 4.31771 10.7186 4.58542 10.6707C4.84896 10.6238 5.11667 10.5509 5.33542 10.3832L4.70312 9.55508ZM4.90312 9.07174C4.91537 9.16279 4.90333 9.25545 4.8682 9.34034C4.83308 9.42522 4.77613 9.49931 4.70312 9.55508L5.33542 10.3832C5.55442 10.2159 5.72527 9.99364 5.83065 9.73899C5.93602 9.48433 5.97217 9.2053 5.93542 8.93216L4.90312 9.07174ZM4.16042 8.04154C4.43854 8.38112 4.62708 8.61237 4.75417 8.79466C4.88333 8.98112 4.9 9.05299 4.90312 9.07174L5.93542 8.93216C5.89896 8.65925 5.76146 8.41966 5.60833 8.19987C5.45312 7.97591 5.23333 7.7082 4.96667 7.38216L4.16042 8.04154ZM3.57604 7.15404C3.62812 7.3207 3.71354 7.46237 3.80833 7.5957C3.9 7.72383 4.02083 7.87174 4.16042 8.04154L4.96667 7.38216C4.85968 7.2547 4.75651 7.12409 4.65729 6.99049C4.61988 6.94426 4.58968 6.89264 4.56771 6.83737L3.57604 7.15404ZM3.63021 6.0582C3.48028 6.40492 3.46104 6.79422 3.57604 7.15404L4.56771 6.83737C4.52977 6.71756 4.53643 6.58807 4.58646 6.47279L3.63021 6.0582ZM4.30104 5.2332C4.14479 5.38841 4.00938 5.52279 3.90521 5.64258C3.79225 5.76579 3.69944 5.90606 3.63021 6.0582L4.58646 6.47279C4.61373 6.41989 4.64885 6.37038 4.69062 6.32799C4.80222 6.20471 4.91791 6.0852 5.0375 5.96966L4.30104 5.2332ZM5.23125 4.30195L4.30104 5.2332L5.0375 5.96966L5.96771 5.03841L5.23125 4.30195ZM6.05625 3.63216C5.90414 3.70147 5.76389 3.79427 5.64062 3.90716C5.52187 4.01133 5.38646 4.1457 5.23125 4.30195L5.96771 5.03841C6.13333 4.87383 6.23958 4.76758 6.32604 4.69154C6.40937 4.61862 6.44896 4.59779 6.47083 4.58737L6.05625 3.63216ZM7.15312 3.57695C6.79287 3.46202 6.40315 3.48163 6.05625 3.63216L6.47083 4.58737C6.58612 4.53734 6.71561 4.53172 6.83542 4.56966L7.15312 3.57695ZM8.04062 4.16237C7.86979 4.02279 7.72292 3.90195 7.59375 3.81029C7.46007 3.7098 7.31137 3.63105 7.15312 3.57695L6.83542 4.56966C6.89099 4.59121 6.94297 4.62107 6.98958 4.6582C7.08333 4.72591 7.2 4.8207 7.38125 4.96862L8.04062 4.16237ZM9.06979 4.90508C9.05104 4.90195 8.97917 4.88424 8.79271 4.75508C8.53526 4.56587 8.28442 4.36888 8.04062 4.16237L7.38125 4.96862C7.70625 5.23529 7.975 5.45508 8.19792 5.61029C8.41667 5.76237 8.65833 5.89987 8.93125 5.93737L9.06979 4.90508ZM9.55312 4.70404C9.49748 4.77723 9.42344 4.83438 9.33855 4.86969C9.25366 4.905 9.16093 4.91721 9.06979 4.90508L8.93125 5.93737C9.20455 5.97431 9.48276 5.93722 9.73761 5.83184C9.99247 5.72646 10.2149 5.5555 10.3823 5.33633L9.55312 4.70404ZM9.75625 3.45195C9.7125 3.88737 9.68333 4.18424 9.64375 4.40195C9.60312 4.62487 9.56562 4.68841 9.55312 4.70404L10.3823 5.33633C10.549 5.11758 10.6219 4.84987 10.6687 4.58633C10.7167 4.31862 10.7521 3.97383 10.7937 3.55508L9.75625 3.45195ZM9.97083 2.41029C9.89062 2.56654 9.85 2.72591 9.82292 2.88737C9.79688 3.04362 9.77812 3.23216 9.75625 3.45195L10.7927 3.55612C10.8072 3.38995 10.8266 3.22425 10.851 3.05924C10.8576 3.00031 10.8731 2.94272 10.8969 2.88841L9.97083 2.41029ZM10.7854 1.67383C10.4336 1.81293 10.1441 2.07394 9.97083 2.41029L10.8969 2.88841C10.9545 2.77642 11.0507 2.68909 11.1677 2.64258L10.7854 1.67383ZM11.8417 1.56445C11.6219 1.56445 11.4312 1.56445 11.2729 1.57487C11.1062 1.58161 10.9416 1.61502 10.7854 1.67383L11.1677 2.64258C11.2243 2.62444 11.2833 2.61496 11.3427 2.61445C11.4573 2.60612 11.6083 2.60612 11.8427 2.60612L11.8417 1.56445ZM13.1583 1.56445H11.8417V2.60612H13.1583V1.56445ZM14.2156 1.67383C14.0587 1.61523 13.8934 1.58183 13.726 1.57487C13.5687 1.56445 13.3781 1.56445 13.1583 1.56445V2.60612C13.3917 2.60612 13.5417 2.60612 13.6573 2.61445C13.7167 2.61529 13.7756 2.62477 13.8323 2.64258L14.2156 1.67383ZM15.0292 2.41029C14.8557 2.07433 14.5663 1.81267 14.2146 1.67383L13.8323 2.64258C13.9493 2.68909 14.0455 2.77642 14.1031 2.88841L15.0292 2.41029ZM16.1458 12.5009C16.1458 13.4678 15.7617 14.3952 15.078 15.0789C14.3943 15.7626 13.4669 16.1467 12.5 16.1467V17.1884C13.7432 17.1884 14.9355 16.6945 15.8146 15.8155C16.6936 14.9364 17.1875 13.7441 17.1875 12.5009H16.1458ZM12.5 8.85508C13.4669 8.85508 14.3943 9.23919 15.078 9.92292C15.7617 10.6066 16.1458 11.534 16.1458 12.5009H17.1875C17.1875 11.2577 16.6936 10.0654 15.8146 9.18635C14.9355 8.30727 13.7432 7.81341 12.5 7.81341V8.85508ZM8.85417 12.5009C8.85417 11.534 9.23828 10.6066 9.92201 9.92292C10.6057 9.23919 11.5331 8.85508 12.5 8.85508V7.81341C11.2568 7.81341 10.0645 8.30727 9.18544 9.18635C8.30636 10.0654 7.8125 11.2577 7.8125 12.5009H8.85417ZM12.5 16.1467C11.5331 16.1467 10.6057 15.7626 9.92201 15.0789C9.23828 14.3952 8.85417 13.4678 8.85417 12.5009H7.8125C7.8125 13.7441 8.30636 14.9364 9.18544 15.8155C10.0645 16.6945 11.2568 17.1884 12.5 17.1884V16.1467Z" fill="black"/>
</svg>
