<svg width="30" height="30" viewBox="0 0 30 30" fill="none" xmlns="http://www.w3.org/2000/svg">
<circle cx="15" cy="15" r="15" fill="#EFF1F3"/>
<path d="M13.9544 10.54C13.9544 11.3229 13.3203 11.9574 12.5385 11.9574C11.7566 11.9574 11.1225 11.3229 11.1225 10.54C11.1225 9.75703 11.7566 9.12253 12.5385 9.12253C13.3203 9.12253 13.9544 9.75703 13.9544 10.54Z" fill="black" stroke="black" stroke-width="0.245055"/>
<path d="M19.3011 10.54C19.3011 11.3229 18.667 11.9574 17.8851 11.9574C17.1033 11.9574 16.4692 11.3229 16.4692 10.54C16.4692 9.75703 17.1033 9.12253 17.8851 9.12253C18.667 9.12253 19.3011 9.75703 19.3011 10.54Z" fill="black" stroke="black" stroke-width="0.245055"/>
<path d="M19.3011 15.1259C19.3011 15.9089 18.667 16.5434 17.8851 16.5434C17.1033 16.5434 16.4692 15.9089 16.4692 15.1259C16.4692 14.343 17.1033 13.7085 17.8851 13.7085C18.667 13.7085 19.3011 14.343 19.3011 15.1259Z" fill="black" stroke="black" stroke-width="0.245055"/>
<path d="M13.9544 15.1259C13.9544 15.9089 13.3203 16.5434 12.5385 16.5434C11.7566 16.5434 11.1225 15.9089 11.1225 15.1259C11.1225 14.343 11.7566 13.7085 12.5385 13.7085C13.3203 13.7085 13.9544 14.343 13.9544 15.1259Z" fill="black" stroke="black" stroke-width="0.245055"/>
<path d="M19.3157 19.7119C19.3157 20.4948 18.6817 21.1293 17.8998 21.1293C17.1179 21.1293 16.4839 20.4948 16.4839 19.7119C16.4839 18.9289 17.1179 18.2944 17.8998 18.2944C18.6817 18.2944 19.3157 18.9289 19.3157 19.7119Z" fill="black" stroke="black" stroke-width="0.245055"/>
<path d="M13.9544 19.7119C13.9544 20.4948 13.3203 21.1293 12.5385 21.1293C11.7566 21.1293 11.1225 20.4948 11.1225 19.7119C11.1225 18.9289 11.7566 18.2944 12.5385 18.2944C13.3203 18.2944 13.9544 18.9289 13.9544 19.7119Z" fill="black" stroke="black" stroke-width="0.245055"/>
</svg>
