<svg width="35" height="35" viewBox="0 0 35 35" fill="none" xmlns="http://www.w3.org/2000/svg">
<g clip-path="url(#clip0_2925_28432)">
<g filter="url(#filter0_i_2925_28432)">
<path d="M7.91665 0H27.0834C31.4584 0 35 3.54167 35 7.91665V27.0834C35 31.4584 31.4584 35 27.0834 35H7.91665C3.54167 35 0 31.4584 0 27.0834V7.91665C0 3.54167 3.54167 0 7.91665 0Z" fill="#FFFC00"/>
<path d="M29.3013 23.4997C29.1982 23.1583 28.7045 22.9177 28.7045 22.9177C28.6579 22.8931 28.6162 22.871 28.5818 22.8538C27.759 22.456 27.0296 21.9771 26.4156 21.4343C25.922 20.9971 25.4996 20.5158 25.1607 20.005C24.7457 19.3811 24.5516 18.8605 24.4681 18.5781C24.4215 18.3939 24.4288 18.3202 24.4681 18.2244C24.5 18.1434 24.5958 18.0672 24.64 18.0304C24.9175 17.8339 25.3645 17.5441 25.6396 17.3673C25.8778 17.2126 26.0816 17.08 26.202 16.9965C26.5876 16.7263 26.8528 16.4513 27.0075 16.1541C27.2089 15.771 27.2335 15.3485 27.0763 14.9335C26.8651 14.3736 26.342 14.0395 25.6764 14.0395C25.5291 14.0395 25.3768 14.0567 25.2245 14.0887C24.8439 14.1722 24.4828 14.3072 24.1808 14.4251C24.1587 14.4349 24.1341 14.4178 24.1366 14.3932C24.1685 13.6442 24.2053 12.6372 24.1218 11.6819C24.0481 10.8174 23.8689 10.088 23.5791 9.45191C23.2868 8.81338 22.9061 8.34184 22.609 8.00046C22.3265 7.67627 21.828 7.19738 21.0765 6.76758C20.0205 6.16344 18.817 5.85645 17.5007 5.85645C16.1868 5.85645 14.9858 6.16344 13.9273 6.76758C13.1316 7.22193 12.6232 7.7352 12.3924 8.00046C12.0952 8.34184 11.7145 8.81338 11.4223 9.45191C11.13 10.088 10.9532 10.8149 10.8795 11.6819C10.7961 12.6421 10.8304 13.568 10.8648 14.3932C10.8648 14.4178 10.8427 14.4349 10.8181 14.4251C10.5161 14.3072 10.1551 14.1722 9.7744 14.0887C9.62456 14.0567 9.47231 14.0395 9.32251 14.0395C8.65939 14.0395 8.13631 14.3736 7.92264 14.9335C7.76544 15.3485 7.78999 15.771 7.99141 16.1541C8.14856 16.4513 8.41137 16.7263 8.79694 16.9965C8.9148 17.08 9.12113 17.2126 9.35934 17.3673C9.62705 17.5417 10.0617 17.8241 10.3417 18.0181C10.3761 18.0427 10.494 18.1311 10.5308 18.2244C10.5701 18.3227 10.5775 18.3963 10.5259 18.5928C10.4399 18.8777 10.2459 19.3934 9.83823 20.005C9.49934 20.5183 9.07689 20.9971 8.58326 21.4343C7.96928 21.9771 7.23988 22.456 6.41716 22.8538C6.37787 22.8735 6.33119 22.8956 6.28206 22.925C6.28206 22.925 5.79088 23.1755 5.69756 23.4997C5.56005 23.9786 5.92598 24.4281 6.2968 24.6687C6.90589 25.0617 7.64758 25.2729 8.07734 25.3883C8.19769 25.4203 8.30576 25.4497 8.40398 25.4792C8.4654 25.4988 8.6201 25.5578 8.68643 25.6437C8.7699 25.7518 8.77974 25.8844 8.80923 26.0342C8.85587 26.2872 8.96148 26.5991 9.27338 26.8152C9.61721 27.051 10.0519 27.0682 10.6045 27.0903C11.1816 27.1124 11.8988 27.1394 12.7215 27.412C13.1022 27.5372 13.4484 27.7509 13.8463 27.9965C14.6813 28.5098 15.7202 29.1483 17.4933 29.1483C19.2689 29.1483 20.3152 28.5074 21.1551 27.9916C21.5529 27.7485 21.8943 27.5372 22.2676 27.4144C23.0903 27.1418 23.8075 27.1148 24.3846 27.0927C24.9372 27.0706 25.3719 27.0559 25.7157 26.8177C26.0497 26.5868 26.1455 26.243 26.1897 25.9851C26.2143 25.8574 26.229 25.742 26.3027 25.6486C26.3665 25.5676 26.509 25.5111 26.5753 25.489C26.676 25.4571 26.7889 25.4276 26.9142 25.3932C27.344 25.2778 27.8843 25.1427 28.54 24.7719C29.3308 24.3224 29.3849 23.7723 29.3013 23.4997Z" fill="white"/>
<path d="M29.9835 23.2349C29.8092 22.7585 29.4751 22.5055 29.097 22.2943C29.0257 22.2526 28.9594 22.2182 28.9054 22.1936C28.7924 22.1347 28.677 22.0782 28.5616 22.0193C27.3803 21.393 26.4568 20.6022 25.8183 19.6665C25.6022 19.3497 25.4524 19.0648 25.3468 18.8315C25.2927 18.6743 25.2952 18.5859 25.3345 18.5049C25.364 18.4434 25.4425 18.3796 25.4868 18.3477C25.6906 18.2126 25.8994 18.0775 26.0418 17.9866C26.2947 17.8221 26.4961 17.6919 26.6239 17.6035C27.1101 17.2646 27.449 16.9036 27.6603 16.5008C27.9599 15.9335 27.9967 15.2852 27.7658 14.6761C27.4466 13.8312 26.646 13.3057 25.6783 13.3057C25.4769 13.3057 25.2731 13.3278 25.0717 13.372C25.0177 13.3843 24.9661 13.3966 24.9145 13.4088C24.9244 12.8342 24.9096 12.2202 24.858 11.6209C24.6763 9.50885 23.9371 8.40124 23.1659 7.51954C22.8442 7.15117 22.2843 6.6133 21.4443 6.13197C20.2729 5.45905 18.9467 5.12012 17.5001 5.12012C16.0585 5.12012 14.7323 5.45905 13.5609 6.12952C12.716 6.61085 12.156 7.15117 11.8368 7.51709C11.0656 8.39879 10.3264 9.50636 10.1447 11.6185C10.0931 12.2177 10.0808 12.8317 10.0882 13.4064C10.0366 13.3941 9.98259 13.3818 9.93101 13.3695C9.72963 13.3253 9.5233 13.3032 9.32437 13.3032C8.35675 13.3032 7.55613 13.8288 7.23684 14.6736C7.00602 15.2827 7.04285 15.931 7.34245 16.4984C7.55368 16.9011 7.89506 17.2621 8.37885 17.6011C8.50905 17.6919 8.70794 17.8221 8.9609 17.9842C9.09845 18.0726 9.29738 18.2028 9.49386 18.3329C9.5233 18.3526 9.62892 18.4312 9.66575 18.5049C9.70749 18.5883 9.70749 18.6792 9.64611 18.8462C9.54295 19.0746 9.39315 19.3546 9.18197 19.664C8.55569 20.5801 7.65929 21.3562 6.51729 21.9751C5.91065 22.2968 5.28196 22.5104 5.0167 23.2325C4.81532 23.7777 4.94797 24.399 5.4563 24.9222C5.62334 25.1014 5.83452 25.2611 6.09978 25.4084C6.72357 25.7523 7.25404 25.9217 7.67154 26.0371C7.74522 26.0592 7.9147 26.1132 7.98838 26.1796C8.17502 26.3417 8.14802 26.5873 8.39604 26.9458C8.54589 27.1693 8.71778 27.3216 8.86023 27.4198C9.3784 27.7784 9.96295 27.8005 10.5818 27.8251C11.1393 27.8471 11.7729 27.8717 12.495 28.1099C12.7946 28.2082 13.1065 28.3997 13.465 28.6207C14.3295 29.1537 15.5157 29.8806 17.4977 29.8806C19.482 29.8806 20.6732 29.1488 21.545 28.6158C21.9036 28.3973 22.213 28.2057 22.5028 28.1099C23.2248 27.8717 23.8585 27.8471 24.416 27.8251C25.0349 27.8005 25.6169 27.7784 26.1376 27.4198C26.2997 27.3068 26.506 27.1227 26.6681 26.8427C26.8449 26.5406 26.8424 26.3269 27.0094 26.182C27.0782 26.1231 27.228 26.0715 27.309 26.047C27.729 25.9315 28.2669 25.7621 28.9029 25.4109C29.1853 25.2561 29.404 25.0867 29.5783 24.8927C29.5808 24.8902 29.5832 24.8878 29.5857 24.8853C30.0597 24.3695 30.18 23.7679 29.9835 23.2349ZM28.2226 24.1805C27.1469 24.7748 26.4323 24.7109 25.8772 25.0671C25.4057 25.3716 25.6832 26.0273 25.3419 26.2631C24.9195 26.5553 23.6743 26.2434 22.0657 26.7739C20.7395 27.2135 19.8922 28.4734 17.5026 28.4734C15.1081 28.4734 14.2853 27.2184 12.9395 26.7739C11.3309 26.2434 10.0833 26.5553 9.6633 26.2631C9.32192 26.0273 9.59947 25.3716 9.12794 25.0671C8.57288 24.7085 7.85822 24.7724 6.7825 24.1805C6.09733 23.8022 6.48535 23.5689 6.71377 23.4584C10.6088 21.5748 11.2277 18.662 11.2572 18.4434C11.2916 18.1831 11.3284 17.9768 11.0411 17.7091C10.7636 17.4513 9.52825 16.6875 9.18687 16.4493C8.61956 16.0539 8.3715 15.6584 8.55569 15.1722C8.68339 14.8357 8.99774 14.7105 9.32932 14.7105C9.43244 14.7105 9.53805 14.7228 9.63876 14.7449C10.2601 14.8799 10.8642 15.1918 11.213 15.2753C11.2621 15.2876 11.3038 15.2925 11.3407 15.2925C11.5274 15.2925 11.5912 15.1992 11.5789 14.9855C11.5396 14.3053 11.4414 12.9791 11.5495 11.7388C11.6968 10.0344 12.2469 9.18957 12.9002 8.44052C13.2145 8.08195 14.6881 6.52489 17.5051 6.52489C20.3293 6.52489 21.7955 8.08195 22.1099 8.44052C22.7631 9.18712 23.3133 10.0319 23.4606 11.7388C23.5687 12.9791 23.4754 14.3053 23.4312 14.9855C23.4164 15.209 23.4852 15.2925 23.6694 15.2925C23.7062 15.2925 23.7504 15.2876 23.7971 15.2753C24.1458 15.1918 24.75 14.8799 25.3713 14.7449C25.472 14.7228 25.5776 14.7105 25.6808 14.7105C26.0123 14.7105 26.3267 14.8382 26.4544 15.1722C26.6386 15.6584 26.3881 16.0539 25.8232 16.4493C25.4819 16.6875 24.2465 17.4513 23.969 17.7091C23.6817 17.9744 23.7185 18.1807 23.7529 18.4434C23.7799 18.662 24.4012 21.5748 28.2963 23.4584C28.5174 23.5689 28.9078 23.8022 28.2226 24.1805Z" fill="black"/>
</g>
</g>
<defs>
<filter id="filter0_i_2925_28432" x="0" y="-1" width="35" height="36" filterUnits="userSpaceOnUse" color-interpolation-filters="sRGB">
<feFlood flood-opacity="0" result="BackgroundImageFix"/>
<feBlend mode="normal" in="SourceGraphic" in2="BackgroundImageFix" result="shape"/>
<feColorMatrix in="SourceAlpha" type="matrix" values="0 0 0 0 0 0 0 0 0 0 0 0 0 0 0 0 0 0 127 0" result="hardAlpha"/>
<feOffset dy="-1"/>
<feGaussianBlur stdDeviation="0.5"/>
<feComposite in2="hardAlpha" operator="arithmetic" k2="-1" k3="1"/>
<feColorMatrix type="matrix" values="0 0 0 0 0 0 0 0 0 0 0 0 0 0 0 0 0 0 0.12 0"/>
<feBlend mode="normal" in2="shape" result="effect1_innerShadow_2925_28432"/>
</filter>
<clipPath id="clip0_2925_28432">
<rect width="35" height="35" fill="white"/>
</clipPath>
</defs>
</svg>
