<svg width="35" height="35" viewBox="0 0 35 35" fill="none" xmlns="http://www.w3.org/2000/svg">
<g clip-path="url(#clip0_2925_28514)">
<g filter="url(#filter0_i_2925_28514)">
<path d="M7.91665 0H27.0834C31.4584 0 35 3.54167 35 7.91665V27.0834C35 31.4584 31.4584 35 27.0834 35H7.91665C3.54167 35 0 31.4584 0 27.0834V7.91665C0 3.54167 3.54167 0 7.91665 0Z" fill="#FFFEFF"/>
<mask id="mask0_2925_28514" style="mask-type:luminance" maskUnits="userSpaceOnUse" x="3" y="3" width="29" height="29">
<path d="M31.9375 3.5H3.5V31.9375H31.9375V3.5Z" fill="white"/>
</mask>
<g mask="url(#mask0_2925_28514)">
<path d="M17.7247 31.9494C25.5808 31.9494 31.9494 25.5808 31.9494 17.7247C31.9494 9.8686 25.5808 3.5 17.7247 3.5C9.8686 3.5 3.5 9.8686 3.5 17.7247C3.5 25.5808 9.8686 31.9494 17.7247 31.9494Z" fill="url(#paint0_linear_2925_28514)"/>
<path fill-rule="evenodd" clip-rule="evenodd" d="M9.93159 17.5711C14.077 15.7708 16.8367 14.5745 18.2224 13.9942C22.1665 12.3479 22.9956 12.0636 23.5285 12.0518C23.647 12.0518 23.9075 12.0754 24.0852 12.2176C24.2273 12.336 24.2629 12.49 24.2865 12.6084C24.3102 12.7269 24.3339 12.9756 24.3102 13.1651C24.0971 15.4155 23.1732 20.8756 22.6995 23.3865C22.4981 24.4524 22.1073 24.8078 21.7283 24.8433C20.8991 24.9143 20.2714 24.2985 19.4779 23.7773C18.2224 22.9601 17.5236 22.4508 16.3037 21.6454C14.8942 20.7216 15.8062 20.2123 16.6116 19.3832C16.8248 19.17 20.4609 15.8537 20.532 15.5576C20.5439 15.5221 20.5439 15.3799 20.4609 15.3089C20.378 15.2378 20.2596 15.2615 20.1648 15.2852C20.0346 15.3089 18.0448 16.6354 14.1718 19.2529C13.6032 19.6438 13.0939 19.8333 12.632 19.8215C12.1227 19.8096 11.1515 19.5372 10.4172 19.3003C9.52891 19.0161 8.81824 18.8621 8.87748 18.3646C8.913 18.104 9.26834 17.8435 9.93159 17.5711Z" fill="white"/>
</g>
</g>
</g>
<defs>
<filter id="filter0_i_2925_28514" x="0" y="-1" width="35" height="36" filterUnits="userSpaceOnUse" color-interpolation-filters="sRGB">
<feFlood flood-opacity="0" result="BackgroundImageFix"/>
<feBlend mode="normal" in="SourceGraphic" in2="BackgroundImageFix" result="shape"/>
<feColorMatrix in="SourceAlpha" type="matrix" values="0 0 0 0 0 0 0 0 0 0 0 0 0 0 0 0 0 0 127 0" result="hardAlpha"/>
<feOffset dy="-1"/>
<feGaussianBlur stdDeviation="0.5"/>
<feComposite in2="hardAlpha" operator="arithmetic" k2="-1" k3="1"/>
<feColorMatrix type="matrix" values="0 0 0 0 0 0 0 0 0 0 0 0 0 0 0 0 0 0 0.12 0"/>
<feBlend mode="normal" in2="shape" result="effect1_innerShadow_2925_28514"/>
</filter>
<linearGradient id="paint0_linear_2925_28514" x1="17.7128" y1="3.5" x2="17.7128" y2="31.7243" gradientUnits="userSpaceOnUse">
<stop stop-color="#2AABEE"/>
<stop offset="1" stop-color="#229ED9"/>
</linearGradient>
<clipPath id="clip0_2925_28514">
<rect width="35" height="35" fill="white"/>
</clipPath>
</defs>
</svg>
