<svg width="35" height="35" viewBox="0 0 35 35" fill="none" xmlns="http://www.w3.org/2000/svg">
<g clip-path="url(#clip0_2925_28445)">
<mask id="mask0_2925_28445" style="mask-type:luminance" maskUnits="userSpaceOnUse" x="0" y="0" width="35" height="35">
<path d="M35 0H0V35H35V0Z" fill="white"/>
</mask>
<g mask="url(#mask0_2925_28445)">
<g filter="url(#filter0_i_2925_28445)">
<path d="M7.91665 0H27.0834C31.4584 0 35 3.54167 35 7.91665V27.0834C35 31.4584 31.4584 35 27.0834 35H7.91665C3.54167 35 0 31.4584 0 27.0834V7.91665C0 3.54167 3.54167 0 7.91665 0Z" fill="black"/>
<mask id="mask1_2925_28445" style="mask-type:luminance" maskUnits="userSpaceOnUse" x="4" y="4" width="27" height="27">
<path d="M30.7959 4.34082H4.34082V30.7959H30.7959V4.34082Z" fill="white"/>
</mask>
<g mask="url(#mask1_2925_28445)">
<path d="M23.8425 16.6022C23.7286 16.5476 23.6128 16.4951 23.4956 16.4447C23.2914 12.6822 21.2355 10.5281 17.7834 10.5061C17.7677 10.506 17.7522 10.506 17.7365 10.506C15.6717 10.506 13.9544 11.3874 12.8975 12.9912L14.796 14.2936C15.5856 13.0956 16.8248 12.8402 17.7374 12.8402C17.748 12.8402 17.7586 12.8402 17.769 12.8403C18.9057 12.8475 19.7634 13.178 20.3185 13.8225C20.7225 14.2917 20.9927 14.9401 21.1265 15.7584C20.1187 15.5871 19.0289 15.5344 17.8637 15.6012C14.5816 15.7903 12.4716 17.7045 12.6133 20.3643C12.6852 21.7135 13.3574 22.8742 14.5058 23.6325C15.4769 24.2735 16.7275 24.5869 18.0273 24.516C19.7438 24.4219 21.0904 23.767 22.0298 22.5695C22.7433 21.6601 23.1946 20.4816 23.3938 18.9966C24.2118 19.4904 24.8181 20.14 25.1529 20.921C25.7223 22.2486 25.7555 24.4301 23.9754 26.2087C22.4158 27.7668 20.541 28.4408 17.7078 28.4616C14.565 28.4384 12.1881 27.4305 10.6427 25.4659C9.1956 23.6263 8.44774 20.9692 8.41983 17.5683C8.44774 14.1675 9.1956 11.5104 10.6427 9.6708C12.1881 7.70625 14.565 6.69834 17.7078 6.67498C20.8734 6.69852 23.2917 7.71129 24.8962 9.68529C25.683 10.6533 26.2761 11.8707 26.6672 13.2901L28.892 12.6965C28.418 10.9494 27.6722 9.44387 26.6573 8.19525C24.6002 5.66449 21.5918 4.36771 17.7155 4.34082H17.7C13.8316 4.36761 10.8568 5.66934 8.85842 8.20977C7.08007 10.4705 6.16277 13.616 6.13192 17.5591L6.13184 17.5683L6.13192 17.5777C6.16277 21.5206 7.08007 24.6663 8.85842 26.927C10.8568 29.4674 13.8316 30.7692 17.7 30.7959H17.7155C21.1548 30.772 23.579 29.8716 25.576 27.8763C28.1889 25.266 28.1102 21.994 27.249 19.9853C26.6312 18.5448 25.4533 17.3749 23.8425 16.6022ZM17.9044 22.1852C16.4659 22.2662 14.9715 21.6205 14.8978 20.2376C14.8432 19.2122 15.6276 18.068 17.9927 17.9317C18.2636 17.9161 18.5294 17.9084 18.7905 17.9084C19.6496 17.9084 20.4533 17.9919 21.184 18.1516C20.9114 21.5552 19.3128 22.1079 17.9044 22.1852Z" fill="white"/>
</g>
</g>
</g>
</g>
<defs>
<filter id="filter0_i_2925_28445" x="0" y="-1" width="35" height="36" filterUnits="userSpaceOnUse" color-interpolation-filters="sRGB">
<feFlood flood-opacity="0" result="BackgroundImageFix"/>
<feBlend mode="normal" in="SourceGraphic" in2="BackgroundImageFix" result="shape"/>
<feColorMatrix in="SourceAlpha" type="matrix" values="0 0 0 0 0 0 0 0 0 0 0 0 0 0 0 0 0 0 127 0" result="hardAlpha"/>
<feOffset dy="-1"/>
<feGaussianBlur stdDeviation="0.5"/>
<feComposite in2="hardAlpha" operator="arithmetic" k2="-1" k3="1"/>
<feColorMatrix type="matrix" values="0 0 0 0 0 0 0 0 0 0 0 0 0 0 0 0 0 0 0.12 0"/>
<feBlend mode="normal" in2="shape" result="effect1_innerShadow_2925_28445"/>
</filter>
<clipPath id="clip0_2925_28445">
<rect width="35" height="35" fill="white"/>
</clipPath>
</defs>
</svg>
