<svg width="35" height="35" viewBox="0 0 35 35" fill="none" xmlns="http://www.w3.org/2000/svg">
<g clip-path="url(#clip0_2925_28465)">
<mask id="mask0_2925_28465" style="mask-type:luminance" maskUnits="userSpaceOnUse" x="0" y="0" width="35" height="35">
<path d="M35 0H0V35H35V0Z" fill="white"/>
</mask>
<g mask="url(#mask0_2925_28465)">
<g filter="url(#filter0_i_2925_28465)">
<path d="M7.91665 0H27.0834C31.4584 0 35 3.54167 35 7.91665V27.0834C35 31.4584 31.4584 35 27.0834 35H7.91665C3.54167 35 0 31.4584 0 27.0834V7.91665C0 3.54167 3.54167 0 7.91665 0Z" fill="#0E1317"/>
<mask id="mask1_2925_28465" style="mask-type:luminance" maskUnits="userSpaceOnUse" x="7" y="7" width="21" height="21">
<path d="M28 7H7V28H28V7Z" fill="white"/>
</mask>
<g mask="url(#mask1_2925_28465)">
<path fill-rule="evenodd" clip-rule="evenodd" d="M14.8204 17.894L6.81299 7.70703H13.1554L18.0983 14.0033L23.3791 7.73538H26.8721L19.7873 16.1547L28.188 26.8555H21.8645L16.5123 20.0465L10.7983 26.8366H7.28628L14.8204 17.894ZM22.7862 24.968L10.702 9.59449H12.233L24.302 24.968H22.7862Z" fill="white"/>
</g>
</g>
</g>
</g>
<defs>
<filter id="filter0_i_2925_28465" x="0" y="-1" width="35" height="36" filterUnits="userSpaceOnUse" color-interpolation-filters="sRGB">
<feFlood flood-opacity="0" result="BackgroundImageFix"/>
<feBlend mode="normal" in="SourceGraphic" in2="BackgroundImageFix" result="shape"/>
<feColorMatrix in="SourceAlpha" type="matrix" values="0 0 0 0 0 0 0 0 0 0 0 0 0 0 0 0 0 0 127 0" result="hardAlpha"/>
<feOffset dy="-1"/>
<feGaussianBlur stdDeviation="0.5"/>
<feComposite in2="hardAlpha" operator="arithmetic" k2="-1" k3="1"/>
<feColorMatrix type="matrix" values="0 0 0 0 0 0 0 0 0 0 0 0 0 0 0 0 0 0 0.12 0"/>
<feBlend mode="normal" in2="shape" result="effect1_innerShadow_2925_28465"/>
</filter>
<clipPath id="clip0_2925_28465">
<rect width="35" height="35" fill="white"/>
</clipPath>
</defs>
</svg>
