<svg width="35" height="35" viewBox="0 0 35 35" fill="none" xmlns="http://www.w3.org/2000/svg">
<g clip-path="url(#clip0_2925_28633)">
<g filter="url(#filter0_i_2925_28633)">
<path d="M7.91665 0H27.0834C31.4584 0 35 3.54167 35 7.91665V27.0834C35 31.4584 31.4584 35 27.0834 35H7.91665C3.54167 35 0 31.4584 0 27.0834V7.91665C0 3.54167 3.54167 0 7.91665 0Z" fill="url(#paint0_linear_2925_28633)"/>
<path d="M5.14746 29.8531C5.22984 29.5237 5.31218 29.2767 5.35335 29.0296C5.84746 27.3002 6.3004 25.5708 6.75335 23.8413C6.79452 23.6767 6.79452 23.4708 6.71218 23.3472C5.84746 21.8237 5.39452 20.1767 5.22984 18.4061C5.06512 16.5119 5.35335 14.659 6.05335 12.8884C7.16512 10.1708 9.01807 8.11195 11.571 6.67078C13.2181 5.76489 14.9886 5.27078 16.8828 5.1884C20.1357 5.06489 22.9769 6.01195 25.4475 8.15312C27.7122 10.1296 29.1533 12.6002 29.5651 15.5649C30.1004 19.2296 29.1945 22.4826 26.8063 25.3237C24.7886 27.7119 22.1945 29.1531 19.0651 29.5649C16.6357 29.8943 14.2886 29.5649 12.0651 28.4119C11.6945 28.2472 11.4063 28.2061 10.9945 28.2884C9.18279 28.7825 7.37101 29.2355 5.55924 29.7296C5.51807 29.7708 5.35335 29.8119 5.14746 29.8531ZM17.2122 7.16489C16.8828 7.20606 16.224 7.24723 15.6063 7.32961C13.3004 7.78255 11.324 8.89428 9.75924 10.6649C7.94746 12.7649 7.08279 15.2355 7.24746 17.9943C7.32984 19.8061 7.90629 21.4531 8.89452 22.9767C8.9769 23.1002 8.9769 23.2649 8.93569 23.4296C8.68863 24.3767 8.44157 25.3237 8.15335 26.2708C8.11218 26.4355 8.07101 26.559 8.02984 26.7237C8.02984 26.7649 8.15335 26.8884 8.19452 26.8884C8.2769 26.8884 8.4004 26.8472 8.52395 26.8061C9.51218 26.559 10.5416 26.2708 11.5298 26.0237C11.7357 25.9826 11.9828 26.0237 12.1475 26.1061C14.124 27.259 16.2651 27.7531 18.5298 27.5061C21.3298 27.2178 23.6357 25.9413 25.3651 23.8002C27.0533 21.7002 27.8357 19.3119 27.6298 16.5943C27.4651 14.2472 26.6004 12.1884 24.9945 10.459C23.0592 8.31783 20.5063 7.20606 17.2122 7.16489Z" fill="white"/>
<path d="M20.7125 23.2652C19.7655 23.3064 18.9419 22.9358 18.1184 22.6064C16.6772 22.071 15.4419 21.1652 14.3713 20.0534C13.4243 19.1064 12.5596 18.0769 11.9419 16.8828C11.3243 15.8123 11.0772 14.6593 11.489 13.4652C11.6948 12.8887 12.0655 12.3946 12.5184 11.9828C12.9713 11.6123 13.5066 11.6946 14.0419 11.8181C14.1655 11.8593 14.2478 11.9828 14.3302 12.1064C14.7007 12.9299 15.0713 13.7534 15.4007 14.6181C15.4831 14.7828 15.4419 15.0299 15.3184 15.1946C15.1537 15.4828 14.9066 15.771 14.6596 16.0181C14.3713 16.3475 14.3302 16.471 14.5772 16.8417C15.5655 18.5299 16.9655 19.724 18.7772 20.424C19.0243 20.5064 19.189 20.4652 19.3537 20.3005C19.6419 19.9299 19.9713 19.5593 20.2596 19.2299C20.5066 18.9005 20.6302 18.8593 21.0419 19.024C21.3713 19.1475 21.6596 19.3123 21.989 19.4358C22.4419 19.6417 22.8948 19.8887 23.3478 20.0946C23.6361 20.2181 23.7184 20.4652 23.7184 20.7534C23.5948 22.1534 22.4831 23.1828 21.0419 23.224C20.9184 23.2652 20.7948 23.2652 20.7125 23.2652Z" fill="white"/>
</g>
</g>
<defs>
<filter id="filter0_i_2925_28633" x="0" y="-1" width="35" height="36" filterUnits="userSpaceOnUse" color-interpolation-filters="sRGB">
<feFlood flood-opacity="0" result="BackgroundImageFix"/>
<feBlend mode="normal" in="SourceGraphic" in2="BackgroundImageFix" result="shape"/>
<feColorMatrix in="SourceAlpha" type="matrix" values="0 0 0 0 0 0 0 0 0 0 0 0 0 0 0 0 0 0 127 0" result="hardAlpha"/>
<feOffset dy="-1"/>
<feGaussianBlur stdDeviation="0.5"/>
<feComposite in2="hardAlpha" operator="arithmetic" k2="-1" k3="1"/>
<feColorMatrix type="matrix" values="0 0 0 0 0 0 0 0 0 0 0 0 0 0 0 0 0 0 0.12 0"/>
<feBlend mode="normal" in2="shape" result="effect1_innerShadow_2925_28633"/>
</filter>
<linearGradient id="paint0_linear_2925_28633" x1="17.5" y1="0" x2="17.5" y2="35" gradientUnits="userSpaceOnUse">
<stop stop-color="#00FF6A"/>
<stop offset="1" stop-color="#00D31D"/>
</linearGradient>
<clipPath id="clip0_2925_28633">
<rect width="35" height="35" fill="white"/>
</clipPath>
</defs>
</svg>
