<svg width="20" height="20" viewBox="0 0 20 20" fill="none" xmlns="http://www.w3.org/2000/svg">
<g clip-path="url(#clip0_1517_12064)">
<circle cx="10" cy="10" r="9.4" stroke="white" stroke-width="0.8"/>
<path d="M9.16962 9.98288C9.17839 9.51213 9.56727 9.13786 10.0439 9.14664C10.5146 9.15541 10.8889 9.54429 10.8801 10.0209C10.8713 10.4916 10.4825 10.8659 10.0059 10.8571C9.53511 10.8484 9.16084 10.4595 9.16962 9.98288Z" fill="white"/>
<path d="M4.79537 9.97715C4.80999 9.50347 5.19595 9.13506 5.67255 9.14676C6.14038 9.15845 6.52341 9.56488 6.50587 10.0269C6.4854 10.5005 6.09652 10.8689 5.62284 10.8573C5.15209 10.8456 4.78075 10.4508 4.79537 9.97715Z" fill="white"/>
<path d="M15.2543 10.0003C15.2543 10.4739 14.8742 10.857 14.4006 10.857C13.9298 10.857 13.5438 10.471 13.5409 10.0032C13.5409 9.53537 13.9269 9.14648 14.3976 9.14648C14.8742 9.14648 15.2543 9.52367 15.2543 10.0003Z" fill="white"/>
</g>
<defs>
<clipPath id="clip0_1517_12064">
<rect width="20" height="20" fill="white"/>
</clipPath>
</defs>
</svg>
