<svg width="20" height="20" viewBox="0 0 20 20" fill="none" xmlns="http://www.w3.org/2000/svg">
<path d="M2.74706 17.1689L8.0504 11.8656M14.7287 9.50726L13.1412 14.2698C13.1159 14.3461 13.0725 14.4152 13.0148 14.4712C12.957 14.5272 12.8866 14.5684 12.8096 14.5914L3.0779 17.4839C2.99022 17.51 2.89709 17.5115 2.80862 17.4882C2.72016 17.465 2.63976 17.418 2.57617 17.3523C2.51258 17.2865 2.46824 17.2046 2.44798 17.1154C2.42771 17.0262 2.4323 16.9332 2.46123 16.8464L5.62123 7.3681C5.64388 7.30004 5.6809 7.23766 5.72979 7.18517C5.77868 7.13269 5.83828 7.09134 5.90456 7.06393L10.3937 5.2156C10.485 5.1779 10.5854 5.16808 10.6822 5.18736C10.7791 5.20664 10.868 5.25416 10.9379 5.32393L14.6079 8.9956C14.6736 9.06125 14.7197 9.1439 14.741 9.23427C14.7623 9.32464 14.7581 9.41917 14.7287 9.50726Z" stroke="white" stroke-linecap="round" stroke-linejoin="round"/>
<path d="M14.8266 9.21308L17.1833 6.85558C17.4957 6.54304 17.6713 6.11919 17.6713 5.67725C17.6713 5.23531 17.4957 4.81146 17.1833 4.49892L15.4166 2.73058C15.2618 2.57575 15.0781 2.45292 14.8758 2.36912C14.6736 2.28532 14.4568 2.24219 14.2379 2.24219C14.0189 2.24219 13.8022 2.28532 13.5999 2.36912C13.3977 2.45292 13.2139 2.57575 13.0591 2.73058L10.7024 5.08808M9.81745 10.0964C9.70134 9.98036 9.56351 9.88831 9.41182 9.82552C9.26014 9.76273 9.09757 9.73044 8.9334 9.73048C8.76924 9.73052 8.60669 9.76289 8.45503 9.82575C8.30338 9.88861 8.16559 9.98072 8.04953 10.0968C7.93348 10.2129 7.84143 10.3508 7.77864 10.5025C7.71585 10.6541 7.68356 10.8167 7.68359 10.9809C7.68363 11.145 7.71601 11.3076 7.77887 11.4592C7.84172 11.6109 7.93384 11.7487 8.04995 11.8647C8.28444 12.0991 8.60245 12.2308 8.93399 12.2307C9.26554 12.2306 9.58348 12.0988 9.81787 11.8643C10.0523 11.6298 10.1839 11.3118 10.1838 10.9803C10.1837 10.6487 10.0519 10.3308 9.81745 10.0964Z" stroke="white" stroke-linecap="round" stroke-linejoin="round"/>
</svg>
