<svg width="51" height="22" viewBox="0 0 51 22" fill="none" xmlns="http://www.w3.org/2000/svg">
<path d="M3.52058 7.87398H7.5693V11.1159H3.52058V21.8561H0V7.41029C0 6.38733 0.165709 5.42268 0.499064 4.51539C0.831451 3.60811 1.32082 2.82224 1.96622 2.15588C2.61161 1.49047 3.4043 0.964648 4.34331 0.578406C5.28136 0.193121 6.35701 0 7.57027 0C7.7854 0 8.00054 0.0143407 8.21567 0.043022C8.4308 0.0717033 8.64593 0.106121 8.86106 0.144363V3.50199C8.66531 3.46375 8.47925 3.42933 8.30385 3.40065C8.12748 3.37197 7.94142 3.35763 7.74664 3.35763C6.94426 3.35763 6.27464 3.46375 5.73682 3.67599C5.19899 3.88823 4.76388 4.17313 4.4315 4.52974C4.09911 4.8873 3.86363 5.31178 3.72699 5.80318C3.59036 6.29555 3.52155 6.82137 3.52155 7.38066V7.87398H3.52058Z" fill="white"/>
<path d="M10.707 3.79165C10.707 3.17405 10.9076 2.65301 11.3088 2.22852C11.709 1.80404 12.2624 1.5918 12.9669 1.5918C13.6714 1.5918 14.2189 1.80882 14.6104 2.24286C15.0019 2.67691 15.1976 3.19413 15.1976 3.79165C15.1976 4.40926 15.0019 4.93508 14.6104 5.36913C14.2189 5.80317 13.6714 6.02019 12.9669 6.02019C12.2624 6.02019 11.71 5.80317 11.3088 5.36913C10.9076 4.93508 10.707 4.40926 10.707 3.79165Z" fill="#5ABA47"/>
<path d="M33.245 18.7145C33.0492 18.7432 32.805 18.7576 32.5114 18.7576C31.1615 18.7576 30.1682 18.3713 29.5335 17.5998C28.8978 16.8283 28.5799 15.834 28.5799 14.6179V11.1149H33.1277V7.87396H28.5799V4.22761V3.90829V1.5918H25.0593V3.90733V4.22665V14.6179C25.0593 15.6409 25.2299 16.6007 25.5729 17.4985C25.915 18.3962 26.4044 19.1773 27.0401 19.8436C27.6758 20.509 28.4433 21.0358 29.3435 21.4211C30.2428 21.8073 31.2603 22.0005 32.3951 22.0005C32.7662 22.0005 33.0356 21.9861 33.2023 21.9574C33.368 21.9288 33.5783 21.8943 33.8332 21.8561V18.6142C33.6365 18.6524 33.4407 18.6859 33.245 18.7145Z" fill="white"/>
<path d="M35.5581 14.9086C35.5581 13.9487 35.717 13.0386 36.0349 12.18C36.3527 11.3215 36.8208 10.5739 37.439 9.93619C38.0563 9.29946 38.8151 8.79659 39.7134 8.4266C40.6117 8.05756 41.6322 7.87305 42.7737 7.87305C43.8406 7.87305 44.8048 8.0394 45.6654 8.3721C46.5259 8.70481 47.2614 9.17518 47.869 9.78513C48.4766 10.3941 48.9544 11.1379 49.3013 12.0146C49.6472 12.8923 49.8391 13.8665 49.8769 14.9373C49.8953 15.2881 49.905 15.7174 49.905 16.225C49.905 16.7337 49.9331 17.292 49.9893 17.901C50.0455 18.51 50.1482 19.1524 50.2984 19.8265C50.4477 20.5005 50.6822 21.1793 51 21.8628H47.6306C47.3118 21.1802 47.0783 20.4689 46.929 19.7299C46.4416 20.4316 45.8243 20.9861 45.0762 21.3915C44.3271 21.7978 43.4288 22.0005 42.3812 22.0005C41.3889 22.0005 40.4722 21.816 39.6301 21.447C38.788 21.0779 38.067 20.5741 37.4681 19.9374C36.8692 19.3006 36.4012 18.5521 36.064 17.6935C35.7258 16.834 35.5581 15.9057 35.5581 14.9086ZM42.7737 10.9754C42.0808 10.9754 41.4916 11.0767 41.0052 11.2804C40.5187 11.484 40.1204 11.7651 39.8123 12.1255C39.5031 12.486 39.2783 12.9057 39.1388 13.3856C38.9983 13.8655 38.9285 14.3827 38.9285 14.9363C38.9285 15.4898 38.9983 16.0071 39.1388 16.488C39.2793 16.9688 39.5041 17.3885 39.8123 17.748C40.1214 18.1084 40.5187 18.3895 41.0052 18.5932C41.4916 18.7968 42.0818 18.8981 42.7737 18.8981C43.9337 18.8981 44.8465 18.5798 45.5113 17.9431C46.1751 17.3063 46.5084 16.3044 46.5084 14.9373C46.4522 13.7183 46.1334 12.7536 45.5539 12.0424C44.9725 11.3311 44.0461 10.9754 42.7737 10.9754Z" fill="white"/>
<path d="M21.7711 21.8561H18.2505V1.5918H21.7711V21.8561Z" fill="white"/>
<path d="M14.7288 21.8552H11.2083V7.87305H14.7288V21.8552Z" fill="#5ABA47"/>
</svg>
